<?xml version="1.0" encoding="utf-8"?>
<!-- Generator: Adobe Illustrator 24.0.3, SVG Export Plug-In . SVG Version: 6.00 Build 0)  -->
<svg version="1.1" id="Layer_1" xmlns="http://www.w3.org/2000/svg" xmlns:xlink="http://www.w3.org/1999/xlink" x="0px" y="0px"
	 viewBox="0 0 50 40" style="enable-background:new 0 0 50 40;" xml:space="preserve">
<style type="text/css">
	.st0{fill:none;stroke:#194a79;stroke-width:2;stroke-miterlimit:10;}
</style>
<g>
	<path class="st0" d="M47.92,31.43h-18l-2,2h-5l-3-2h-18v2c0,2.21,1.79,4,4,4h38c2.21,0,4-1.79,4-4V31.43z"/>
	<path class="st0" d="M44.92,31.43v-26c0-1.1-0.9-2-2-2h-36c-1.1,0-2,0.9-2,2v26"/>
	<polyline class="st0" points="12.92,10.43 14.92,12.43 18.92,8.43 	"/>
	<polyline class="st0" points="12.92,17.43 14.92,19.43 18.92,15.43 	"/>
	<polyline class="st0" points="12.92,24.43 14.92,26.43 18.92,22.43 	"/>
	<line class="st0" x1="21.92" y1="10.43" x2="35.92" y2="10.43"/>
	<line class="st0" x1="21.92" y1="17.43" x2="35.92" y2="17.43"/>
	<line class="st0" x1="21.92" y1="24.43" x2="35.92" y2="24.43"/>
</g>
</svg>
