<?xml version="1.0" encoding="utf-8"?>
<!-- Generator: Adobe Illustrator 24.0.3, SVG Export Plug-In . SVG Version: 6.00 Build 0)  -->
<svg version="1.1" id="Layer_1" xmlns="http://www.w3.org/2000/svg" xmlns:xlink="http://www.w3.org/1999/xlink" x="0px" y="0px"
	 viewBox="0 0 82 66" style="enable-background:new 0 0 82 66;" xml:space="preserve">
<style type="text/css">
	.st0{fill-rule:evenodd;clip-rule:evenodd;fill:#FFFFFF;filter:url(#Adobe_OpacityMaskFilter);}
	.st1{mask:url(#mask0_1_);}
	.st2{fill-rule:evenodd;clip-rule:evenodd;fill:#194a79;}
	.st3{fill:#194a79;}
	.st4{fill:none;stroke:#194a79;stroke-width:3;}
</style>
<defs>
	<filter id="Adobe_OpacityMaskFilter" filterUnits="userSpaceOnUse" x="1.68" y="0.22" width="78.32" height="65.3">
		<feColorMatrix  type="matrix" values="1 0 0 0 0  0 1 0 0 0  0 0 1 0 0  0 0 0 1 0"/>
	</filter>
</defs>
<mask maskUnits="userSpaceOnUse" x="1.68" y="0.22" width="78.32" height="65.3" id="mask0_1_">
	<path class="st0" d="M1.8,0.35h78.08v65.04H1.8V0.35z"/>
</mask>
<g class="st1">
	<path class="st2" d="M14.3,38.81c-1.72,0-3.12-1.39-3.12-3.1c0-1.71,1.4-3.09,3.12-3.09s3.12,1.39,3.12,3.09
		C17.43,37.42,16.03,38.81,14.3,38.81L14.3,38.81z M14.3,29.52c-3.45,0-6.24,2.77-6.24,6.19c0,3.42,2.79,6.19,6.24,6.19
		c3.45,0,6.24-2.77,6.24-6.19C20.55,32.29,17.75,29.52,14.3,29.52L14.3,29.52z M67.37,38.81c-1.72,0-3.12-1.39-3.12-3.1
		c0-1.71,1.4-3.09,3.12-3.09c1.72,0,3.12,1.39,3.12,3.09C70.49,37.42,69.1,38.81,67.37,38.81L67.37,38.81z M67.37,29.52
		c-3.45,0-6.24,2.77-6.24,6.19c0,3.42,2.8,6.19,6.24,6.19c3.45,0,6.24-2.77,6.24-6.19C73.62,32.29,70.82,29.52,67.37,29.52
		L67.37,29.52z M40.84,44.74c-5.32,0-10.61-0.88-15.72-2.6c-0.83-0.28-1.27-1.18-0.99-2c0.28-0.83,1.18-1.27,2.02-0.98
		c9.55,3.23,19.83,3.23,29.38,0c0.83-0.29,1.73,0.16,2.02,0.98c0.29,0.82-0.16,1.72-0.99,2C51.45,43.86,46.16,44.74,40.84,44.74
		L40.84,44.74z M76.74,46.8c0,1.71-1.4,3.1-3.12,3.1H8.06c-1.72,0-3.12-1.39-3.12-3.1V31.66c0.09-3.71,3.2-6.64,6.94-6.55
		c0.13,0,0.27,0.01,0.4,0.02H69.4c3.73-0.31,7,2.44,7.31,6.14c0.01,0.13,0.02,0.26,0.02,0.4V46.8z M73.62,60.71
		c0,0.86-0.7,1.55-1.56,1.55h-9.37c-0.86,0-1.56-0.69-1.56-1.55V53h12.49V60.71z M20.55,60.71c0.02,0.86-0.67,1.56-1.53,1.58h0H9.65
		c-0.87-0.02-1.58-0.71-1.59-1.58V53h12.48V60.71z M19.39,5.55c0.44-1.28,1.66-2.14,3.03-2.11h38.4c1.41-0.07,2.69,0.81,3.12,2.14
		l5.71,16.45H13.46L19.39,5.55z M48.64,0.35H33.03H48.64z M79.86,30.42c-0.43-3.69-3.03-6.77-6.62-7.84L67,4.62
		c-0.86-2.64-3.39-4.38-6.18-4.27h-38.4c-2.71-0.03-5.13,1.67-5.99,4.21l-6.24,17.62c-4.37,0.51-7.82,3.91-8.37,8.24
		c-0.02,0.15-0.02,0.31,0,0.46V46.8c0,2.21,1.19,4.25,3.12,5.36v8.55c0,2.58,2.11,4.68,4.71,4.68h9.37
		c2.59-0.02,4.67-2.11,4.65-4.68V53h34.34v7.74c0,2.57,2.1,4.65,4.68,4.65h9.37c2.59,0,4.68-2.08,4.68-4.65v-8.58
		c1.93-1.11,3.12-3.15,3.12-5.36V30.89C79.88,30.73,79.88,30.57,79.86,30.42L79.86,30.42z"/>
	<path class="st3" d="M25.12,42.14l-0.04,0.12h0L25.12,42.14z M24.13,40.14l0.12,0.04l0,0L24.13,40.14z M26.15,39.15l-0.04,0.12l0,0
		L26.15,39.15z M55.53,39.15l0.04,0.12l0,0L55.53,39.15z M57.54,40.14l-0.12,0.04l0,0L57.54,40.14z M56.56,42.14l0.04,0.12h0
		L56.56,42.14z M4.94,31.66l-0.12,0v0H4.94z M11.88,25.1l0-0.13h0L11.88,25.1z M12.28,25.13l-0.01,0.13h0.01V25.13z M69.4,25.13
		v0.13l0.01,0L69.4,25.13z M76.72,31.26l0.12-0.01l0,0L76.72,31.26z M76.74,31.66h0.12l0,0L76.74,31.66z M61.13,53v-0.13h-0.12V53
		H61.13z M73.62,53h0.12v-0.13h-0.12V53z M20.55,60.71h-0.12l0,0L20.55,60.71z M19.02,62.29v0.13h0L19.02,62.29z M9.65,62.29l0,0.13
		h0V62.29z M8.06,60.71H7.94l0,0L8.06,60.71z M8.06,53v-0.13H7.94V53H8.06z M20.55,53h0.12v-0.13h-0.12V53z M19.39,5.55l0.12,0.05
		l0,0L19.39,5.55z M22.42,3.45l0,0.13h0V3.45z M60.82,3.45v0.13l0.01,0L60.82,3.45z M63.94,5.58l-0.12,0.04l0,0L63.94,5.58z
		 M69.65,22.03v0.13h0.18l-0.06-0.18L69.65,22.03z M13.46,22.03l-0.12-0.05l-0.06,0.18h0.18V22.03z M73.24,22.59l-0.12,0.05
		l0.02,0.06l0.06,0.02L73.24,22.59z M67,4.62l-0.12,0.04l0,0L67,4.62z M60.82,0.35v0.13l0,0L60.82,0.35z M22.42,0.35l0,0.13h0V0.35z
		 M16.43,4.56l0.12,0.05l0,0L16.43,4.56z M10.18,22.18l0.01,0.13l0.08-0.01l0.03-0.08L10.18,22.18z M1.82,30.42l0.12,0.02l0,0
		L1.82,30.42z M1.82,30.89h0.12v-0.01l0-0.01L1.82,30.89z M1.82,46.8H1.69v0L1.82,46.8z M4.94,52.16h0.12v-0.08L5,52.05L4.94,52.16z
		 M19.02,65.38v0.13h0L19.02,65.38z M23.67,60.71h-0.12v0L23.67,60.71z M23.67,53v-0.13h-0.12V53H23.67z M58.01,53h0.12v-0.13h-0.12
		V53z M76.74,52.16l-0.06-0.12l-0.06,0.04v0.08H76.74z M79.86,46.8l0.12,0v0H79.86z M79.86,30.89l-0.12-0.02l0,0.01v0.01H79.86z
		 M14.3,38.68c-1.66,0-3-1.34-3-2.97h-0.25c0,1.79,1.46,3.23,3.25,3.23V38.68z M11.31,35.71c0-1.63,1.34-2.96,3-2.96v-0.26
		c-1.78,0-3.25,1.44-3.25,3.23H11.31z M14.3,32.75c1.66,0,3,1.33,3,2.96h0.25c0-1.79-1.46-3.23-3.24-3.23V32.75z M17.3,35.71
		c0,1.63-1.33,2.97-3,2.97v0.26c1.78,0,3.24-1.44,3.24-3.23H17.3z M14.3,29.39c-3.51,0-6.37,2.82-6.37,6.32h0.25
		c0-3.34,2.73-6.06,6.12-6.06V29.39z M7.94,35.71c0,3.5,2.86,6.33,6.37,6.33v-0.26c-3.39,0-6.12-2.72-6.12-6.06H7.94z M14.3,42.04
		c3.51,0,6.37-2.82,6.37-6.33h-0.25c0,3.34-2.73,6.06-6.12,6.06V42.04z M20.67,35.71c0-3.5-2.86-6.32-6.37-6.32v0.26
		c3.39,0,6.12,2.72,6.12,6.06H20.67z M67.37,38.68c-1.66,0-3-1.34-3-2.97h-0.25c0,1.79,1.46,3.23,3.24,3.23V38.68z M64.38,35.71
		c0-1.63,1.33-2.96,3-2.96v-0.26c-1.79,0-3.24,1.44-3.24,3.23H64.38z M67.37,32.75c1.66,0,3,1.33,3,2.96h0.25
		c0-1.79-1.46-3.23-3.24-3.23V32.75z M70.37,35.71c0,1.63-1.33,2.97-3,2.97v0.26c1.79,0,3.24-1.44,3.24-3.23H70.37z M67.37,29.39
		c-3.51,0-6.37,2.82-6.37,6.32h0.25c0-3.34,2.73-6.06,6.12-6.06V29.39z M61.01,35.71c0,3.5,2.86,6.33,6.37,6.33v-0.26
		c-3.39,0-6.12-2.72-6.12-6.06H61.01z M67.37,42.04c3.51,0,6.37-2.82,6.37-6.33h-0.25c0,3.34-2.73,6.06-6.12,6.06V42.04z
		 M73.74,35.71c0-3.5-2.86-6.32-6.37-6.32v0.26c3.39,0,6.12,2.72,6.12,6.06H73.74z M40.84,44.61c-5.31,0-10.58-0.87-15.68-2.6
		l-0.08,0.25c5.12,1.73,10.42,2.61,15.75,2.61V44.61z M25.16,42.01c-0.77-0.26-1.17-1.08-0.91-1.83l-0.23-0.09
		c-0.31,0.9,0.18,1.87,1.07,2.17L25.16,42.01z M24.25,40.18c0.26-0.76,1.09-1.17,1.86-0.9l0.08-0.25c-0.89-0.31-1.86,0.17-2.17,1.06
		L24.25,40.18z M26.11,39.28c9.58,3.24,19.88,3.24,29.46,0l-0.07-0.25c-9.53,3.22-19.78,3.22-29.31,0L26.11,39.28z M55.57,39.28
		c0.77-0.27,1.6,0.15,1.86,0.9l0.23-0.09c-0.31-0.9-1.28-1.37-2.17-1.06L55.57,39.28z M57.43,40.18c0.26,0.75-0.14,1.57-0.91,1.83
		l0.08,0.25c0.89-0.3,1.38-1.27,1.07-2.17L57.43,40.18z M56.52,42.01c-5.1,1.72-10.37,2.6-15.68,2.6v0.26
		c5.33,0,10.63-0.88,15.75-2.61L56.52,42.01z M76.62,46.8c0,1.63-1.33,2.97-3,2.97v0.26c1.79,0,3.25-1.44,3.25-3.23H76.62z
		 M73.62,49.77H8.06v0.26h65.55V49.77z M8.06,49.77c-1.66,0-3-1.33-3-2.97H4.82c0,1.79,1.46,3.23,3.25,3.23V49.77z M5.06,46.8V31.66
		H4.82V46.8H5.06z M5.06,31.66c0.09-3.63,3.13-6.52,6.81-6.43l0.01-0.26c-3.8-0.09-6.97,2.89-7.06,6.68L5.06,31.66z M11.87,25.24
		c0.13,0,0.26,0.01,0.39,0.02L12.29,25c-0.14-0.01-0.28-0.02-0.41-0.02L11.87,25.24z M12.28,25.26H69.4v-0.26H12.28V25.26z
		 M69.41,25.26c3.67-0.3,6.88,2.4,7.18,6.02l0.25-0.02c-0.32-3.78-3.66-6.57-7.45-6.26L69.41,25.26z M76.59,31.27
		c0.01,0.13,0.02,0.26,0.02,0.39l0.25-0.01c0-0.13-0.01-0.27-0.02-0.4L76.59,31.27z M76.62,31.66V46.8h0.25V31.66H76.62z
		 M73.49,60.71c0,0.78-0.64,1.42-1.44,1.42v0.26c0.92,0,1.68-0.74,1.68-1.68H73.49z M72.06,62.13h-9.37v0.26h9.37V62.13z
		 M62.69,62.13c-0.8,0-1.44-0.64-1.44-1.42h-0.25c0,0.94,0.76,1.68,1.69,1.68V62.13z M61.25,60.71V53h-0.25v7.71H61.25z
		 M61.13,53.13h12.49v-0.26H61.13V53.13z M73.49,53v7.71h0.25V53H73.49z M20.42,60.71c0.02,0.77-0.61,1.43-1.41,1.44l0,0.26
		c0.92-0.02,1.67-0.78,1.65-1.71L20.42,60.71z M19.02,62.15L19.02,62.15l0,0.26h0V62.15z M19.02,62.15H9.65v0.26h9.37V62.15z
		 M9.66,62.15c-0.81-0.02-1.46-0.66-1.47-1.45l-0.25,0c0.02,0.94,0.78,1.69,1.71,1.71L9.66,62.15z M8.19,60.71V53H7.94v7.71H8.19z
		 M8.06,53.13h12.48v-0.26H8.06V53.13z M20.42,53v7.71h0.25V53H20.42z M19.51,5.6c0.42-1.23,1.59-2.05,2.91-2.02l0.01-0.26
		c-1.41-0.03-2.69,0.85-3.15,2.19L19.51,5.6z M22.42,3.58h38.4V3.32h-38.4V3.58z M60.82,3.58c1.36-0.07,2.58,0.78,3,2.05l0.23-0.09
		c-0.46-1.39-1.79-2.3-3.25-2.22L60.82,3.58z M63.82,5.63l5.71,16.45l0.23-0.09L64.06,5.54L63.82,5.63z M69.65,21.9H13.46v0.26
		h56.19V21.9z M13.58,22.08L19.51,5.6l-0.23-0.09l-5.93,16.48L13.58,22.08z M48.64,0.22H33.03v0.26h15.61V0.22z M33.03,0.48h15.61
		V0.22H33.03V0.48z M79.98,30.41c-0.44-3.75-3.08-6.87-6.71-7.95l-0.07,0.25c3.54,1.05,6.11,4.09,6.53,7.73L79.98,30.41z
		 M73.36,22.54L67.12,4.58l-0.23,0.09l6.24,17.96L73.36,22.54z M67.12,4.58c-0.88-2.69-3.46-4.47-6.3-4.36l0.01,0.26
		c2.74-0.11,5.22,1.61,6.06,4.18L67.12,4.58z M60.82,0.22h-38.4v0.26h38.4V0.22z M22.42,0.22c-2.76-0.03-5.23,1.7-6.11,4.3
		l0.23,0.09c0.85-2.49,3.22-4.16,5.88-4.12L22.42,0.22z M16.31,4.52l-6.24,17.62l0.23,0.09l6.24-17.62L16.31,4.52z M10.17,22.05
		c-4.42,0.51-7.92,3.95-8.47,8.35l0.24,0.03c0.54-4.26,3.94-7.62,8.26-8.12L10.17,22.05z M1.7,30.4c-0.03,0.17-0.03,0.34,0,0.51
		l0.24-0.04c-0.02-0.14-0.02-0.28,0-0.42L1.7,30.4z M1.69,30.89V46.8h0.25V30.89H1.69z M1.69,46.8c0,2.26,1.22,4.35,3.19,5.47
		L5,52.05c-1.89-1.08-3.05-3.08-3.06-5.24L1.69,46.8z M4.82,52.16v8.55h0.25v-8.55H4.82z M4.82,60.71c0,2.66,2.18,4.81,4.84,4.81
		v-0.26c-2.54,0-4.59-2.04-4.59-4.54H4.82z M9.65,65.51h9.37v-0.26H9.65V65.51z M19.02,65.51c2.65-0.02,4.79-2.16,4.77-4.81l-0.25,0
		c0.02,2.48-2,4.53-4.53,4.54L19.02,65.51z M23.79,60.71V53h-0.25v7.71H23.79z M23.67,53.13h34.34v-0.26H23.67V53.13z M57.88,53
		v7.74h0.25V53H57.88z M57.88,60.74c0,2.65,2.16,4.78,4.81,4.78v-0.26c-2.53,0-4.56-2.03-4.56-4.51H57.88z M62.69,65.51h9.37v-0.26
		h-9.37V65.51z M72.06,65.51c2.65,0,4.81-2.13,4.81-4.78h-0.25c0,2.49-2.03,4.51-4.56,4.51V65.51z M76.86,60.74v-8.58h-0.25v8.58
		H76.86z M76.8,52.28c1.97-1.13,3.18-3.21,3.19-5.47l-0.25,0c0,2.16-1.17,4.16-3.06,5.24L76.8,52.28z M79.98,46.8V30.89h-0.25V46.8
		H79.98z M79.98,30.91c0.02-0.17,0.02-0.34,0-0.5l-0.24,0.04c0.02,0.14,0.02,0.28,0,0.43L79.98,30.91z"/>
</g>
<path class="st4" d="M13.66,15.08c0,0-8.89-0.44-8.89,3.43c0,3.87,6.37,3.87,6.37,3.87"/>
<path class="st4" d="M69.01,15.08c0,0,8.89-0.44,8.89,3.43c0,3.87-6.37,3.87-6.37,3.87"/>
</svg>
