<svg xmlns="http://www.w3.org/2000/svg" viewBox="0 0 70.75 90.74"><defs><style>.cls-1,.cls-2{fill:#18c8ee;}.cls-1{fill-rule:evenodd;}</style></defs><title>Asset 5</title><g id="Layer_2" data-name="Layer 2"><g id="Layer_1-2" data-name="Layer 1"><path class="cls-1" d="M52.57,65.15c-.18.24-.36.5-.55.78a29.41,29.41,0,0,1-2.72,2.41L35.87,78.72,22.44,68.34A30.25,30.25,0,0,1,19.76,66l-.59-.84-.24-.33.34-.23a24.56,24.56,0,0,1,9.41-3.49,2.62,2.62,0,0,0,2.15-2.69c0-.78,0-1.6,0-2.46a8.49,8.49,0,0,0-1.26-3.76,9.1,9.1,0,0,1-1.26-3.54,1.2,1.2,0,0,0-.11-.46A10.39,10.39,0,0,1,27,44.09a1.4,1.4,0,0,1,.24-.94,1.19,1.19,0,0,0,.31-1c-.1-.57-.2-1.15-.3-1.75s-.17-1-.26-1.55c-.69-3.9.5-6.24,4-7.82.79-.36,1-1.2,1.1-2.53l0-.6.52.27a32,32,0,0,0,6.54,2.22l.24.06c.56.14,1,.26,1.29.36,3.33,1.2,4.71,4,4,8-.09.53-.18,1-.26,1.55s-.19,1.18-.3,1.75a1.2,1.2,0,0,0,.32,1,1.44,1.44,0,0,1,.23.93,10.35,10.35,0,0,1-1.13,4.1,1,1,0,0,0-.11.46,9.57,9.57,0,0,1-1.28,3.65A8.42,8.42,0,0,0,41,56c0,.86,0,1.68,0,2.46a2.63,2.63,0,0,0,2.15,2.69,24.56,24.56,0,0,1,9.41,3.49l.34.23Zm-35-2.23-.3.22-.23-.3A30.8,30.8,0,0,1,10.7,44.25V22.79l.34,0a53.21,53.21,0,0,0,24.61-9.57l.23-.16.23.16a53.15,53.15,0,0,0,24.61,9.57l.34,0V44.25a30.8,30.8,0,0,1-6.34,18.59l-.23.3-.3-.22a26.21,26.21,0,0,0-10.61-4.13l-.33-.06v-.34c0-.77,0-1.59,0-2.44a7,7,0,0,1,1-2.56,12,12,0,0,0,1.52-4.32l0-.13a12.31,12.31,0,0,0,1.24-4.86,4.07,4.07,0,0,0-.43-1.95L46.57,42l0-.14c.06-.34.12-.69.17-1l.07-.42c.06-.39.13-.79.2-1.2C48,34,46,30.13,41.53,28.54c-.36-.13-1-.3-1.73-.48-2.1-.54-6-1.54-7.46-3a1.4,1.4,0,0,0-1-.43c-1.27,0-1.43,1.27-1.52,2.92,0,.36,0,.87-.08,1.22l0,.21-.19.09c-4.06,2.05-5.63,5.37-4.78,10.14.07.41.14.81.2,1.21L25.24,42l-.06.12a4.16,4.16,0,0,0-.43,1.95A12.35,12.35,0,0,0,26,48.94l0,.13a11.71,11.71,0,0,0,1.49,4.21,7,7,0,0,1,1,2.67c0,.85,0,1.67,0,2.45v.34l-.33.06A26,26,0,0,0,17.57,62.92Zm36.26,4.45.05,0a33.15,33.15,0,0,0,9.5-23.14V21.74a1.16,1.16,0,0,0-1-1.17,50.72,50.72,0,0,1-25.76-10,1.17,1.17,0,0,0-1.4,0,50.63,50.63,0,0,1-25.76,10,1.17,1.17,0,0,0-1,1.17V44.25a33.15,33.15,0,0,0,9.55,23.19H18l.12.19a33.21,33.21,0,0,0,2.95,2.58L35.19,81.13a1.16,1.16,0,0,0,1.41,0L50.73,70.2a32.5,32.5,0,0,0,3-2.65Z"/><path class="cls-2" d="M52.57,65.15l.3.22h0Zm-.55.77.27.26,0,0,0,0ZM49.3,68.34l.23.3h0ZM35.87,78.71l-.23.3.23.18L36.1,79ZM22.45,68.34l-.23.3h0ZM19.77,66l-.31.21,0,0,0,0Zm-.59-.83-.3.22h0Zm-.24-.33-.21-.31-.32.22.23.31Zm.33-.23.21.31h0Zm9.41-3.49.07.37h0Zm2.15-2.69-.37,0h0Zm0-2.46h0Zm-1.26-3.76.33-.17h0Zm-1.25-3.55h-.37Zm-.11-.45-.34.16h0Zm-.9-5,.26.27h0Zm.31-1-.37.07h0Zm-.3-1.75-.37.06h0ZM27,38.8l.37-.06h0ZM31,31l-.16-.34h0Zm1.09-2.54.37,0h0Zm0-.59.17-.33-.51-.27,0,.57Zm.53.27-.17.33h0Zm6.54,2.23.09-.36h0Zm.24.06-.09.36h0Zm1.29.36-.13.35h0Zm4,8,.37.07h0Zm-.26,1.55-.37-.06h0Zm-.3,1.75.37.07h0Zm.32,1-.27.26h0Zm-.91,5,.34.16h0Zm-.11.46.37,0h0Zm-1.28,3.65.33.17h0ZM41,56h0Zm0,2.45.37,0h0Zm2.15,2.69-.07.37h0Zm9.4,3.49-.21.31h0Zm.34.23.3.22.23-.31L53,64.51Zm-35.24-1.9.22.3h0Zm-.3.22-.3.23.22.29.3-.22Zm-.23-.3.3-.23h0Zm-6.34-40,0-.37-.33,0v.33Zm.34,0,.05.37h0Zm24.61-9.58-.22-.3h0Zm.22-.16.22-.3-.22-.16-.22.16Zm.23.16-.22.3h0Zm24.61,9.58-.05.37h0Zm.34,0h.38v-.33l-.33,0Zm-6.34,40-.3-.23h0Zm-.23.3-.22.3.3.22.22-.29Zm-.31-.22-.22.3h0ZM43.56,58.79l-.07.37h0Zm-.33-.06h-.37V59l.32.06Zm0-.34h0Zm0-2.44h0Zm1-2.56-.33-.17h0Zm1.53-4.32L45.4,49V49Zm0-.13-.34-.16v.06Zm.81-6.8-.33.18h0ZM46.54,42l-.37-.07,0,.13.06.12Zm0-.13.37.07h0Zm.18-1-.37-.06h0Zm.07-.43.37.06h0Zm.2-1.19-.37-.07h0Zm-5.5-10.67.13-.35h0Zm-1.73-.49-.09.36h0Zm-7.47-3-.26.27h0Zm-2.49,2.5.37,0h0Zm-.09,1.22-.37,0h0Zm0,.2.17.33.18-.09,0-.2Zm-.19.1-.17-.34h0ZM24.74,39.22l.37-.06h0Zm.2,1.2-.37.06h0Zm.27,1.6.33.18.06-.11,0-.13Zm-.07.12L24.81,42h0Zm.81,6.8.36-.1v-.06Zm0,.13.37,0V49Zm1.49,4.21.33-.17h0Zm1,2.66h0Zm0,2.45h0Zm0,.34.07.37.32-.06v-.32Zm-.33.06.07.37h0Zm25.64,8.58L54,67l-.29-.12-.17.27Zm.05,0-.14.35.23.09.18-.18Zm8.45-46.83,0,.37h0Zm-25.76-10,.23-.3h0Zm-1.4,0-.23-.3h0Zm-25.75,10,0,.37h0Zm8.5,46.87-.27.26.11.11h.16Zm.06,0,.32-.2-.11-.18H18Zm.11.19-.32.2,0,0,0,0ZM21,70.21l-.23.3h0ZM35.17,81.14l-.23.3h0Zm1.41,0,.23.3h0ZM50.71,70.21l.23.3h0Zm3-2.65.26.27,0,0,0,0Zm-1.44-2.64c-.18.25-.37.51-.56.79l.62.42c.19-.28.36-.53.54-.76Zm-.51.74A28.71,28.71,0,0,1,49.07,68l.46.59a30.2,30.2,0,0,0,2.76-2.44ZM49.07,68,35.64,78.42l.46.59L49.53,68.63Zm-13,10.38L22.67,68l-.46.59L35.64,79ZM22.68,68A29.43,29.43,0,0,1,20,65.72l-.53.53a29.6,29.6,0,0,0,2.71,2.38Zm-2.6-2.27c-.23-.34-.42-.6-.6-.84l-.6.45.59.83Zm-.6-.84-.24-.33-.61.44.24.33Zm-.33.2.34-.23-.42-.62-.34.23Zm.34-.23a24.3,24.3,0,0,1,9.26-3.43l-.13-.74a24.92,24.92,0,0,0-9.55,3.55Zm9.26-3.43a3,3,0,0,0,2.46-3.07l-.75,0a2.26,2.26,0,0,1-1.84,2.3Zm2.46-3.07c0-.77,0-1.58,0-2.45h-.75c0,.86,0,1.69,0,2.48Zm0-2.45A8.85,8.85,0,0,0,29.88,52l-.67.34A8.17,8.17,0,0,1,30.43,56ZM29.88,52a8.82,8.82,0,0,1-1.22-3.39l-.75,0a9.42,9.42,0,0,0,1.3,3.7Zm-1.22-3.39a1.57,1.57,0,0,0-.15-.61l-.68.32a.67.67,0,0,1,.07.31Zm-.15-.6a10,10,0,0,1-1.1-3.94h-.75a10.84,10.84,0,0,0,1.17,4.27Zm-1.09-4a2.22,2.22,0,0,1,0-.45.51.51,0,0,1,.08-.22L27,42.87a1.16,1.16,0,0,0-.3.62,3.23,3.23,0,0,0,0,.6h.75Zm.13-.68A1.55,1.55,0,0,0,28,42l-.74.14a.83.83,0,0,1-.21.71ZM28,42q-.15-.84-.3-1.74l-.74.12c.1.6.2,1.18.3,1.75Zm-.3-1.74c-.08-.51-.17-1-.26-1.56l-.74.13c.09.52.18,1,.26,1.55Zm-.27-1.56a7,7,0,0,1,.39-4.54,6.55,6.55,0,0,1,3.37-2.87l-.31-.68a7.34,7.34,0,0,0-3.73,3.22,7.88,7.88,0,0,0-.46,5Zm3.76-7.41a1.94,1.94,0,0,0,1-1.11,6.45,6.45,0,0,0,.31-1.74l-.75,0a5.61,5.61,0,0,1-.26,1.52,1.14,1.14,0,0,1-.62.7Zm1.32-2.85,0-.6-.75-.05,0,.6ZM32,28.18l.52.27.35-.66-.52-.27Zm.52.27a32,32,0,0,0,6.62,2.26l.19-.73a31.79,31.79,0,0,1-6.46-2.19Zm6.63,2.26.24.06.19-.73L39.3,30Zm.23.06c.57.15,1,.26,1.26.35l.25-.71c-.3-.11-.77-.23-1.33-.37Zm1.26.35a5.61,5.61,0,0,1,3.31,2.76,7.73,7.73,0,0,1,.44,4.85l.74.13a8.49,8.49,0,0,0-.51-5.32,6.37,6.37,0,0,0-3.72-3.13Zm3.75,7.61q-.14.8-.27,1.56l.74.12c.08-.51.17-1,.26-1.55Zm-.26,1.56c-.1.6-.19,1.18-.3,1.74l.74.14c.1-.57.2-1.16.3-1.75ZM43.79,42a1.56,1.56,0,0,0,.42,1.38l.54-.52a.83.83,0,0,1-.22-.72Zm.43,1.39h0s0,0,0,0a1,1,0,0,1,0,.16,2.22,2.22,0,0,1,0,.45h.75a3.13,3.13,0,0,0-.05-.59,1.15,1.15,0,0,0-.29-.61Zm.11.66A10,10,0,0,1,43.23,48l.68.32a10.8,10.8,0,0,0,1.17-4.26ZM43.24,48a1.61,1.61,0,0,0-.15.61l.75,0a.68.68,0,0,1,.08-.31Zm-.15.6a9.18,9.18,0,0,1-1.24,3.5l.67.34a9.86,9.86,0,0,0,1.32-3.8Zm-1.25,3.5A8.7,8.7,0,0,0,40.57,56h.75a8,8,0,0,1,1.19-3.49ZM40.57,56c0,.86,0,1.67,0,2.44l.75,0c0-.79,0-1.62,0-2.47Zm0,2.44A3,3,0,0,0,43,61.47l.13-.74a2.25,2.25,0,0,1-1.84-2.3ZM43,61.47a24,24,0,0,1,9.26,3.43l.42-.62a25,25,0,0,0-9.55-3.55Zm9.26,3.43.34.23.42-.62-.34-.23Zm.25-.3-.24.33.61.44.24-.33Zm-35.16-2-.3.22.44.61.3-.22Zm.22.29-.23-.3-.6.46.23.3Zm-.23-.3a30.4,30.4,0,0,1-6.26-18.36h-.75a31.2,31.2,0,0,0,6.42,18.82ZM11.07,44.25V22.79h-.75V44.25Zm-.33-21.08.34,0L11,22.39l-.34,0Zm.34,0a53.54,53.54,0,0,0,24.78-9.64l-.44-.61A52.77,52.77,0,0,1,11,22.38Zm24.79-9.64.23-.16-.44-.61-.23.16Zm-.22-.17.23.16.44-.61-.23-.16Zm.23.17a53.59,53.59,0,0,0,24.79,9.64l.1-.74a52.88,52.88,0,0,1-24.44-9.5Zm24.78,9.64.34,0,.09-.74-.34,0Zm0-.33V44.26h.75V22.8Zm0,21.45A30.43,30.43,0,0,1,54.4,62.61l.6.46a31.15,31.15,0,0,0,6.42-18.82ZM54.41,62.61l-.23.3.6.46.23-.3Zm.29.23-.3-.22-.44.61.3.22Zm-.3-.22a26.54,26.54,0,0,0-10.77-4.19l-.13.74A25.87,25.87,0,0,1,54,63.23Zm-10.77-4.2-.33-.06-.14.74.33.06Zm0,.33v-.34l-.75,0v.34Zm0-.34c0-.78,0-1.61,0-2.45H42.9c0,.84,0,1.66,0,2.42Zm0-2.46a2.85,2.85,0,0,1,.27-1c.17-.42.41-.88.66-1.38l-.67-.34c-.25.49-.49,1-.68,1.43a3.69,3.69,0,0,0-.32,1.3h.74Zm.93-2.39a12.27,12.27,0,0,0,1.56-4.46L45.38,49a11.9,11.9,0,0,1-1.48,4.19Zm1.55-4.39,0-.13-.72-.2,0,.13Zm0-.08a12.75,12.75,0,0,0,1.27-5h-.75a12,12,0,0,1-1.2,4.7Zm1.27-5A4.45,4.45,0,0,0,46.93,42l-.66.35a3.68,3.68,0,0,1,.38,1.77ZM46.93,42l-.06-.12-.66.35.06.12Zm0,.12,0-.14-.74-.13,0,.14Zm0-.14q.09-.51.18-1l-.74-.12c-.06.35-.11.7-.17,1Zm.17-1,.07-.42-.74-.13-.07.42Zm.08-.42c.06-.39.13-.79.2-1.19l-.74-.13c-.07.41-.14.81-.2,1.2Zm.2-1.2a10.78,10.78,0,0,0-.79-6.92,8.72,8.72,0,0,0-5-4.17l-.25.71a7.94,7.94,0,0,1,4.55,3.81,10.09,10.09,0,0,1,.71,6.45ZM41.63,28.19c-.38-.14-1.06-.31-1.76-.49l-.19.73c.72.18,1.36.35,1.7.47Zm-1.76-.49c-1-.27-2.53-.65-3.93-1.15a9.59,9.59,0,0,1-3.36-1.76l-.53.53a10.4,10.4,0,0,0,3.64,1.93c1.44.51,3,.9,4,1.17Zm-7.3-2.9a1.75,1.75,0,0,0-1.24-.53V25a1,1,0,0,1,.72.32Zm-1.24-.54a1.61,1.61,0,0,0-1,.3,1.71,1.71,0,0,0-.57.78,7.16,7.16,0,0,0-.34,2.2l.75,0a6.29,6.29,0,0,1,.29-2,1,1,0,0,1,.32-.46.87.87,0,0,1,.54-.15v-.75Zm-1.89,3.28c0,.36,0,.86-.08,1.19l.74.09c0-.37.07-.89.09-1.24Zm-.08,1.19,0,.21.75.08,0-.21Zm.18-.08-.19.09.34.67.19-.09Zm-.19.09A9.16,9.16,0,0,0,25,33a10.31,10.31,0,0,0-.58,6.31l.74-.13a9.62,9.62,0,0,1,.52-5.86,8.49,8.49,0,0,1,4.06-3.88Zm-5,10.54c.07.41.14.81.2,1.2l.74-.12c-.07-.4-.13-.8-.21-1.21Zm.2,1.21.27,1.59.74-.12-.27-1.59Zm.31,1.35-.06.12.66.36.06-.12Zm-.07.12a4.48,4.48,0,0,0-.47,2.12h.75a3.74,3.74,0,0,1,.38-1.77Zm-.47,2.12a12.71,12.71,0,0,0,1.27,5l.68-.31a12,12,0,0,1-1.2-4.7Zm1.25,5,0,.13.72-.2,0-.13Zm0,.06a12.17,12.17,0,0,0,1.53,4.35l.67-.34A11.12,11.12,0,0,1,26.37,49Zm1.53,4.35c.26.5.5,1,.68,1.41A3.06,3.06,0,0,1,28.11,56h.75a3.8,3.8,0,0,0-.33-1.38c-.19-.47-.45-1-.7-1.47Zm1,2.49c0,.85,0,1.68,0,2.46l.75,0c0-.77,0-1.58,0-2.43Zm0,2.47v.34l.75,0v-.34Zm.32,0-.33.06.14.74.33-.06Zm-.33.06a26.54,26.54,0,0,0-10.77,4.19l.44.61a25.87,25.87,0,0,1,10.46-4.06Zm25.56,9.3,0,0,.28-.69,0,0Zm.46-.06a33.5,33.5,0,0,0,9.6-23.4H63A32.79,32.79,0,0,1,53.6,67.14Zm9.61-23.41V21.74H63V44.25Zm0-22.51a1.54,1.54,0,0,0-1.38-1.55l-.08.75a.79.79,0,0,1,.71.8ZM62.37,20.2A50.25,50.25,0,0,1,36.8,10.31l-.46.6A51,51,0,0,0,62.29,21ZM36.8,10.31a1.52,1.52,0,0,0-1.85,0l.45.6a.78.78,0,0,1,.94,0Zm-1.85,0A50.3,50.3,0,0,1,9.38,20.2l.08.75a51,51,0,0,0,25.95-10ZM9.38,20.2A1.54,1.54,0,0,0,8,21.75h.75a.79.79,0,0,1,.71-.8ZM8,21.74V44.25h.75V21.74ZM8,44.25A33.5,33.5,0,0,0,17.66,67.7l.53-.53A32.79,32.79,0,0,1,8.75,44.24H8Zm9.92,23.57H18v-.75h-.06Zm-.26-.18.12.19.64-.39-.12-.19Zm.17.26a33.93,33.93,0,0,0,3,2.61l.46-.59a33.81,33.81,0,0,1-2.91-2.55Zm3,2.61L34.94,81.43l.46-.59L21.27,69.92ZM34.94,81.43a1.55,1.55,0,0,0,1.87,0l-.46-.6a.79.79,0,0,1-1,0Zm1.87,0L50.94,70.5l-.46-.59L36.35,80.84ZM50.94,70.51a30.72,30.72,0,0,0,3-2.68l-.53-.53a33.33,33.33,0,0,1-3,2.62ZM54,67.76l.12-.19-.64-.4-.12.19Z"/><path class="cls-1" d="M2.79,15.77h.39C21,15.29,31.42,7.1,35.1,3.6l.28-.26.28.26c3.68,3.5,14.15,11.68,31.92,12.16H68V43.94a38,38,0,0,1-14.74,30L35.38,87.63,17.53,73.93a38,38,0,0,1-14.74-30V15.77ZM.37,43.94A40.47,40.47,0,0,0,16.06,75.87L34.64,90.14a1.25,1.25,0,0,0,1.47,0L54.69,75.87A40.46,40.46,0,0,0,70.38,43.94V14.56a1.22,1.22,0,0,0-1.21-1.22C47.63,13.34,36.4.91,36.29.78a1.21,1.21,0,0,0-1.82,0C34,1.3,23.11,13.34,1.58,13.34A1.22,1.22,0,0,0,.37,14.56V43.94Z"/><path class="cls-2" d="M2.79,15.77V15.4H2.42v.37h.37Zm.39,0v-.37h0ZM35.1,3.6l.26.27h0Zm.27-.26.26-.27-.26-.25-.26.25Zm.28.26-.26.27h0ZM67.57,15.76v-.37h0Zm.39,0h.38V15.4H68ZM53.22,73.93l.23.3h0ZM35.37,87.64l-.23.3.23.18.23-.18ZM17.53,73.93l-.23.3h0Zm-1.47,1.94-.23.3h0ZM34.64,90.13l-.23.3h0Zm1.47,0,.23.3h0ZM54.68,75.87l-.23-.3h0ZM36.28.79l.28-.25h0Zm-1.81,0,.28.25h0ZM2.8,16.14h.39l0-.75H2.78Zm.39,0c17.89-.48,28.44-8.72,32.17-12.26l-.52-.54c-3.63,3.45-14,11.58-31.67,12.05ZM35.36,3.87l.28-.26-.52-.54-.28.26Zm-.25-.26.28.26.52-.54-.28-.26Zm.28.26c3.72,3.54,14.28,11.78,32.17,12.26l0-.75c-17.65-.47-28-8.6-31.67-12ZM67.56,16.13H68l0-.75h-.39Zm0-.36V43.94h.75V15.77Zm0,28.17A37.68,37.68,0,0,1,53,73.64l.46.59A38.41,38.41,0,0,0,68.34,43.94ZM53,73.64,35.14,87.34l.46.59,17.85-13.7ZM35.6,87.34,17.75,73.64l-.46.59,17.85,13.7ZM17.75,73.64A37.65,37.65,0,0,1,3.16,43.94H2.41A38.38,38.38,0,0,0,17.3,74.23ZM3.16,43.94V15.77H2.41V43.94ZM0,43.94A40.87,40.87,0,0,0,15.84,76.17l.46-.59A40.1,40.1,0,0,1,.76,44H0ZM15.83,76.16,34.41,90.43l.46-.59L16.29,75.57ZM34.41,90.43a1.62,1.62,0,0,0,1.92,0l-.45-.6a.86.86,0,0,1-1,0Zm1.93,0L54.92,76.16l-.46-.59L35.88,89.84ZM54.91,76.16A40.84,40.84,0,0,0,70.75,43.93H70A40.1,40.1,0,0,1,54.46,75.56ZM70.75,43.94V14.56H70V43.94Zm0-29.38A1.59,1.59,0,0,0,69.17,13v.75a.84.84,0,0,1,.83.84ZM69.17,13A48.86,48.86,0,0,1,44.88,6.79a41.43,41.43,0,0,1-6.19-4.27C38,1.93,37.47,1.45,37.12,1.1c-.18-.17-.31-.31-.4-.4l-.1-.11,0,0h0L36,1c.15.17,11.47,12.69,33.17,12.69V13ZM36.57.54A1.6,1.6,0,0,0,35.38,0V.75A.82.82,0,0,1,36,1ZM35.37,0a1.59,1.59,0,0,0-1.19.54l.57.49a.8.8,0,0,1,.62-.28ZM34.19.54C33.77,1,23,13,1.58,13v.75C23.26,13.72,34.25,1.59,34.75,1ZM1.58,13A1.59,1.59,0,0,0,0,14.56H.75a.84.84,0,0,1,.83-.84ZM0,14.56V43.94H.75V14.56Z"/></g></g></svg>