<?xml version="1.0" encoding="utf-8"?>
<!-- Generator: Adobe Illustrator 24.0.3, SVG Export Plug-In . SVG Version: 6.00 Build 0)  -->
<svg version="1.1" id="Layer_1" xmlns="http://www.w3.org/2000/svg" xmlns:xlink="http://www.w3.org/1999/xlink" x="0px" y="0px"
	viewBox="0 0 68 66" style="enable-background:new 0 0 68 66;" xml:space="preserve">
	<style type="text/css">
		.st0{fill:none;stroke:#194A79;stroke-width:2.5;stroke-linecap:round;stroke-linejoin:round;stroke-miterlimit:22.9256;}
	</style>
	<path class="st0" d="M3.1,3.7h12.6c1.1,0,2.1,0.9,2.1,2.1v55.7c0,1.1-0.9,2.1-2.1,2.1H3.1c-1.1,0-2.1-0.9-2.1-2.1V5.7
		C1,4.6,1.9,3.7,3.1,3.7L3.1,3.7z"/>
		<line class="st0" x1="13.3" y1="16.1" x2="5.4" y2="16.1"/>
		<line class="st0" x1="5.4" y1="10.6" x2="13.3" y2="10.6"/>
		<line class="st0" x1="13.3" y1="55.3" x2="5.4" y2="55.3"/>
		<line class="st0" x1="5.4" y1="49.8" x2="13.3" y2="49.8"/>
		<path class="st0" d="M20.1,3.7h12.6c1.1,0,2.1,0.9,2.1,2.1v55.7c0,1.1-0.9,2.1-2.1,2.1H20.1c-1.1,0-2.1-0.9-2.1-2.1V5.7
			C18,4.6,19,3.7,20.1,3.7L20.1,3.7z"/>
			<line class="st0" x1="30.4" y1="16.1" x2="22.4" y2="16.1"/>
			<line class="st0" x1="22.4" y1="10.6" x2="30.4" y2="10.6"/>
			<line class="st0" x1="30.4" y1="55.3" x2="22.4" y2="55.3"/>
			<line class="st0" x1="22.4" y1="49.8" x2="30.4" y2="49.8"/>
			<path class="st0" d="M37.8,5.6L50,2.4c1.1-0.3,2.2,0.4,2.5,1.5l14.4,53.8c0.3,1.1-0.4,2.2-1.5,2.5l-12.2,3.3
				c-1.1,0.3-2.2-0.4-2.5-1.5L36.3,8.2C36,7.1,36.7,5.9,37.8,5.6L37.8,5.6z"/>
				<line class="st0" x1="50.9" y1="15" x2="43.3" y2="17"/>
				<line class="st0" x1="41.8" y1="11.7" x2="49.5" y2="9.7"/>
				<line class="st0" x1="61.1" y1="52.9" x2="53.4" y2="54.9"/>
				<line class="st0" x1="52" y1="49.6" x2="59.6" y2="47.6"/>
			</svg>
