<?xml version="1.0" encoding="utf-8"?>
<!-- Generator: Adobe Illustrator 24.0.3, SVG Export Plug-In . SVG Version: 6.00 Build 0)  -->
<svg version="1.1" id="Layer_1" xmlns="http://www.w3.org/2000/svg" xmlns:xlink="http://www.w3.org/1999/xlink" x="0px" y="0px"
	 viewBox="0 0 68 66" style="enable-background:new 0 0 68 66;" xml:space="preserve">
<style type="text/css">
	.st0{fill:none;stroke:#194a79;stroke-width:1.4397;stroke-linecap:round;stroke-linejoin:round;stroke-miterlimit:22.9256;}
</style>
<path class="st0" d="M3.08,3.66h12.61c1.14,0,2.08,0.94,2.08,2.08v55.72c0,1.14-0.94,2.08-2.08,2.08H3.08C1.94,63.54,1,62.6,1,61.46
	V5.74C1,4.6,1.94,3.66,3.08,3.66L3.08,3.66z"/>
<line class="st0" x1="13.34" y1="16.08" x2="5.43" y2="16.08"/>
<line class="st0" x1="5.43" y1="10.6" x2="13.34" y2="10.6"/>
<line class="st0" x1="13.34" y1="55.3" x2="5.43" y2="55.3"/>
<line class="st0" x1="5.43" y1="49.82" x2="13.34" y2="49.82"/>
<path class="st0" d="M20.09,3.66H32.7c1.14,0,2.08,0.94,2.08,2.08v55.72c0,1.14-0.94,2.08-2.08,2.08H20.09
	c-1.14,0-2.08-0.94-2.08-2.08V5.74C18.01,4.6,18.95,3.66,20.09,3.66L20.09,3.66z"/>
<line class="st0" x1="30.35" y1="16.08" x2="22.44" y2="16.08"/>
<line class="st0" x1="22.44" y1="10.6" x2="30.35" y2="10.6"/>
<line class="st0" x1="30.35" y1="55.3" x2="22.44" y2="55.3"/>
<line class="st0" x1="22.44" y1="49.82" x2="30.35" y2="49.82"/>
<path class="st0" d="M37.78,5.63l12.18-3.26c1.1-0.3,2.25,0.37,2.55,1.47l14.42,53.82c0.3,1.1-0.37,2.25-1.47,2.55l-12.18,3.26
	c-1.1,0.3-2.25-0.37-2.55-1.47L36.32,8.18C36.02,7.07,36.68,5.93,37.78,5.63L37.78,5.63z"/>
<line class="st0" x1="50.91" y1="14.97" x2="43.27" y2="17.02"/>
<line class="st0" x1="41.85" y1="11.73" x2="49.49" y2="9.68"/>
<line class="st0" x1="61.06" y1="52.86" x2="53.42" y2="54.91"/>
<line class="st0" x1="52" y1="49.61" x2="59.64" y2="47.56"/>
</svg>
