<?xml version="1.0" encoding="utf-8"?>
<!-- Generator: Adobe Illustrator 24.0.3, SVG Export Plug-In . SVG Version: 6.00 Build 0)  -->
<svg version="1.1" id="Layer_1" xmlns="http://www.w3.org/2000/svg" xmlns:xlink="http://www.w3.org/1999/xlink" x="0px" y="0px"
	 viewBox="0 0 50 50" style="enable-background:new 0 0 50 50;" xml:space="preserve">
<style type="text/css">
	.st0{fill:none;stroke:#194a79;stroke-width:2;stroke-miterlimit:10;}
</style>
<g>
	<path class="st0" d="M23.66,31.83l-7.07-7.07c-0.78-0.78-0.72-2.1,0.06-2.89L18,20.52"/>
	<path class="st0" d="M29.31,26.17l-9.19-9.19c-0.78-0.78-2.02-0.81-2.8-0.03l-0.01,0.01c-0.78,0.78-0.8,2.06-0.01,2.84L26.48,29"/>
	<path class="st0" d="M32.85,43.85l-2.12-2.12c-1.25-1.25-4.06-1.23-5.66-2.83l-8.48-8.48c-0.78-0.78-0.72-2.1,0.06-2.89L18,26.17"
		/>
	<path class="st0" d="M32.85,24.05c-0.42-0.42-7.78-7.78-7.78-7.78c-0.78-0.78-1.99-0.84-2.77-0.06l-1.47,1.47"/>
	<path class="st0" d="M43.46,33.24l-2.12-2.12c-1.2-1.2-1.58-2.56-1.88-4.12c-0.42-2.24-1.48-3.48-2.37-4.36
		c-0.88-0.88-1.82-1.82-3.53-3.53c-1.06-1.06-2.12-0.71-2.83,0l-1.41,1.41"/>
	<polyline class="st0" points="35.68,48.09 32.14,44.56 44.16,32.54 47.7,36.07 	"/>
	<path class="st0" d="M5.98,16.98L8.1,19.1c1.25,1.25,1.23,4.06,2.83,5.66l2.83,2.83"/>
	<path class="st0" d="M16.59,6.37l2.12,2.12c1.2,1.2,2.56,1.58,4.12,1.88c2.24,0.42,3.48,1.48,4.36,2.37
		c0.88,0.88,1.82,1.82,3.53,3.53"/>
	<polyline class="st0" points="1.74,14.15 5.27,17.69 17.29,5.67 13.76,2.13 	"/>
	<path class="st0" d="M16.59,43.14l2.12-2.12c0.86-0.86,2.48-1.12,3.92-1.73"/>
	<path class="st0" d="M5.98,32.54l2.12-2.12c1.13-1.13,1.53-2.39,1.82-3.84"/>
	<polyline class="st0" points="13.76,47.39 17.29,43.85 5.27,31.83 1.74,35.36 	"/>
	<path class="st0" d="M43.46,16.27l-2.12,2.12c-0.86,0.86-1.12,2.48-1.73,3.93"/>
	<path class="st0" d="M32.85,5.67l-2.12,2.12c-1.13,1.13-2.39,1.53-3.84,1.82"/>
	<polyline class="st0" points="47.7,13.44 44.16,16.98 32.14,4.96 35.68,1.42 	"/>
</g>
</svg>
