<svg xmlns="http://www.w3.org/2000/svg" viewBox="0 0 168.39 134.04"><defs><style>.cls-1,.cls-2{fill:#18c8ee;}.cls-1,.cls-3{fill-rule:evenodd;}.cls-3{fill:#fff;}</style></defs><title>Asset 1</title><g id="Layer_2" data-name="Layer 2"><g id="Layer_1-2" data-name="Layer 1"><path class="cls-1" d="M61.41,25.73A5.49,5.49,0,1,0,67,31.22,5.55,5.55,0,0,0,61.41,25.73Zm0,13.17a7.84,7.84,0,1,1,.05,0Zm0-21.95a14.15,14.15,0,0,0-14.6,13.68c0,.32,0,.64,0,1,0,10.8,10.33,21.78,14.59,25.86C65.68,53.35,76,42.28,76,31.59A14.12,14.12,0,0,0,62.39,17Zm0,43.13a1.07,1.07,0,0,1-.76-.31C55.8,55.31,44.58,43.66,44.58,31.59A16.25,16.25,0,0,1,60.3,14.77c.37,0,.75,0,1.12,0A16.32,16.32,0,0,1,78.27,30.5c0,.36,0,.73,0,1.09,0,11.94-11.22,23.68-16.07,28.18A1.19,1.19,0,0,1,61.41,60.08ZM90,69.63H32.78a2.26,2.26,0,0,1-2-1,2.17,2.17,0,0,1,0-2.2L36.26,56a3.4,3.4,0,0,1,3-1.73h7.82l1.4,2.19H39.26a1.2,1.2,0,0,0-1.06.59L32.77,67.43H90L85.52,57.11a1.18,1.18,0,0,0-1.1-.66H74.3l1.4-2.19h8.72a3.4,3.4,0,0,1,3.16,2L92.07,66.6a2.15,2.15,0,0,1-.18,2A2.19,2.19,0,0,1,90,69.63Z"/><path class="cls-2" d="M61.39,38.9v.6h0Zm0-15.32v.6h0Zm7.8,7.64h0Zm-7.8,7.68v.6h0Zm0-21.95v.6h0ZM46.79,30.63h0Zm0,1h.6ZM61.39,57.45l-.42.43.42.4.42-.4ZM76,31.59l-.6,0H76ZM62.38,17l0-.6h0Zm-1,43.11v.6h0Zm-.76-.3.41-.44h0ZM44.56,31.59h.6ZM60.27,14.77l0,.6h0Zm1.12,0,0,.6h0ZM78.23,30.5h0Zm0,1.09-.6,0h.6ZM62.15,59.78l-.41-.44h0ZM91.4,69.63V69h0Zm-58.62,0V69h0Zm-2-1-.52.31h0Zm0-2.2.52.31h0ZM36.26,56l-.52-.29h0Zm3-1.73v.6h0Zm7.82,0L47.6,54l-.18-.28h-.33Zm1.4,2.19v.6h1.1L49,56.14Zm-9.22,0,0,.6h0Zm-1.06.59-.52-.29h0ZM32.78,67.44l-.53-.28-.46.88h1Zm58.62,0V68h.92L92,67.2ZM86.91,57.12l.55-.24h0Zm-1.1-.66v.6h0Zm-11.52,0-.51-.32-.59.92h1.1v-.6Zm1.4-2.19v-.6h-.33l-.18.28Zm10.12,0v.6h0Zm3.17,2,.55-.24h0ZM93.46,66.6l.55-.24h0Zm-.18,2,.5.34h0ZM61.39,25.13a6.15,6.15,0,0,0-6.21,6.09h1.2a5,5,0,0,1,5-4.89Zm-6.21,6.09a6.15,6.15,0,0,0,6.21,6.09v-1.2a5,5,0,0,1-5-4.89Zm6.21,6.09a6.15,6.15,0,0,0,6.21-6.09H66.4a5,5,0,0,1-5,4.89Zm6.21-6.09a6.15,6.15,0,0,0-6.21-6.09v1.2a5,5,0,0,1,5,4.89ZM61.39,38.3a7.14,7.14,0,0,1-7.21-7.08H53a8.36,8.36,0,0,0,8.41,8.29Zm-7.21-7.08a7.15,7.15,0,0,1,7.25-7V23A8.35,8.35,0,0,0,53,31.22Zm7.25-7a7.15,7.15,0,0,1,7.21,7h1.2A8.35,8.35,0,0,0,61.43,23Zm7.21,7a7.14,7.14,0,0,1-7.21,7.08v1.2a8.35,8.35,0,0,0,8.41-8.29Zm-7.2,7.08h0v1.2h0V38.3Zm0-21.95A14.76,14.76,0,0,0,46.19,30.61l1.2,0a13.55,13.55,0,0,1,14-13.09ZM46.19,30.62c0,.34,0,.67,0,1l1.2-.06c0-.31,0-.61,0-.92Zm0,1c0,5.58,2.66,11.14,5.8,15.78a68.46,68.46,0,0,0,9,10.51l.83-.87A66.42,66.42,0,0,1,53,46.7c-3.09-4.57-5.59-9.89-5.59-15.11Zm15.6,26.29a67.7,67.7,0,0,0,9-10.56c3.14-4.65,5.8-10.21,5.8-15.73h-1.2c0,5.17-2.5,10.48-5.59,15.06A66.28,66.28,0,0,1,61,57ZM76.57,31.62A14.71,14.71,0,0,0,62.4,16.36l-.06,1.2a13.51,13.51,0,0,1,13,14ZM62.4,16.37c-.34,0-.68,0-1,0l0,1.2c.31,0,.63,0,1,0Zm-1,43.11a.51.51,0,0,1-.36-.14l-.82.87a1.75,1.75,0,0,0,1.17.47ZM61,59.33A67.12,67.12,0,0,1,51.27,48.2c-3.38-4.94-6.11-10.75-6.11-16.61H44c0,6.21,2.88,12.27,6.32,17.29a69.53,69.53,0,0,0,9.94,11.34ZM45.16,31.57A15.65,15.65,0,0,1,60.29,15.38l0-1.2A16.85,16.85,0,0,0,44,31.63ZM60.3,15.37c.36,0,.72,0,1.08,0l0-1.2c-.39,0-.78,0-1.16,0Zm1.1,0A15.71,15.71,0,0,1,77.63,30.51l1.2,0A16.92,16.92,0,0,0,61.38,14.15ZM77.63,30.51c0,.35,0,.7,0,1l1.2.06c0-.38,0-.76,0-1.14Zm0,1.08c0,5.79-2.73,11.59-6.11,16.54a69.53,69.53,0,0,1-9.76,11.2l.82.88a70.86,70.86,0,0,0,9.94-11.4c3.44-5,6.32-11.07,6.32-17.22ZM61.74,59.34a.52.52,0,0,1-.36.14l0,1.2a1.72,1.72,0,0,0,1.16-.47ZM91.4,69H32.78v1.2H91.4ZM32.77,69a1.65,1.65,0,0,1-1.43-.77l-1,.63a2.87,2.87,0,0,0,2.47,1.34Zm-1.42-.76a1.54,1.54,0,0,1,0-1.58l-1-.61a2.77,2.77,0,0,0,0,2.81Zm0-1.61,5.43-10.38-1.06-.56L30.3,66.1Zm5.43-10.37a2.8,2.8,0,0,1,2.48-1.42v-1.2a4,4,0,0,0-3.54,2Zm2.48-1.42h7.82v-1.2H39.27Zm7.31-.28L48,56.78l1-.65-1.4-2.19Zm1.91,1.27H39.27v1.2h9.22Zm-9.21,0a1.76,1.76,0,0,0-1.59.9l1.05.59a.59.59,0,0,1,.52-.29Zm-1.6.92L32.25,67.16l1.06.56,5.43-10.38ZM32.78,68H91.4v-1.2H32.78ZM92,67.2,87.46,56.88l-1.1.48,4.49,10.32ZM87.46,56.86a1.75,1.75,0,0,0-1.66-1l0,1.2a.57.57,0,0,1,.54.32Zm-1.65-1H74.29v1.2H85.81Zm-11,.93,1.4-2.19-1-.65-1.4,2.19Zm.89-1.92H85.81v-1.2H75.69Zm10.13,0a2.82,2.82,0,0,1,2.61,1.64l1.1-.49a4,4,0,0,0-3.72-2.35Zm2.61,1.63,4.49,10.34,1.1-.48L89.53,56Zm4.48,10.34a1.54,1.54,0,0,1-.13,1.47l1,.66A2.76,2.76,0,0,0,94,66.36Zm-.12,1.47a1.63,1.63,0,0,1-1.38.72v1.2A2.89,2.89,0,0,0,93.79,69Z"/><path class="cls-1" d="M62.43,90.9a2,2,0,0,1-2.07-2.06,2.12,2.12,0,0,1,.6-1.46,2.18,2.18,0,0,1,2.94,0,2.12,2.12,0,0,1,.6,1.46,2.17,2.17,0,0,1-.6,1.46A2.2,2.2,0,0,1,62.43,90.9Zm57.94-8.23H4.48V93A2.07,2.07,0,0,0,6.55,95H118.3A2.07,2.07,0,0,0,120.37,93Zm0-76.15a2.07,2.07,0,0,0-2.07-2.06H6.56A2.07,2.07,0,0,0,4.49,6.52v72H120.38v-72ZM50,111.48H74.84V99.13H50ZM118.3,99.13H79v12.35h6.21a2.06,2.06,0,1,1,0,4.12H39.66a2.06,2.06,0,1,1,0-4.12h6.21V99.13H6.56A6.2,6.2,0,0,1,.35,93V6.52A6.2,6.2,0,0,1,6.56.34H118.3a6.2,6.2,0,0,1,6.21,6.18V93A6.2,6.2,0,0,1,118.3,99.13Z"/><path class="cls-2" d="M61,90.3l-.25.24h0Zm0-2.92-.24-.25h0Zm2.94,0,.25-.24h0Zm0,2.92.23.25h0Zm56.47-7.63h.34v-.34h-.34Zm-115.89,0v-.34H4.14v.34Zm0-4.12H4.14v.34h.34Zm115.89,0v.34h.34v-.34ZM50,111.48h-.34v.34H50Zm24.83,0v.34h.34v-.34Zm0-12.35h.34v-.34h-.34ZM50,99.13v-.34h-.34v.34Zm29,0v-.34h-.34v.34Zm0,12.35h-.34v.34H79Zm-33.11,0v.34h.34v-.34Zm0-12.35h.34v-.34h-.34Zm16.56-8.58a1.85,1.85,0,0,1-1.23-.5l-.47.5a2.54,2.54,0,0,0,1.7.69Zm-1.22-.49a1.81,1.81,0,0,1-.51-1.22H60a2.54,2.54,0,0,0,.69,1.7Zm-.51-1.22a1.75,1.75,0,0,1,.51-1.22l-.5-.47a2.46,2.46,0,0,0-.69,1.7h.68Zm.5-1.21a1.83,1.83,0,0,1,2.46,0l.48-.49a2.51,2.51,0,0,0-3.42,0Zm2.45,0a1.78,1.78,0,0,1,.51,1.23h.69a2.5,2.5,0,0,0-.69-1.7Zm.5,1.23a1.83,1.83,0,0,1-.51,1.23l.5.47a2.49,2.49,0,0,0,.69-1.7Zm-.49,1.21a1.85,1.85,0,0,1-1.23.5v.69a2.49,2.49,0,0,0,1.7-.69Zm56.71-7.73H4.48V83H120.37ZM4.14,82.67V93h.69V82.67ZM4.14,93a2.4,2.4,0,0,0,2.41,2.4v-.69A1.72,1.72,0,0,1,4.82,93H4.14Zm2.42,2.4H48v-.69H6.56Zm41.38,0h29v-.69h-29Zm29,0H118.3v-.69H76.91Zm41.39,0a2.41,2.41,0,0,0,2.41-2.4H120a1.73,1.73,0,0,1-1.73,1.72v.68Zm2.41-2.4V82.67H120V93Zm0-86.44a2.4,2.4,0,0,0-2.41-2.4v.69A1.73,1.73,0,0,1,120,6.53h.68Zm-2.41-2.4H6.56v.69H118.3ZM6.56,4.12a2.41,2.41,0,0,0-2.41,2.4h.69A1.73,1.73,0,0,1,6.57,4.8V4.12ZM4.14,6.52v72h.69v-72Zm.34,72.37H120.37V78.2H4.48Zm116.23-.34v-72H120v72ZM50,111.82H74.84v-.69H50Zm25.18-.34V99.13H74.5v12.35Zm-.35-12.69H50v.69H74.84Zm-25.17.34v12.35h.69V99.13Zm68.63-.34H79v.69H118.3Zm-39.66.34v12.35h.69V99.13ZM79,111.82h6.21v-.69H79Zm6.21,0a1.73,1.73,0,0,1,1.73,1.71h.69a2.4,2.4,0,0,0-2.41-2.4v.69Zm1.73,1.71a1.72,1.72,0,0,1-1.73,1.72v.69a2.4,2.4,0,0,0,2.41-2.4h-.68Zm-1.73,1.72H76.91v.69h8.28Zm-8.28,0h-29v.69h29Zm-29,0H39.66v.69h8.28Zm-8.27,0a1.72,1.72,0,0,1-1.73-1.72h-.69a2.4,2.4,0,0,0,2.41,2.4v-.68Zm-1.73-1.72a1.71,1.71,0,0,1,1.73-1.71v-.69a2.4,2.4,0,0,0-2.41,2.4Zm1.73-1.71h6.21v-.69H39.67Zm6.55-.34V99.13h-.69v12.35Zm-.35-12.69H6.56v.69H45.88v-.69Zm-39.31,0A5.86,5.86,0,0,1,.69,93H0a6.54,6.54,0,0,0,6.55,6.52v-.69ZM.69,93V6.52H0V93H.69Zm0-86.44A5.86,5.86,0,0,1,6.56.69V0A6.54,6.54,0,0,0,0,6.52ZM6.56.69H118.3V0H6.56ZM118.3.69a5.86,5.86,0,0,1,5.87,5.83h.69A6.54,6.54,0,0,0,118.31,0V.69Zm5.87,5.83V93h.69V6.52Zm0,86.44a5.86,5.86,0,0,1-5.87,5.83v.69A6.54,6.54,0,0,0,124.85,93Z"/><path class="cls-3" d="M66,130.68c-3.58,0-6-2.84-6-7.06v-1.29c0-17.43,13.73-23.08,25.85-28.06l.72-.3,4-1.6c8.09-3.17,8.09-6.64,8.09-10.31a13.27,13.27,0,0,0-4.44-10.34,23.47,23.47,0,0,1-8.44-19.11c0-16.36,9.87-26.21,26.42-26.21s26.34,9.84,26.34,26.34a23.12,23.12,0,0,1-8.48,18.58A13.5,13.5,0,0,0,125.66,82c0,3.74,0,7.15,8.1,10.44l4.1,1.67c12.39,5,26.43,10.66,26.43,28.24v1.29c0,4.29-2.34,7.06-5.95,7.06H66Z"/><path class="cls-1" d="M113.05,23.26c-18.12,0-29.4,11.2-29.45,29.24a26.56,26.56,0,0,0,9.52,21.43,10.52,10.52,0,0,1,3.47,8.12v.16c0,3.41,0,5.29-6.36,7.78l-4,1.62-.76.31c-12.39,5.1-27.81,11.44-27.81,30.9v1.3c0,5.84,3.63,9.92,8.84,9.92H159.6c5.18,0,8.79-4.08,8.79-9.92v-1.3c0-19.62-15.75-26-28.41-31.08l-.2-.08-3.93-1.6c-6.43-2.61-6.43-4.68-6.43-7.81V82a10.84,10.84,0,0,1,3.48-8.49,26.21,26.21,0,0,0,9.51-21C142.37,34.47,131.13,23.26,113.05,23.26Zm0,5.59c15.11,0,23.77,8.66,23.77,23.77a20.5,20.5,0,0,1-7.58,16.63,16.45,16.45,0,0,0-5.41,13c0,4.76.73,9.26,9.92,13l3.94,1.6c12.34,5,25.11,10,25.11,26v1.3c0,1.08-.22,4.33-3.2,4.33H66.47c-3,0-3.25-3.33-3.25-4.33v-1.3c0-16,12.77-21,25.07-26l4-1.6c9.18-3.59,9.92-8,9.92-13a16.14,16.14,0,0,0-5.41-12.51A20.84,20.84,0,0,1,89.2,52.63C89.19,37.51,97.85,28.85,113.05,28.85Z"/></g></g></svg>