<svg xmlns="http://www.w3.org/2000/svg" viewBox="0 0 81.75 81.76"><defs><style>.cls-1,.cls-2{fill:#18c8ee;}.cls-1{fill-rule:evenodd;}</style></defs><title>Asset 1</title><g id="Layer_2" data-name="Layer 2"><g id="Layer_1-2" data-name="Layer 1"><path class="cls-1" d="M40.87,78.14A37.26,37.26,0,1,1,78.13,40.88,37.26,37.26,0,0,1,40.87,78.14Zm0-77.76a40.5,40.5,0,1,0,40.5,40.5A40.5,40.5,0,0,0,40.87.38ZM49.2,42.24A1.63,1.63,0,0,0,48.68,44L53,57.76,41.85,49.3a1.62,1.62,0,0,0-2,0L28.76,57.79l4.31-13.9a1.63,1.63,0,0,0-.52-1.72l-11.47-9.4h14a1.64,1.64,0,0,0,1.56-1.1l4.28-13,4.24,13a1.62,1.62,0,0,0,1.56,1.14h14Zm13.28-12.7H47.83L43.42,15.9a2.55,2.55,0,0,0-2.5-1.78A2.74,2.74,0,0,0,38.3,16L33.89,29.54H19.24a2.66,2.66,0,0,0-2.69,1.69,2.54,2.54,0,0,0,.84,2.82L29.51,44,25.1,58.48a2.69,2.69,0,0,0,4.21,2.92l11.53-8.78L52.37,61.4A2.75,2.75,0,0,0,54,62a2.72,2.72,0,0,0,1.56-.49,2.64,2.64,0,0,0,1-3L52.17,44.06l12.09-10a2.51,2.51,0,0,0,.87-2.82A2.56,2.56,0,0,0,62.48,29.54Z"/><path class="cls-2" d="M78.13,40.88h0Zm3.24,0h0ZM49.2,42.24,49,42h0ZM48.68,44l-.36.11h0ZM53,57.76l-.23.3.93.71-.35-1.12ZM41.85,49.3l-.23.3h0Zm-2,0,.23.3h0ZM28.76,57.79l-.36-.11-.35,1.12.93-.71Zm4.31-13.9.36.11h0Zm-.52-1.72.24-.29h0ZM21.08,32.78V32.4H20l.81.67Zm14,0V32.4h0Zm1.56-1.11.36.12h0Zm4.28-13,.36-.12-.36-1.08-.36,1.08Zm4.24,13,.36-.11h0Zm1.56,1.14v-.38h0Zm14,0,.24.29.81-.67h-1ZM47.84,29.54l-.36.12.08.26h.27v-.38ZM43.43,15.9l-.36.11h0Zm-2.49-1.79v.38h0ZM38.31,16l.36.12h0Zm-4.4,13.51v.38h.27l.08-.26Zm-14.65,0,0,.37h0Zm-2.69,1.68-.35-.14h0ZM17.42,34l.24-.29h0ZM29.53,44l.36.11.07-.24-.19-.16Zm-4.4,14.52.36.11h0Zm1.78,3.36.11-.36h0Zm2.43-.44-.23-.3h0Zm11.53-8.78.23-.3-.23-.17-.23.17Zm11.54,8.78-.23.3h0Zm1.65.55v-.38h0Zm1.56-.49.21.31h0Zm1-3-.36.11h0ZM52.21,44.05,52,43.76l-.19.16.07.24ZM64.3,34l-.23-.3h0Zm.87-2.82.36-.12h0ZM40.87,77.76A36.89,36.89,0,0,1,4,40.87H3.23A37.64,37.64,0,0,0,40.87,78.51ZM4,40.88A36.88,36.88,0,0,1,40.88,4V3.25A37.64,37.64,0,0,0,3.24,40.88ZM40.87,4A36.88,36.88,0,0,1,77.75,40.87h.75A37.63,37.63,0,0,0,40.87,3.24ZM77.76,40.88A36.93,36.93,0,0,1,40.87,77.77v.75A37.66,37.66,0,0,0,78.5,40.89ZM40.87,0A40.87,40.87,0,0,0,0,40.88H.75A40.12,40.12,0,0,1,40.87.76ZM0,40.88A40.88,40.88,0,0,0,40.88,81.76V81A40.12,40.12,0,0,1,.76,40.89H0ZM40.87,81.75A40.88,40.88,0,0,0,81.75,40.87H81A40.12,40.12,0,0,1,40.88,81v.76ZM81.75,40.88A40.9,40.9,0,0,0,40.88,0V.76A40.17,40.17,0,0,1,81,40.89ZM49,42a2,2,0,0,0-.64,2.11l.72-.22a1.23,1.23,0,0,1,.4-1.32Zm-.64,2.12,4.28,13.8.72-.22L49,43.85Zm4.87,13.39L42.08,49l-.45.6,11.11,8.46ZM42.07,49a2,2,0,0,0-2.43,0l.46.59a1.26,1.26,0,0,1,1.52,0Zm-2.43,0L28.53,57.49l.46.6L40.1,49.6ZM29.11,57.9,33.42,44l-.72-.22-4.3,13.9ZM33.42,44a2,2,0,0,0-.64-2.11l-.48.58a1.25,1.25,0,0,1,.4,1.32Zm-.64-2.12-11.47-9.4-.48.58,11.47,9.4Zm-11.7-8.73h14V32.4h-14Zm14,0A2,2,0,0,0,37,31.79l-.71-.24a1.26,1.26,0,0,1-1.2.85ZM37,31.79l4.28-13-.71-.24-4.28,13Zm3.56-13,4.24,13,.71-.23-4.24-13Zm4.24,13a2,2,0,0,0,1.91,1.4v-.75a1.26,1.26,0,0,1-1.2-.87Zm1.92,1.39h14v-.75h-14Zm13.75-.66L49,42l.48.58,11.5-9.43Zm2-3.36H47.83v.75H62.48Zm-14.28.26L43.79,15.78l-.71.23,4.41,13.64ZM43.79,15.78a2.93,2.93,0,0,0-2.86-2l0,.75A2.18,2.18,0,0,1,43.08,16Zm-2.85-2a3.13,3.13,0,0,0-3,2.17l.71.23a2.37,2.37,0,0,1,2.27-1.65Zm-3,2.17L33.55,29.42l.71.23,4.41-13.51ZM33.91,29.16H19.26v.75H33.91Zm-14.62,0a3,3,0,0,0-3.07,1.92l.7.27a2.29,2.29,0,0,1,2.31-1.45ZM16.22,31.1a2.92,2.92,0,0,0,1,3.24l.46-.59a2.15,2.15,0,0,1-.72-2.4Zm1,3.23L29.3,44.24l.47-.58L17.65,33.75Zm12,9.52L24.76,58.37l.72.22,4.41-14.52Zm-4.4,14.51a3.06,3.06,0,0,0,2,3.82l.22-.72a2.32,2.32,0,0,1-1.54-2.89Zm2,3.82a3.06,3.06,0,0,0,2.76-.5l-.46-.59a2.3,2.3,0,0,1-2.09.38Zm2.77-.5L41.1,52.9l-.45-.6L29.12,61.08ZM40.65,52.9l11.53,8.78.45-.6L41.1,52.3Zm11.53,8.78a3.11,3.11,0,0,0,1.88.63v-.75a2.35,2.35,0,0,1-1.42-.47Zm1.88.63a3.11,3.11,0,0,0,1.77-.55l-.43-.61a2.36,2.36,0,0,1-1.34.42Zm1.77-.55A3,3,0,0,0,57,58.36l-.71.23a2.29,2.29,0,0,1-.86,2.56ZM57,58.36,52.57,43.94l-.72.22,4.41,14.42Zm-4.53-14,12.09-10-.48-.58L52,43.76Zm12.07-10a2.89,2.89,0,0,0,1-3.24l-.71.24a2.17,2.17,0,0,1-.74,2.4Zm1-3.25a3,3,0,0,0-3.07-1.92l.06.75a2.29,2.29,0,0,1,2.31,1.45Z"/></g></g></svg>