<?xml version="1.0" encoding="utf-8"?>
<!-- Generator: Adobe Illustrator 24.0.3, SVG Export Plug-In . SVG Version: 6.00 Build 0)  -->
<svg version="1.1" id="Layer_1" xmlns="http://www.w3.org/2000/svg" xmlns:xlink="http://www.w3.org/1999/xlink" x="0px" y="0px"
	 viewBox="0 0 50 42" style="enable-background:new 0 0 50 42;" xml:space="preserve">
<style type="text/css">
	.st0{fill:none;stroke:#194a79;stroke-width:2;stroke-miterlimit:10;}
	.st1{fill:none;stroke:#194a79;stroke-width:2;stroke-linejoin:round;stroke-miterlimit:10;}
</style>
<g>
	<path class="st0" d="M46.81,34.49h-44c-0.55,0-1-0.45-1-1v-30c0-0.55,0.45-1,1-1h44c0.55,0,1,0.45,1,1v30
		C47.81,34.04,47.36,34.49,46.81,34.49z"/>
	<rect x="5.81" y="6.49" class="st0" width="38" height="20"/>
	<line class="st0" x1="18.81" y1="40.49" x2="18.81" y2="36.49"/>
	<line class="st0" x1="30.81" y1="36.49" x2="30.81" y2="40.49"/>
	<line class="st0" x1="35.81" y1="40.49" x2="13.81" y2="40.49"/>
	<line class="st0" x1="5.81" y1="30.49" x2="9.81" y2="30.49"/>
	<line class="st0" x1="13.81" y1="30.49" x2="43.81" y2="30.49"/>
	<polygon class="st1" points="20.81,11.49 20.81,21.49 30.81,16.49 	"/>
	<line class="st0" x1="11.81" y1="28.49" x2="11.81" y2="32.49"/>
</g>
</svg>
