<?xml version="1.0" encoding="utf-8"?>
<!-- Generator: Adobe Illustrator 24.0.3, SVG Export Plug-In . SVG Version: 6.00 Build 0)  -->
<svg version="1.1" id="Layer_1" xmlns="http://www.w3.org/2000/svg" xmlns:xlink="http://www.w3.org/1999/xlink" x="0px" y="0px"
	 viewBox="0 0 80 80" style="enable-background:new 0 0 80 80;" xml:space="preserve">
<style type="text/css">
	.st0{fill-rule:evenodd;clip-rule:evenodd;fill:#194a79;}
	.st1{fill:#194a79;stroke:#194a79;}
	.st2{fill:#194a79;}
</style>
<path class="st0" d="M75.26,10.32c0-2.43-1.97-4.41-4.39-4.41H9.51c-2.42,0-4.4,1.98-4.4,4.41v47.06c0,2.43,1.97,4.41,4.4,4.41
	h35.07c0.39,0,0.76,0.15,1.03,0.43L56.3,72.95v-9.69c0-0.81,0.65-1.47,1.46-1.47h13.11c2.42,0,4.39-1.98,4.39-4.41V10.32z
	 M59.23,64.73V76.5c0,0.59-0.36,1.13-0.9,1.36c-0.18,0.07-0.37,0.11-0.56,0.11c-0.38,0-0.75-0.15-1.03-0.43l-12.75-12.8H9.51
	c-4.04,0-7.32-3.3-7.32-7.35V10.32c0-4.05,3.29-7.35,7.32-7.35h61.36c4.04,0,7.32,3.3,7.32,7.35v47.06c0,4.05-3.28,7.35-7.32,7.35
	H59.23z"/>
<path class="st1" d="M45.62,62.22l-0.18,0.18l0,0L45.62,62.22z M56.3,72.95l-0.18,0.18l0.43,0.43v-0.61H56.3z M59.23,64.73v-0.25
	h-0.25v0.25H59.23z M58.32,77.86l-0.1-0.23l0,0L58.32,77.86z M56.73,77.54l-0.18,0.18l0,0L56.73,77.54z M43.98,64.73l0.18-0.18
	l-0.07-0.07h-0.1V64.73z M75.51,10.32c0-2.57-2.08-4.66-4.64-4.66v0.5c2.28,0,4.14,1.87,4.14,4.16H75.51z M70.87,5.66H9.51v0.5
	h61.36V5.66z M9.51,5.66c-2.56,0-4.65,2.09-4.65,4.66h0.5c0-2.3,1.86-4.16,4.15-4.16V5.66z M4.87,10.32v47.06h0.5V10.32H4.87z
	 M4.87,57.38c0,2.57,2.08,4.66,4.65,4.66v-0.5c-2.28,0-4.15-1.87-4.15-4.16H4.87z M9.51,62.04h35.07v-0.5H9.51V62.04z M44.58,62.04
	c0.32,0,0.63,0.13,0.86,0.36l0.36-0.35c-0.32-0.32-0.76-0.51-1.21-0.51V62.04z M45.44,62.4l10.68,10.73l0.35-0.35L45.8,62.05
	L45.44,62.4z M56.55,72.95v-9.69h-0.5v9.69H56.55z M56.55,63.26c0-0.67,0.54-1.22,1.21-1.22v-0.5c-0.95,0-1.71,0.77-1.71,1.72H56.55
	z M57.76,62.04h13.11v-0.5H57.76V62.04z M70.87,62.04c2.56,0,4.64-2.09,4.64-4.66h-0.5c0,2.29-1.86,4.16-4.14,4.16V62.04z
	 M75.51,57.38V10.32h-0.5v47.06H75.51z M58.98,64.73V76.5h0.5V64.73H58.98z M58.98,76.5c0,0.49-0.3,0.94-0.75,1.13l0.19,0.46
	c0.64-0.27,1.06-0.9,1.06-1.59H58.98z M58.23,77.63c-0.15,0.06-0.31,0.09-0.46,0.09v0.5c0.22,0,0.45-0.04,0.66-0.13L58.23,77.63z
	 M57.76,77.72c-0.32,0-0.62-0.12-0.86-0.36l-0.35,0.35c0.33,0.33,0.76,0.5,1.21,0.5V77.72z M56.91,77.36l-12.75-12.8l-0.35,0.35
	l12.75,12.8L56.91,77.36z M43.98,64.48H9.51v0.5h34.46V64.48z M9.51,64.48c-3.9,0-7.07-3.19-7.07-7.1h-0.5c0,4.19,3.4,7.6,7.57,7.6
	V64.48z M2.44,57.38V10.32h-0.5v47.06H2.44z M2.44,10.32c0-3.92,3.17-7.1,7.07-7.1v-0.5c-4.18,0-7.57,3.41-7.57,7.6H2.44z
	 M9.51,3.22h61.36v-0.5H9.51V3.22z M70.87,3.22c3.9,0,7.07,3.19,7.07,7.1h0.5c0-4.19-3.4-7.6-7.57-7.6V3.22z M77.94,10.32v47.06h0.5
	V10.32H77.94z M77.94,57.38c0,3.92-3.17,7.1-7.07,7.1v0.5c4.17,0,7.57-3.41,7.57-7.6H77.94z M70.87,64.48H59.23v0.5h11.64V64.48z"/>
<g>
	<path class="st2" d="M52.33,25.85c0,1.63-0.33,3.11-0.99,4.44c-0.66,1.33-1.68,2.58-3.03,3.77c-0.51,0.44-1.04,0.87-1.58,1.28
		c-0.54,0.41-1.05,0.83-1.51,1.27c-0.46,0.44-0.84,0.89-1.15,1.35c-0.31,0.46-0.46,0.96-0.46,1.51v0.97h-7.4V38.7
		c0-1.19,0.42-2.41,1.25-3.65c0.83-1.24,2.07-2.42,3.7-3.55c2.38-1.63,3.57-3.32,3.57-5.05c0-1.09-0.41-2.03-1.22-2.83
		c-0.82-0.8-1.89-1.2-3.21-1.2s-2.42,0.46-3.29,1.38c-0.87,0.92-1.32,2.07-1.35,3.47h-7.4c0-1.77,0.29-3.38,0.87-4.85
		c0.58-1.46,1.4-2.72,2.47-3.78c1.07-1.05,2.35-1.88,3.83-2.47c1.48-0.59,3.12-0.89,4.92-0.89c1.74,0,3.33,0.26,4.8,0.79
		c1.46,0.53,2.73,1.26,3.8,2.19c1.07,0.94,1.91,2.05,2.5,3.34C52.04,22.91,52.33,24.32,52.33,25.85z M35.65,47.94
		c0-0.58,0.11-1.13,0.33-1.66c0.22-0.53,0.54-0.99,0.94-1.38c0.41-0.39,0.87-0.71,1.4-0.94c0.53-0.24,1.1-0.36,1.71-0.36
		c0.61,0,1.18,0.12,1.71,0.36c0.53,0.24,0.99,0.55,1.4,0.94c0.41,0.39,0.72,0.85,0.94,1.38c0.22,0.53,0.33,1.08,0.33,1.66
		c0,0.58-0.11,1.13-0.33,1.66c-0.22,0.53-0.54,0.99-0.94,1.38c-0.41,0.39-0.88,0.71-1.4,0.94c-0.53,0.24-1.1,0.36-1.71,0.36
		c-0.61,0-1.18-0.12-1.71-0.36c-0.53-0.24-0.99-0.55-1.4-0.94c-0.41-0.39-0.72-0.85-0.94-1.38C35.76,49.07,35.65,48.52,35.65,47.94z
		"/>
</g>
</svg>
