<?xml version="1.0" encoding="utf-8"?>
<!-- Generator: Adobe Illustrator 24.0.3, SVG Export Plug-In . SVG Version: 6.00 Build 0)  -->
<svg version="1.1" id="Layer_1" xmlns="http://www.w3.org/2000/svg" xmlns:xlink="http://www.w3.org/1999/xlink" x="0px" y="0px"
	 viewBox="0 0 72 72" style="enable-background:new 0 0 72 72;" xml:space="preserve">
<style type="text/css">
	.st0{fill:#194a79;}
</style>
<g>
	<rect x="31.23" y="52.38" class="st0" width="29.97" height="3.79"/>
	<rect x="31.23" y="33.86" class="st0" width="29.97" height="3.79"/>
	<rect x="31.23" y="16.43" class="st0" width="29.97" height="3.79"/>
	<path class="st0" d="M21.74,30.07h-7.98c-1.2,0-1.99,0.8-1.99,2v7.99c0,1.2,0.8,2,1.99,2h7.98c1.2,0,1.99-0.8,1.99-2v-7.99
		C23.74,30.87,22.94,30.07,21.74,30.07z M20.15,38.46h-4.79v-4.79h4.79V38.46z"/>
	<path class="st0" d="M21.74,11.88h-7.98c-1.2,0-1.99,0.8-1.99,2v7.99c0,1.2,0.8,2,1.99,2h7.98c1.2,0,1.99-0.8,1.99-2v-7.99
		C23.74,12.68,22.94,11.88,21.74,11.88z M20.15,20.27h-4.79v-4.79h4.79V20.27z"/>
	<path class="st0" d="M21.74,47.83h-7.98c-1.2,0-1.99,0.8-1.99,2v7.99c0,1.2,0.8,2,1.99,2h7.98c1.2,0,1.99-0.8,1.99-2v-7.99
		C23.74,48.63,22.94,47.83,21.74,47.83z M20.15,56.22h-4.79v-4.79h4.79V56.22z"/>
	<path class="st0" d="M67.47,0.32h-8.51H13.34H4.83c-1.82,0-3.65,1.84-3.65,3.69v63c0,2.15,1.82,3.99,3.65,3.99h62.33
		c2.13,0,3.95-1.84,3.95-3.69V4.01C71.11,1.86,69.29,0.32,67.47,0.32z M67.69,66.97c0,0.3-0.3,0.6-0.6,0.6H5.14
		c-0.3,0-0.6-0.3-0.6-0.6V4.13h63.15V66.97z"/>
</g>
</svg>
