<svg xmlns="http://www.w3.org/2000/svg" viewBox="0 0 59.65 78.38"><defs><style>.cls-1,.cls-2{fill:#18c8ee;}.cls-1{fill-rule:evenodd;}</style></defs><title>Asset 1</title><g id="Layer_2" data-name="Layer 2"><g id="Layer_1-2" data-name="Layer 1"><path class="cls-1" d="M29.82,3.6A25.28,25.28,0,0,0,3.6,27.9c0,.58,0,1.15,0,1.73C3.59,50,24.83,69.87,29.76,74.26c4.91-4.71,26.3-26.31,26.3-44.63a25.3,25.3,0,0,0-24.5-26C31,3.57,30.4,3.58,29.82,3.6Zm0,74.28a1.6,1.6,0,0,1-1-.34C27.69,76.58.5,54,.5,29.63A28.59,28.59,0,0,1,28.54.5c.43,0,.85,0,1.28,0A28.58,28.58,0,0,1,59.13,28.35c0,.43,0,.86,0,1.28,0,22-27.13,46.8-28.3,47.85A1.54,1.54,0,0,1,29.82,77.88Z"/><path class="cls-2" d="M3.6,27.9l.5,0h0Zm0,1.73h0ZM29.76,74.26l-.33.37.35.31.33-.32Zm26.3-44.63h0Zm-24.51-26v0Zm-2.72,74-.32.38h0ZM.5,29.63h0ZM28.54.5V1h0Zm1.28,0V1h0ZM59.13,28.34h0Zm0,1.29h0ZM30.84,77.48l-.33-.37h0Zm-1-74.38A25.77,25.77,0,0,0,3.1,27.88l1,0A24.78,24.78,0,0,1,29.8,4.1ZM3.1,27.88c0,.59,0,1.18,0,1.76l1,0c0-.57,0-1.13,0-1.7Zm0,1.75c0,10.33,5.39,20.5,11.33,28.59a110.37,110.37,0,0,0,15,16.41l.66-.75A109.79,109.79,0,0,1,15.22,57.62c-5.91-8-11.14-18-11.14-28h-1Zm27,45a133.07,133.07,0,0,0,15-17.28c6-8.29,11.4-18.39,11.4-27.72h-1c0,9-5.26,18.87-11.21,27.13A132.68,132.68,0,0,1,29.41,73.89Zm26.45-45a25.79,25.79,0,0,0-25-26.55l0,1a24.79,24.79,0,0,1,24,25.52Zm-25-26.55c-.59,0-1.18,0-1.76,0l0,1c.56,0,1.13,0,1.69,0ZM29.82,77.38a1.09,1.09,0,0,1-.67-.23l-.63.78a2,2,0,0,0,1.31.45Zm-.67-.22a107.51,107.51,0,0,1-14.52-15.1C7.71,53.28,1,41.65,1,29.63H0C0,42,6.88,53.85,13.85,62.68A108.27,108.27,0,0,0,28.51,77.92ZM1,29.62A28.09,28.09,0,0,1,28.55,1l0-1A29.1,29.1,0,0,0,0,29.64ZM28.55,1c.42,0,.84,0,1.26,0l0-1h-1.3Zm1.29,0a28.08,28.08,0,0,1,28.8,27.35l1,0A29.07,29.07,0,0,0,29.81,0ZM58.63,28.36c0,.42,0,.84,0,1.26l1,0c0-.43,0-.87,0-1.31Zm0,1.27C58.64,40.44,52,52,45,61.1a128.41,128.41,0,0,1-14.53,16l.67.74A129.64,129.64,0,0,0,45.82,61.7c6.94-9.1,13.81-20.91,13.81-32.07ZM30.5,77.11a1,1,0,0,1-.69.27v1a2.09,2.09,0,0,0,1.35-.53Z"/><path class="cls-1" d="M22,19.31a8.16,8.16,0,0,0-8.06,8.24,8.93,8.93,0,0,0,1.4,4.68C17,35.1,27.55,46.58,30,49.18c2.44-2.71,13-14.19,14.69-17a8.91,8.91,0,0,0,1.4-4.62,8.17,8.17,0,0,0-8.26-8.09A8.09,8.09,0,0,0,30.7,24.3a.72.72,0,0,1-1,.31.69.69,0,0,1-.3-.31A8.08,8.08,0,0,0,22,19.31Zm8,31.57a.66.66,0,0,1-.5-.23C29,50.06,16.1,36.2,14.1,32.91a10.38,10.38,0,0,1-1.6-5.37A9.6,9.6,0,0,1,22,17.87a9.42,9.42,0,0,1,8,4.54,9.34,9.34,0,0,1,13.07-3.05,9.79,9.79,0,0,1,4.43,8.17,10.32,10.32,0,0,1-1.6,5.38c-2,3.29-14.84,17.15-15.4,17.74A.66.66,0,0,1,30,50.88Z"/><path class="cls-2" d="M22,19.31v1.5h0ZM13.9,27.55H12.4Zm1.4,4.68,1.29-.76v0ZM30,49.17l-1.09,1L30,51.38l1.09-1.21ZM44.7,32.23l-1.26-.81h0Zm1.4-4.63,1.5,0v-.06Zm-8.27-8.08,0,1.5h0ZM30.7,24.3,32,25l0,0,0,0Zm-1,.31.72-1.32h0Zm-.3-.31L28,24.88l0,.05,0,.05ZM30,50.88l0,1.5h0v-1.5Zm-.51-.23,1.11-1h0ZM14.09,32.91l1.28-.78h0ZM12.5,27.55H11v0ZM22,17.88v1.5h0Zm8,4.54-1.28.79L30,25.29l1.28-2.08Zm13.07-3.05-.81,1.26h0Zm4.43,8.18,1.5,0H47.5Zm-1.6,5.38-1.27-.8h0ZM30.5,50.67l1.08,1h0ZM22,17.81a9.66,9.66,0,0,0-9.56,9.73h3A6.66,6.66,0,0,1,22,20.81ZM12.4,27.57A10.4,10.4,0,0,0,14,33l2.53-1.62a7.44,7.44,0,0,1-1.16-3.89ZM14,33a34.17,34.17,0,0,0,2.81,3.69c1.28,1.54,2.85,3.34,4.43,5.12,3.17,3.56,6.43,7.1,7.68,8.41l2.18-2.06c-1.22-1.29-4.46-4.8-7.61-8.34-1.57-1.77-3.12-3.54-4.37-5.05a32.79,32.79,0,0,1-2.53-3.3ZM31.13,50.18c1.2-1.33,4.47-4.91,7.63-8.46,1.58-1.78,3.15-3.57,4.42-5.09A39.91,39.91,0,0,0,46,33l-2.56-1.57a34.78,34.78,0,0,1-2.54,3.25c-1.25,1.49-2.8,3.26-4.37,5-3.16,3.56-6.38,7.07-7.62,8.45ZM46,33a10.43,10.43,0,0,0,1.64-5.4l-3-.06a7.42,7.42,0,0,1-1.16,3.84Zm1.64-5.46A9.67,9.67,0,0,0,37.8,18l.07,3a6.67,6.67,0,0,1,6.73,6.62ZM37.8,18a9.58,9.58,0,0,0-8.47,5.66l2.73,1.24A6.56,6.56,0,0,1,37.87,21Zm-8.44,5.6a.78.78,0,0,1,1.06-.32L29,25.94A2.22,2.22,0,0,0,32,25Zm1.06-.33a.78.78,0,0,1,.32.33L28.07,25a2.24,2.24,0,0,0,.93.95Zm.37.43A9.56,9.56,0,0,0,22,17.81l0,3A6.57,6.57,0,0,1,28,24.89ZM30,49.38a.78.78,0,0,1,.59.27l-2.23,2a2.14,2.14,0,0,0,1.6.72Zm.58.25c-.27-.29-3.61-3.89-7.13-7.83-1.76-2-3.56-4-5-5.77a41.41,41.41,0,0,1-3-3.89L12.82,33.7A42.61,42.61,0,0,0,16.13,38c1.51,1.79,3.33,3.86,5.1,5.84,3.54,4,6.9,7.58,7.18,7.88ZM15.36,32.11A8.85,8.85,0,0,1,14,27.52l-3,.05a11.85,11.85,0,0,0,1.83,6.15ZM14,27.56a8.09,8.09,0,0,1,8-8.17l0-3A11.09,11.09,0,0,0,11,27.55Zm8-8.18a7.92,7.92,0,0,1,6.7,3.83l2.56-1.57A10.93,10.93,0,0,0,22,16.38Zm9.26,3.83a7.84,7.84,0,0,1,11-2.57l1.63-2.52a10.84,10.84,0,0,0-15.16,3.53Zm11-2.57A8.25,8.25,0,0,1,46,27.56l3,0a11.28,11.28,0,0,0-5.12-9.43ZM46,27.53a8.86,8.86,0,0,1-1.36,4.6l2.54,1.6A11.86,11.86,0,0,0,49,27.57Zm-1.38,4.62a43.57,43.57,0,0,1-3,3.89c-1.48,1.76-3.28,3.8-5,5.77-3.53,3.94-6.87,7.54-7.13,7.82l2.17,2.07c.3-.31,3.66-3.94,7.2-7.89,1.77-2,3.59-4.05,5.1-5.84a42,42,0,0,0,3.3-4.27ZM29.42,49.63a.79.79,0,0,1,.58-.25v3a2.23,2.23,0,0,0,1.59-.67Z"/></g></g></svg>