<?xml version="1.0" encoding="utf-8"?>
<!-- Generator: Adobe Illustrator 24.0.3, SVG Export Plug-In . SVG Version: 6.00 Build 0)  -->
<svg version="1.1" id="Layer_1" xmlns="http://www.w3.org/2000/svg" xmlns:xlink="http://www.w3.org/1999/xlink" x="0px" y="0px"
	 viewBox="0 0 70 90" style="enable-background:new 0 0 70 90;" xml:space="preserve">
<style type="text/css">
	.st0{fill-rule:evenodd;clip-rule:evenodd;fill:#194a79;}
</style>
<path class="st0" d="M51.59,64.33c-0.17,0.23-0.35,0.49-0.53,0.76c-0.89,0.89-1.77,1.67-2.66,2.36L35.27,77.59L22.14,67.45
	c-0.88-0.69-1.77-1.46-2.62-2.3c-0.23-0.33-0.41-0.58-0.58-0.82l-0.24-0.32l0.33-0.22c2.27-1.56,5.45-2.73,9.2-3.41
	c1.25-0.23,2.16-1.35,2.1-2.63c-0.03-0.76-0.03-1.57-0.03-2.41c0-1.29-0.62-2.5-1.23-3.68c-0.58-1.12-1.17-2.28-1.23-3.47
	c0-0.16-0.04-0.31-0.11-0.45c-0.71-1.48-1.11-2.95-1.11-4.01c0-0.32,0.04-0.74,0.23-0.92c0.25-0.26,0.37-0.64,0.3-1.01
	c-0.1-0.55-0.2-1.12-0.29-1.71c-0.08-0.5-0.17-1-0.26-1.52c-0.68-3.81,0.48-6.1,3.88-7.65c0.78-0.35,0.98-1.18,1.07-2.48l0.04-0.58
	l0.51,0.27c1.98,1.04,4.54,1.7,6.4,2.17l0.23,0.06c0.55,0.14,0.99,0.26,1.26,0.35c3.26,1.17,4.61,3.89,3.91,7.85
	c-0.09,0.51-0.18,1.02-0.26,1.52c-0.1,0.58-0.19,1.15-0.29,1.71c-0.07,0.37,0.05,0.76,0.31,1.02c0.18,0.18,0.22,0.6,0.22,0.91
	c0,1.07-0.4,2.53-1.11,4.01c-0.07,0.14-0.11,0.29-0.11,0.45c-0.06,1.21-0.66,2.41-1.25,3.57c-0.62,1.23-1.21,2.37-1.21,3.58
	c0,0.84,0,1.64-0.03,2.4c-0.06,1.27,0.85,2.4,2.1,2.63c3.75,0.67,6.93,1.85,9.2,3.41l0.33,0.22L51.59,64.33z M17.38,62.15l-0.3,0.22
	l-0.22-0.29c-4-5.23-6.2-11.68-6.2-18.17V22.93l0.33-0.04c11.23-1.44,19.29-5.88,24.06-9.36l0.22-0.16l0.22,0.16
	c4.78,3.48,12.83,7.92,24.06,9.36l0.33,0.04V43.9c0,6.49-2.2,12.94-6.2,18.17l-0.22,0.29l-0.3-0.22c-2.55-1.86-6.14-3.26-10.38-4.03
	l-0.33-0.06l0.01-0.33c0.03-0.76,0.03-1.56,0.03-2.38c0-0.64,0.46-1.55,0.94-2.51c0.63-1.24,1.34-2.64,1.49-4.23l0.03-0.13
	c0.78-1.72,1.21-3.4,1.21-4.75c0-0.74-0.14-1.38-0.42-1.9l-0.06-0.12l0.02-0.13c0.06-0.33,0.12-0.67,0.17-1.02l0.07-0.41
	c0.06-0.38,0.13-0.77,0.2-1.17c0.9-5.07-1.06-8.88-5.38-10.43c-0.35-0.13-1-0.3-1.69-0.47c-2.05-0.53-5.85-1.51-7.3-2.93
	c-0.35-0.35-0.71-0.42-0.96-0.42c-1.24,0-1.4,1.24-1.48,2.86c-0.02,0.35-0.04,0.85-0.08,1.19l-0.02,0.21l-0.18,0.09
	c-3.97,2.01-5.5,5.25-4.67,9.91c0.07,0.4,0.14,0.79,0.2,1.18l0.26,1.56l-0.06,0.12c-0.28,0.52-0.42,1.16-0.42,1.9
	c0,1.35,0.43,3.03,1.21,4.75l0.03,0.13c0.14,1.56,0.84,2.92,1.46,4.11c0.5,0.98,0.97,1.9,0.97,2.61c0,0.83,0,1.63,0.03,2.39
	l0.01,0.33l-0.33,0.06C23.51,58.89,19.93,60.29,17.38,62.15z M52.82,66.51l0.05,0.02c5.9-5.98,9.28-14.21,9.28-22.62V21.89
	c0-0.6-0.44-1.09-1.02-1.15c-11.93-1.24-20.28-5.98-25.18-9.74c-0.4-0.31-0.97-0.31-1.37,0c-4.91,3.76-13.26,8.5-25.18,9.74
	c-0.58,0.06-1.02,0.55-1.02,1.15V43.9c0,8.44,3.4,16.69,9.33,22.67h0.05l0.11,0.18c0.89,0.87,1.88,1.75,2.88,2.52l13.81,10.68
	c0.4,0.31,0.98,0.31,1.38,0l13.81-10.68c1.03-0.8,2-1.66,2.93-2.59L52.82,66.51z"/>
<path class="st0" d="M2.92,16.05l0.38-0.01c17.37-0.46,27.61-8.47,31.21-11.88l0.27-0.26l0.27,0.26
	c3.6,3.42,13.84,11.42,31.21,11.88l0.38,0.01v27.54c0,11.43-5.39,22.4-14.41,29.32l-17.45,13.4l-17.45-13.4
	C8.31,65.99,2.92,55.02,2.92,43.59V16.05z M0.56,43.59c0,12.17,5.73,23.84,15.34,31.22l18.16,13.95c0.41,0.31,1.02,0.31,1.43,0
	l18.16-13.95C63.27,67.44,69,55.76,69,43.59V14.87c0-0.66-0.53-1.19-1.18-1.19c-21.06,0-32.04-12.15-32.15-12.28
	C35.45,1.15,35.12,1,34.78,1c-0.34,0-0.67,0.15-0.89,0.4c-0.45,0.5-11.11,12.28-32.15,12.28c-0.65,0-1.18,0.53-1.18,1.19V43.59z"/>
</svg>
