<?xml version="1.0" encoding="utf-8"?>
<!-- Generator: Adobe Illustrator 24.0.3, SVG Export Plug-In . SVG Version: 6.00 Build 0)  -->
<svg version="1.1" id="Layer_1" xmlns="http://www.w3.org/2000/svg" xmlns:xlink="http://www.w3.org/1999/xlink" x="0px" y="0px"
	 viewBox="0 0 70 90" style="enable-background:new 0 0 70 90;" xml:space="preserve">
<style type="text/css">
	.st0{fill-rule:evenodd;clip-rule:evenodd;fill:#194A79;stroke:#194A79;stroke-width:1.5;stroke-miterlimit:10;}
</style>
<path class="st0" d="M51.6,64.3c-0.2,0.2-0.3,0.5-0.5,0.8c-0.9,0.9-1.8,1.7-2.7,2.4L35.3,77.6L22.1,67.4c-0.9-0.7-1.8-1.5-2.6-2.3
	c-0.2-0.3-0.4-0.6-0.6-0.8L18.7,64l0.3-0.2c2.3-1.6,5.4-2.7,9.2-3.4c1.2-0.2,2.2-1.3,2.1-2.6c0-0.8,0-1.6,0-2.4
	c0-1.3-0.6-2.5-1.2-3.7c-0.6-1.1-1.2-2.3-1.2-3.5c0-0.2,0-0.3-0.1-0.5c-0.7-1.5-1.1-3-1.1-4c0-0.3,0-0.7,0.2-0.9
	c0.2-0.3,0.4-0.6,0.3-1c-0.1-0.5-0.2-1.1-0.3-1.7c-0.1-0.5-0.2-1-0.3-1.5c-0.7-3.8,0.5-6.1,3.9-7.6c0.8-0.4,1-1.2,1.1-2.5l0-0.6
	l0.5,0.3c2,1,4.5,1.7,6.4,2.2l0.2,0.1c0.5,0.1,1,0.3,1.3,0.4c3.3,1.2,4.6,3.9,3.9,7.9c-0.1,0.5-0.2,1-0.3,1.5
	c-0.1,0.6-0.2,1.2-0.3,1.7c-0.1,0.4,0,0.8,0.3,1c0.2,0.2,0.2,0.6,0.2,0.9c0,1.1-0.4,2.5-1.1,4c-0.1,0.1-0.1,0.3-0.1,0.5
	c-0.1,1.2-0.7,2.4-1.2,3.6c-0.6,1.2-1.2,2.4-1.2,3.6c0,0.8,0,1.6,0,2.4c-0.1,1.3,0.8,2.4,2.1,2.6c3.8,0.7,6.9,1.8,9.2,3.4l0.3,0.2
	L51.6,64.3z M17.4,62.2l-0.3,0.2l-0.2-0.3c-4-5.2-6.2-11.7-6.2-18.2v-21l0.3,0C22.2,21.4,30.3,17,35,13.5l0.2-0.2l0.2,0.2
	c4.8,3.5,12.8,7.9,24.1,9.4l0.3,0v21c0,6.5-2.2,12.9-6.2,18.2l-0.2,0.3l-0.3-0.2c-2.5-1.9-6.1-3.3-10.4-4L42.5,58l0-0.3
	c0-0.8,0-1.6,0-2.4c0-0.6,0.5-1.5,0.9-2.5c0.6-1.2,1.3-2.6,1.5-4.2l0-0.1c0.8-1.7,1.2-3.4,1.2-4.8c0-0.7-0.1-1.4-0.4-1.9l-0.1-0.1
	l0-0.1c0.1-0.3,0.1-0.7,0.2-1l0.1-0.4c0.1-0.4,0.1-0.8,0.2-1.2c0.9-5.1-1.1-8.9-5.4-10.4c-0.3-0.1-1-0.3-1.7-0.5
	c-2-0.5-5.8-1.5-7.3-2.9c-0.4-0.4-0.7-0.4-1-0.4c-1.2,0-1.4,1.2-1.5,2.9c0,0.4,0,0.9-0.1,1.2l0,0.2L29,29.1c-4,2-5.5,5.3-4.7,9.9
	c0.1,0.4,0.1,0.8,0.2,1.2l0.3,1.6l-0.1,0.1c-0.3,0.5-0.4,1.2-0.4,1.9c0,1.3,0.4,3,1.2,4.8l0,0.1c0.1,1.6,0.8,2.9,1.5,4.1
	c0.5,1,1,1.9,1,2.6c0,0.8,0,1.6,0,2.4l0,0.3l-0.3,0.1C23.5,58.9,19.9,60.3,17.4,62.2z M52.8,66.5L52.8,66.5c6-6,9.3-14.2,9.3-22.6
	v-22c0-0.6-0.4-1.1-1-1.1c-11.9-1.2-20.3-6-25.2-9.7c-0.4-0.3-1-0.3-1.4,0c-4.9,3.8-13.3,8.5-25.2,9.7c-0.6,0.1-1,0.5-1,1.1v22
	c0,8.4,3.4,16.7,9.3,22.7h0l0.1,0.2c0.9,0.9,1.9,1.8,2.9,2.5l13.8,10.7c0.4,0.3,1,0.3,1.4,0l13.8-10.7c1-0.8,2-1.7,2.9-2.6
	L52.8,66.5z"/>
<path class="st0" d="M2.9,16l0.4,0c17.4-0.5,27.6-8.5,31.2-11.9l0.3-0.3L35,4.2C38.6,7.6,48.9,15.6,66.3,16l0.4,0v27.5
	c0,11.4-5.4,22.4-14.4,29.3L34.8,86.3L17.3,72.9C8.3,66,2.9,55,2.9,43.6V16z M0.6,43.6c0,12.2,5.7,23.8,15.3,31.2l18.2,13.9
	c0.4,0.3,1,0.3,1.4,0l18.2-13.9c9.6-7.4,15.3-19,15.3-31.2V14.9c0-0.7-0.5-1.2-1.2-1.2c-21.1,0-32-12.1-32.2-12.3
	C35.5,1.1,35.1,1,34.8,1s-0.7,0.1-0.9,0.4C33.4,1.9,22.8,13.7,1.7,13.7c-0.6,0-1.2,0.5-1.2,1.2C0.6,14.9,0.6,43.6,0.6,43.6z"/>
</svg>
