<?xml version="1.0" encoding="utf-8"?>
<!-- Generator: Adobe Illustrator 24.0.3, SVG Export Plug-In . SVG Version: 6.00 Build 0)  -->
<svg version="1.1" id="Layer_1" xmlns="http://www.w3.org/2000/svg" xmlns:xlink="http://www.w3.org/1999/xlink" x="0px" y="0px"
	 viewBox="0 0 100 100" style="enable-background:new 0 0 100 100;" xml:space="preserve">
<style type="text/css">
	.st0{fill:#194A79;stroke:#194A79;stroke-miterlimit:10;}
</style>
<g>
	<g>
		<circle class="st0" cx="66.4" cy="49" r="3.9"/>
	</g>
	<g>
		<circle class="st0" cx="33.2" cy="49" r="3.9"/>
	</g>
	<g>
		<path class="st0" d="M37,68.2c0,7,5.7,12.6,12.6,12.6c7,0,12.6-5.7,12.6-12.6H37z"/>
	</g>
	<g>
		<path class="st0" d="M49.7,98.9C23,98.9,1.3,77.2,1.3,50.5C1.3,23.8,23,2.1,49.7,2.1C76.3,2.1,98,23.8,98,50.5
			C98,77.2,76.3,98.9,49.7,98.9z M49.7,5.5c-24.8,0-45,20.2-45,45c0,24.8,20.2,45,45,45c24.8,0,45-20.2,45-45S74.5,5.5,49.7,5.5z"/>
	</g>
	<g>
		<path class="st0" d="M90.9,73.2c-0.7,0-1.4-0.5-1.6-1.2l-5.8-17.9c-0.2-0.5-0.1-1,0.2-1.4c0.3-0.4,0.7-0.7,1.2-0.8
			c0.9-0.1,3.3-0.7,4.2-2.2c0.5-0.8,0.5-1.9-0.1-3.3c-0.6-1.4-1.4-2.3-2.3-2.6c-1.6-0.5-3.7,0.6-4.2,1c-0.4,0.3-1,0.4-1.5,0.2
			c-0.5-0.2-0.9-0.6-1.1-1.1L75.3,30L24.1,40.3c-0.6,0.1-1.3-0.1-1.7-0.6c-0.4-0.5-0.5-1.2-0.1-1.8l2.8-5.5L5.9,37.2
			c-0.9,0.2-1.8-0.3-2-1.2c-0.2-0.9,0.3-1.8,1.2-2l22.7-5.6c0.6-0.2,1.3,0.1,1.7,0.6c0.4,0.5,0.5,1.2,0.2,1.8l-2.9,5.7l49.3-10
			c0.8-0.2,1.7,0.3,1.9,1.1l4.4,13.6c1.4-0.6,3.3-1,5.2-0.5c2,0.6,3.5,2.1,4.5,4.6c1,2.4,0.9,4.5-0.1,6.2c-1.1,1.9-3.2,2.9-4.7,3.4
			L92.5,71c0.3,0.9-0.2,1.8-1.1,2.1C91.3,73.1,91.1,73.2,90.9,73.2z"/>
	</g>
</g>
</svg>
