<?xml version="1.0" encoding="utf-8"?>
<!-- Generator: Adobe Illustrator 24.0.3, SVG Export Plug-In . SVG Version: 6.00 Build 0)  -->
<svg version="1.1" id="Layer_1" xmlns="http://www.w3.org/2000/svg" xmlns:xlink="http://www.w3.org/1999/xlink" x="0px" y="0px"
	 viewBox="0 0 100 100" style="enable-background:new 0 0 100 100;" xml:space="preserve">
<style type="text/css">
	.st0{fill:#194a79;}
</style>
<g>
	<g>
		<circle class="st0" cx="66.69" cy="48.03" r="3.95"/>
	</g>
	<g>
		<circle class="st0" cx="32.85" cy="48.03" r="3.95"/>
	</g>
	<g>
		<path class="st0" d="M36.79,67.65c0,7.12,5.77,12.88,12.88,12.88c7.12,0,12.88-5.77,12.88-12.88H36.79z"/>
	</g>
	<g>
		<path class="st0" d="M49.68,98.87c-27.2,0-49.32-22.13-49.32-49.32c0-27.2,22.13-49.32,49.32-49.32C76.87,0.23,99,22.36,99,49.55
			C99,76.75,76.87,98.87,49.68,98.87z M49.68,3.65c-25.31,0-45.91,20.59-45.91,45.91c0,25.31,20.59,45.91,45.91,45.91
			c25.31,0,45.91-20.59,45.91-45.91C95.59,24.24,74.99,3.65,49.68,3.65z"/>
	</g>
	<g>
		<path class="st0" d="M91.75,72.67c-0.72,0-1.39-0.46-1.62-1.18L84.2,53.27c-0.16-0.49-0.09-1.02,0.19-1.45
			c0.28-0.43,0.73-0.71,1.24-0.77c0.88-0.11,3.38-0.73,4.28-2.24c0.5-0.84,0.47-1.93-0.09-3.33c-0.58-1.46-1.38-2.35-2.37-2.64
			c-1.64-0.49-3.73,0.62-4.33,1.04c-0.44,0.31-1.01,0.4-1.52,0.22c-0.51-0.17-0.92-0.58-1.08-1.09l-4.66-14.36L23.58,39.2
			c-0.64,0.13-1.3-0.12-1.7-0.64c-0.4-0.52-0.46-1.23-0.15-1.81l2.88-5.58L5.1,36c-0.92,0.22-1.84-0.33-2.07-1.25
			c-0.23-0.91,0.33-1.84,1.25-2.07l23.16-5.74c0.65-0.16,1.33,0.07,1.75,0.6c0.42,0.53,0.48,1.25,0.18,1.84l-2.98,5.77l50.27-10.16
			c0.85-0.18,1.69,0.32,1.96,1.15l4.51,13.88c1.38-0.57,3.32-1.04,5.29-0.46c2.04,0.61,3.57,2.17,4.56,4.65
			c0.97,2.42,0.92,4.56-0.15,6.35c-1.16,1.95-3.24,2.94-4.81,3.43l5.34,16.45c0.29,0.9-0.2,1.86-1.1,2.15
			C92.1,72.64,91.92,72.67,91.75,72.67z"/>
	</g>
</g>
</svg>
