<svg xmlns="http://www.w3.org/2000/svg" viewBox="0 0 76.5 75.49"><defs><style>.cls-1,.cls-2,.cls-3{fill:#18c8ee;}.cls-1{stroke:#18c8ee;}.cls-1,.cls-2{fill-rule:evenodd;}</style></defs><title>Asset 1</title><g id="Layer_2" data-name="Layer 2"><g id="Layer_1-2" data-name="Layer 1"><path class="cls-1" d="M32.52,38.71l-9.18-9.09-2.09,2.07L31.49,41.84a1.49,1.49,0,0,0,2.09,0L54.25,21.33l-2.09-2.07Z"/><path class="cls-2" d="M73.33,7.6a4.41,4.41,0,0,0-4.39-4.41H7.58A4.42,4.42,0,0,0,3.18,7.6V54.66a4.41,4.41,0,0,0,4.4,4.41H42.65a1.42,1.42,0,0,1,1,.43L54.36,70.23V60.54a1.46,1.46,0,0,1,1.46-1.47H68.93a4.41,4.41,0,0,0,4.39-4.41V7.6ZM57.29,62V73.78a1.49,1.49,0,0,1-.9,1.36,1.55,1.55,0,0,1-.56.11,1.45,1.45,0,0,1-1-.43L42.05,62H7.58A7.34,7.34,0,0,1,.26,54.67V7.61A7.35,7.35,0,0,1,7.58.26H68.94a7.34,7.34,0,0,1,7.32,7.35V54.67A7.34,7.34,0,0,1,68.94,62H57.29Z"/><path class="cls-3" d="M43.68,59.5l-.18.18h0ZM54.36,70.23l-.18.18.43.43v-.61ZM57.29,62v-.25H57V62Zm-.9,13.12-.1-.23h0Zm-1.6-.32-.18.18h0ZM42,62l.18-.18-.07-.07h-.1V62ZM73.58,7.6a4.65,4.65,0,0,0-4.64-4.66v.5A4.16,4.16,0,0,1,73.08,7.6ZM68.93,2.94H7.58v.5H68.94v-.5Zm-61.35,0A4.66,4.66,0,0,0,2.93,7.6h.5A4.15,4.15,0,0,1,7.58,3.44ZM2.93,7.6V54.66h.5V7.6Zm0,47.06a4.66,4.66,0,0,0,4.65,4.66v-.5a4.17,4.17,0,0,1-4.15-4.16Zm4.65,4.66H42.65v-.5H7.58Zm35.07,0a1.22,1.22,0,0,1,.86.36l.36-.35a1.73,1.73,0,0,0-1.21-.51v.5Zm.85.36L54.18,70.41l.35-.35L43.85,59.33ZM54.61,70.23V60.54h-.5v9.69Zm0-9.69a1.22,1.22,0,0,1,1.21-1.22v-.5a1.71,1.71,0,0,0-1.71,1.72Zm1.22-1.22H68.94v-.5H55.83Zm13.1,0a4.65,4.65,0,0,0,4.64-4.66h-.5a4.16,4.16,0,0,1-4.14,4.16Zm4.65-4.66V7.6h-.5V54.66ZM57,62V73.78h.5V62Zm0,11.77a1.24,1.24,0,0,1-.75,1.13l.19.46a1.73,1.73,0,0,0,1.06-1.59Zm-.75,1.12a1.25,1.25,0,0,1-.46.09v.5a1.69,1.69,0,0,0,.66-.13Zm-.46.1a1.2,1.2,0,0,1-.86-.36l-.35.35a1.69,1.69,0,0,0,1.21.5ZM55,74.64,42.22,61.84l-.35.35L54.62,75ZM42,61.76H7.58v.5H42Zm-34.46,0a7.1,7.1,0,0,1-7.07-7.1H0a7.6,7.6,0,0,0,7.57,7.6ZM.5,54.66V7.6H0V54.66ZM.5,7.6A7.09,7.09,0,0,1,7.57.5V0A7.59,7.59,0,0,0,0,7.6ZM7.58.5H68.94V0H7.58ZM68.93.5A7.1,7.1,0,0,1,76,7.6h.5A7.6,7.6,0,0,0,68.93,0ZM76,7.6V54.66h.5V7.6Zm0,47.06a7.09,7.09,0,0,1-7.07,7.1v.5a7.6,7.6,0,0,0,7.57-7.6Zm-7.07,7.1H57.29v.5H68.93Z"/></g></g></svg>