<svg xmlns="http://www.w3.org/2000/svg" viewBox="0 0 119.14 191.63"><defs><style>.cls-1{isolation:isolate;}.cls-16,.cls-2{fill:#45bfe0;}.cls-10,.cls-3{fill:#fff;}.cls-17,.cls-4,.cls-6{fill:#cfd0d0;}.cls-10,.cls-11,.cls-12,.cls-13,.cls-14,.cls-15,.cls-16,.cls-17,.cls-4,.cls-5,.cls-8,.cls-9{fill-rule:evenodd;}.cls-5{fill:#f08233;}.cls-7{fill:#c9caca;}.cls-17,.cls-7{mix-blend-mode:multiply;}.cls-8{fill:#1d89b2;}.cls-9{fill:#004476;}.cls-11{fill:#020204;}.cls-12{fill:#a06152;}.cls-13{fill:#7f5c4f;}.cls-14{fill:#e99471;}.cls-15{fill:#85d1f5;}</style></defs><title>Asset 1</title><g class="cls-1"><g id="Layer_2" data-name="Layer 2"><g id="Layer_1-2" data-name="Layer 1"><rect class="cls-2" x="30.42" y="34.87" width="88.72" height="156.76" rx="8.23"/><rect class="cls-3" x="34.78" y="51.48" width="80.01" height="120.29"/><polygon class="cls-4" points="111.94 51.48 86.06 51.48 99 64.41 111.94 51.48"/><polygon class="cls-4" points="102.12 67.53 114.79 80.2 114.79 54.87 102.12 67.53"/><polygon class="cls-4" points="95.88 67.53 79.83 51.48 50.69 51.48 81.31 82.1 95.88 67.53"/><polygon class="cls-4" points="85.41 57.05 79.83 51.48 50.69 51.48 70.84 71.63 85.41 57.05"/><polygon class="cls-4" points="114.79 88.91 114.79 86.44 99 70.65 84.43 85.22 101.45 102.24 114.79 88.91"/><polygon class="cls-4" points="104.57 105.36 114.79 115.58 114.79 95.14 104.57 105.36"/><polygon class="cls-4" points="52.34 111.08 34.77 93.51 34.77 128.64 52.34 111.08"/><path class="cls-4" d="M72.48,131.21l-17-17L36.17,133.48q8.44,8.58,16.92,17.12Z"/><path class="cls-4" d="M56.19,153.74q9,9,17.93,18H113L75.6,134.33Z"/><path class="cls-5" d="M113,171.76,96.54,155.28,80,171.76Z"/><path class="cls-4" d="M50,153.71c-5.07-5.12-10.16-10.22-15.21-15.35v30.56Z"/><path class="cls-4" d="M38.17,171.76H67.89c-4.94-5-9.86-9.95-14.8-14.92Z"/><path class="cls-5" d="M50.56,135.42l-6.27,6.28q4.4,4.45,8.8,8.9l6.33-6.32Z"/><path class="cls-5" d="M60.48,164.29q-3.69-3.73-7.39-7.45l-7,7A13.19,13.19,0,0,0,60.48,164.29Z"/><polygon class="cls-4" points="78.19 85.22 44.45 51.48 34.77 51.48 34.77 87.27 55.46 107.96 78.19 85.22"/><rect class="cls-6" x="62.38" y="96.18" width="32.15" height="24.07" transform="translate(-53.54 87.17) rotate(-45)"/><path class="cls-4" d="M64.57,76.23,52.71,88.1c.07.06.15.11.23.19L64,99.41,75.88,87.54Z"/><path class="cls-4" d="M49.63,91.18l-5.48,5.47L55.46,108l5.43-5.43L49.82,91.41C49.74,91.33,49.69,91.25,49.63,91.18Z"/><path class="cls-5" d="M79,90.65,67.11,102.54q8.49,8.53,17,17L96,107.67Z"/><polygon class="cls-4" points="78.72 131.21 114.79 167.28 114.79 121.81 101.45 108.48 78.72 131.21"/><path class="cls-5" d="M79.08,156.34q4.62-4.64,9.25-9.28L75.6,134.33l-9.27,9.27Z"/><path class="cls-5" d="M88.52,121.41l-9.8,9.8,12.72,12.73q4.91-4.91,9.76-9.85Z"/><rect class="cls-7" x="34.78" y="51.48" width="80.01" height="2.86"/><path class="cls-8" d="M82.76,184.74h-16a3.27,3.27,0,1,1,0-6.54h16a3.27,3.27,0,0,1,0,6.54Z"/><path class="cls-9" d="M114.79,67.43a27.65,27.65,0,0,1-10.55,8.34c-7.82,3.78-19,5.55-27-.8C61.43,62.38,35.86,62.24,34.78,62.24v4.35c.24,0,25.11.14,39.74,11.78A24.52,24.52,0,0,0,90.1,83.52a37.88,37.88,0,0,0,16-3.82,36.12,36.12,0,0,0,8.66-5.78Z"/><path class="cls-9" d="M114.79,141.77c-3.88-3.44-9.05-5.71-15.37-4.15-6.59,1.62-10.1,5.37-13.2,8.68-3.81,4.07-6.82,7.29-14.88,6.8-7.84-.47-10.14-8-12.53-18.63-1.34-6-2.61-11.63-5.9-14.66-6.27-5.8-14.31-4.27-18.13-3.06v4.63c1.7-.69,9.65-3.48,15.18,1.63,2.28,2.11,3.41,7.11,4.61,12.42,2.14,9.49,4.8,21.31,16.51,22,.63,0,1.23.05,1.82.05,8.8,0,12.71-4.18,16.5-8.23,2.95-3.14,5.73-6.11,11.06-7.43,6.71-1.65,11.47,2.46,14.33,6.32Z"/><path class="cls-5" d="M79.54,39.77a39.77,39.77,0,1,0-75,18.42h0l0,0c.49.93,1,1.85,1.57,2.73l33.65,54.93L73.34,61.08A39.57,39.57,0,0,0,79.54,39.77Z"/><path class="cls-5" d="M64.79,8.86c6.26,7,12.54,18,12.75,29.2.15,7.84-2.87,15.39-7.77,25.77l-30,52.06L73.34,61.08A39.75,39.75,0,0,0,64.79,8.86Z"/><path class="cls-10" d="M70.84,40.36A31.07,31.07,0,1,1,39.77,9.3,31.07,31.07,0,0,1,70.84,40.36Z"/><path class="cls-5" d="M18.23,16.35l.33-.33c1.44-1.47,3.08-2.93,3.75-4.94C23,8.9,20.39,9.15,18.89,9.6c-3.42,1-6.22,4.07-8.44,6.71a29.21,29.21,0,0,0-4.92,8.33C4.45,27.46,3.25,31,5,33.83a2.27,2.27,0,0,0,.75.79,1,1,0,0,0,1,0A1.49,1.49,0,0,0,7.19,34a83.32,83.32,0,0,1,6.36-12.31A37.69,37.69,0,0,1,18.23,16.35Z"/><path class="cls-11" d="M31.2,15.32a13.87,13.87,0,0,0-2.93,2.79,12.84,12.84,0,0,0-1.69,3.32,20.7,20.7,0,0,0-1.15,8.07c.15,2.66.82,5.28.93,7.94a7,7,0,0,1-.67,3.74,4.31,4.31,0,0,1-3.48,2.18c-1.44,0-2.35-1.5-2.62-2.86-1.24,1.63-1.18,4.18-.63,6.1a10.49,10.49,0,0,0,2.65,4.32c3.26,3.33,7.21,3.87,11.62,4.07s9.1.44,13.58.26a16.67,16.67,0,0,0,2-.64,7.14,7.14,0,0,0,4.07-2,1,1,0,0,0,.29-.63c0-.44-.54-.64-1-.82A4.32,4.32,0,0,1,50,48.8c-.8-2,.07-3.12.5-5,.53-2.26,1-4.52,1.56-6.76.33-1.26.9-2.55,1.15-3.81a16.81,16.81,0,0,0-.13-4.64A21.77,21.77,0,0,0,51.92,23a15.45,15.45,0,0,0-6.34-7.63c-2.52-1.55-5.28-3.28-8.35-2.88A13.36,13.36,0,0,0,31.2,15.32Z"/><polygon class="cls-12" points="45.88 56.63 42.86 66.57 35.87 56.14 36.53 42.67 45.59 43.12 45.88 56.63"/><path class="cls-13" d="M45.73,49.88l-.15-6.76-9-.45-.66,13.47h0A14.74,14.74,0,0,1,45.73,49.88Z"/><path class="cls-12" d="M54.3,28.9c.56,3.63-.53,8.68-1.68,11.77-2.09,5.68-4.15,8.43-7.38,8.43C38.1,49.1,31.09,42.75,31.09,33s4.35-18.71,11.49-18.71S52.74,18.83,54.3,28.9Z"/><path class="cls-12" d="M44.35,48.59c-2.18-.25-5.82-1.82-7.3-3.5-2.3-2.62-3.21-5.93-3.51-9.46a10.29,10.29,0,0,1,.29-3.14,6.43,6.43,0,0,0,.08-2.86c-.52-1.58-2.44,2.11-2.69.45-.09.94-.13,1.9-.13,2.87,0,9.8,7,16.15,14.15,16.15a5.07,5.07,0,0,0,3.85-1.78A6.07,6.07,0,0,1,44.35,48.59Z"/><path class="cls-14" d="M31.47,31.29A1.17,1.17,0,0,0,30,31.07c-1.09.61-.7,2.19-.18,3.11a3,3,0,0,0,1.84,1.41Z"/><path class="cls-11" d="M54.77,24.4a16.46,16.46,0,0,0-.89-2.62A16.1,16.1,0,0,0,50,16.2c-1.67-1.48-4-3-6.29-2.8a.91.91,0,0,0-.36.09.73.73,0,0,0-.33.62,2,2,0,0,0,.15.72c.28.85.57,1.7.86,2.55a21.27,21.27,0,0,0,4,6.94,28,28,0,0,0,3.5,3.3,14.08,14.08,0,0,1,1.85,1.77c.23.28,1.35,1.53,1.22,1.91A12.34,12.34,0,0,0,54.77,24.4Z"/><path class="cls-11" d="M32.55,44.07c2.87,7.57-1.11-13.71,4.35-16.82,1.22-.7,2.59-1.1,3.82-1.78a9.54,9.54,0,0,0,4.73-7,6.29,6.29,0,0,0-.22-2.86C44,12,39.48,12.79,36.86,14.42a18.44,18.44,0,0,0-5.67,5.39,15.79,15.79,0,0,0-2.09,4.64A15.07,15.07,0,0,0,28.66,27c0,.43-.05.87,0,1.31,0,.19-.19,1.55.24,1.25C26.86,32.8,32,44.08,32.55,44.07Z"/><path class="cls-10" d="M48.11,42.08l-.63,2.42s-5,1.31-5.88-2.63Z"/><polygon class="cls-15" points="55.19 56.91 55.19 56.91 55.19 56.92 55.19 56.91"/><path class="cls-16" d="M55.42,57.63c-.09,2.14-.37,4-.52,6.18a18.87,18.87,0,0,0,.15,3.6,30,30,0,0,0,3-2l-2.66-7.88Z"/><path class="cls-16" d="M54.9,63.81c.15-2.14.43-4,.52-6.18v-.05a1.15,1.15,0,0,0-.23-.66h0a5.11,5.11,0,0,0-2.56-1.39l-6.87-1.77c.05,1.24-.85,8.34-2.9,8.47-3.1.2-6.86-8.86-6.86-8.86s-8.84.74-11.88,2c-1.07.44-2.72,4.07-4.45,8.73a31,31,0,0,0,35.38,3.37A18.87,18.87,0,0,1,54.9,63.81Z"/><path class="cls-17" d="M53.79,12.64a31.06,31.06,0,0,1-30.74,53.9,31.06,31.06,0,1,0,30.74-53.9Z"/></g></g></g></svg>