<?xml version="1.0" encoding="utf-8"?>
<!-- Generator: Adobe Illustrator 24.0.3, SVG Export Plug-In . SVG Version: 6.00 Build 0)  -->
<svg version="1.1" id="Layer_1" xmlns="http://www.w3.org/2000/svg" xmlns:xlink="http://www.w3.org/1999/xlink" x="0px" y="0px"
	 viewBox="0 0 81 81" style="enable-background:new 0 0 81 81;" xml:space="preserve">
<style type="text/css">
	.st0{fill-rule:evenodd;clip-rule:evenodd;fill:#194a79;}

		.st1{fill-rule:evenodd;clip-rule:evenodd;fill:#194a79;stroke:#194a79;stroke-width:2;stroke-linecap:round;stroke-linejoin:round;}
</style>
<path class="st0" d="M40.78,76.86c-20.21,0-36.6-16.39-36.6-36.6s16.39-36.6,36.6-36.6s36.6,16.39,36.6,36.6
	C77.37,60.46,60.99,76.84,40.78,76.86z M40.78,0.47C18.81,0.47,1,18.29,1,40.26s17.81,39.78,39.78,39.78s39.78-17.81,39.78-39.78
	C80.55,18.29,62.75,0.49,40.78,0.47z"/>
<path class="st1" d="M37.98,39.02c-2.77,0.21-5.17-2-5.4-4.95c0.23-2.95,2.64-5.16,5.4-4.95h4.63c2.58-0.18,4.9,1.71,5.4,4.42
	l3.09-0.4c-0.7-4.38-4.33-7.53-8.49-7.33h-0.77v-6.6h-3.09v6.6h-0.77c-4.47-0.2-8.26,3.48-8.49,8.25c0.23,4.78,4.02,8.46,8.49,8.25
	h4.63c2.77-0.21,5.17,2,5.4,4.95c-0.23,2.95-2.64,5.16-5.4,4.95h-4.63c-2.58,0.19-4.9-1.71-5.4-4.42l-3.09,0.4
	c0.7,4.38,4.34,7.53,8.49,7.33h0.77v4.95h3.09v-4.95h0.77c4.49,0.19,8.27-3.52,8.49-8.32c-0.23-4.77-4.03-8.43-8.49-8.19H37.98z"/>
</svg>
