<svg xmlns="http://www.w3.org/2000/svg" viewBox="0 0 77 73.01"><defs><style>.cls-1,.cls-2{fill:#18c8ee;}.cls-1{fill-rule:evenodd;}</style></defs><title>Asset 1</title><g id="Layer_2" data-name="Layer 2"><g id="Layer_1-2" data-name="Layer 1"><path class="cls-1" d="M60.09,70A13.78,13.78,0,1,0,46.2,56.22,13.85,13.85,0,0,0,60.09,70ZM76.5,56.22a16.41,16.41,0,1,1-16.41-16.3A16.38,16.38,0,0,1,76.5,56.22ZM54.79,31.82a1.25,1.25,0,0,1,1.26,1.25,1.26,1.26,0,0,1-1.26,1.25H53.53a1.25,1.25,0,1,1,0-2.5Zm-3.36-8.25A1.39,1.39,0,0,1,51,23.3a1.27,1.27,0,0,1-.38-.89,1.13,1.13,0,0,1,0-.25.65.65,0,0,1,.08-.22c0-.08.08-.15.11-.23s.1-.13.16-.19a1.15,1.15,0,0,1,.41-.26,1.3,1.3,0,0,1,1.38.26,1.25,1.25,0,0,1,.15.19l.13.23a1,1,0,0,1,.06.22.77.77,0,0,1,0,.25,1.26,1.26,0,0,1-.37.89,1.24,1.24,0,0,1-.9.36A1.11,1.11,0,0,1,51.43,23.57Zm-6.89-7.8a.51.51,0,0,1-.23.07,1.14,1.14,0,0,1-.25,0l-.25,0a1,1,0,0,1-.23-.07.61.61,0,0,1-.23-.11c-.06-.05-.13-.09-.19-.15a1.3,1.3,0,0,1-.37-.89,1.37,1.37,0,0,1,.1-.48,1,1,0,0,1,.27-.41,1.33,1.33,0,0,1,1.79,0,1.32,1.32,0,0,1,.37.89,1.3,1.3,0,0,1-.37.89c-.06.06-.13.1-.19.15A.46.46,0,0,1,44.54,15.77ZM65.78,35.2a1.17,1.17,0,0,1-.46.28.2.2,0,0,1-.11,0,1.2,1.2,0,0,1-.32.06h-.07a1.05,1.05,0,0,1-.24-.06l-.18,0a1.18,1.18,0,0,1-.49-.36L59,30.17a1.25,1.25,0,0,1,0-1.77,1.27,1.27,0,0,1,1.79,0l2.83,2.81a30.06,30.06,0,0,0-8.81-19.43,30.51,30.51,0,0,0-42.85,0,29.93,29.93,0,0,0,0,42.53,30.51,30.51,0,0,0,26.8,8.34,1.27,1.27,0,0,1,1.47,1,1.25,1.25,0,0,1-1,1.45,32.48,32.48,0,0,1-5.8.51,33,33,0,0,1-23.23-9.54,32.42,32.42,0,0,1,0-46.08,33,33,0,0,1,46.42,0,32.57,32.57,0,0,1,9.55,21.33l3-2.94a1.26,1.26,0,1,1,1.78,1.77ZM33.33,31.82a1.25,1.25,0,0,0-1.26,1.25,1.26,1.26,0,1,0,1.26-1.25Zm1.26-2.28a3.74,3.74,0,0,1,2.52,3.53,3.78,3.78,0,0,1-7.34,1.25H23.15a1.25,1.25,0,1,1,0-2.5h6.63a3.75,3.75,0,0,1,2.29-2.28V19a1.26,1.26,0,0,1,2.52,0V29.54ZM33.33,14.27A1.25,1.25,0,0,1,32.07,13V11.77a1.26,1.26,0,0,1,2.52,0V13A1.27,1.27,0,0,1,33.33,14.27Zm-10.25,1.5a.51.51,0,0,1-.23.07,1.14,1.14,0,0,1-.25,0,1.36,1.36,0,0,1-.9-.36,1.3,1.3,0,0,1-.37-.89,1.37,1.37,0,0,1,.1-.48,1,1,0,0,1,.27-.41,1.33,1.33,0,0,1,1.79,0,1.41,1.41,0,0,1,.27.4,1.38,1.38,0,0,1,.1.49,1.3,1.3,0,0,1-.37.89l-.19.15A.4.4,0,0,1,23.08,15.77Zm.41,34.87a1.24,1.24,0,0,1,.37.88,1.33,1.33,0,0,1-.1.48,1,1,0,0,1-.27.41,1.31,1.31,0,0,1-1.8,0,1.33,1.33,0,0,1-.27-.41,1.29,1.29,0,0,1-.1-.48,1.26,1.26,0,0,1,.37-.88A1.3,1.3,0,0,1,23.49,50.64Zm11.1,2.47v1.25a1.26,1.26,0,0,1-2.52,0V53.11a1.26,1.26,0,0,1,2.52,0Zm-21-31.17.13-.23a1.25,1.25,0,0,1,.15-.19,1.2,1.2,0,0,1,.4-.26,1.29,1.29,0,0,1,1.38.26c.06.06.11.13.16.19a1.2,1.2,0,0,1,.11.23,1.19,1.19,0,0,1,.08.22c0,.09,0,.18,0,.25a1.27,1.27,0,0,1-.38.89,1.22,1.22,0,0,1-.88.36,1.69,1.69,0,0,1-.49-.09,1.23,1.23,0,0,1-.4-.27,1.26,1.26,0,0,1-.37-.89.74.74,0,0,1,0-.25A.59.59,0,0,1,13.57,21.94Zm.82,11.13a1.26,1.26,0,0,1-1.26,1.25H11.87a1.25,1.25,0,1,1,0-2.5h1.26A1.25,1.25,0,0,1,14.39,33.07Zm1.24,11.54a1.31,1.31,0,0,1-.88.36,1.36,1.36,0,0,1-.9-.36,1.31,1.31,0,0,1-.37-.89,1.26,1.26,0,0,1,.37-.89,1.3,1.3,0,0,1,1.78,0,1.27,1.27,0,0,1,.38.89A1.29,1.29,0,0,1,15.63,44.61Z"/><path class="cls-2" d="M51,23.3l-.35.35h0Zm-.35-1.14-.49-.08h0Zm.08-.22.44.24,0,0v0Zm.11-.22-.38-.32,0,.05,0,.06Zm.16-.2-.35-.36h0Zm.41-.26-.19-.46h0Zm1.38.26-.35.35h0Zm.15.2-.42.26v0Zm.12.22.47-.16v0l0,0Zm.07.22-.49.09v.05Zm-.34,1.14.35.35h0Zm-8.5-7.46.08.49h.08Zm-.51,0-.15.49h.08Zm-.22-.07.22-.44,0,0h0Zm-.23-.11-.31.39,0,0h0Zm-.19-.15-.36.34,0,0,0,0Zm-.26-1.37-.46-.2h0Zm.26-.41-.35-.36h0Zm1.79,0,.36-.34v0h0Zm0,1.78.31.4h0l0,0Zm-.19.15.28.42h0Zm21,19.54-.35-.34Zm-.46.28L65.15,35h0Zm-.11,0,.13.49h0Zm-.37.06,0,.5h.06v-.5Zm0,0,0,.5h0v-.5Zm-.24-.07-.12.49h0Zm-.18,0-.19.46h0Zm-.49-.36.38-.32v0l0,0Zm-5-4.92-.35.35h0Zm0-1.76.35.34h0Zm1.79,0-.35.34h0Zm2.83,2.8-.35.35.93.93-.08-1.31ZM54.75,11.8l.35-.35h0Zm-42.85,0-.35-.35h0Zm0,42.53-.35.36h0Zm26.8,8.33.09.5h0Zm1.47,1,.49-.09h0Zm-1,1.46-.09-.49h0Zm-29-9-.35.35h0Zm0-46.07.35.35h0Zm46.42,0,.35-.35h0Zm9.54,21.32-.5,0,.06,1.11.79-.8Zm3-2.93.35.34h0Zm1.79,0-.35.34h0Zm0,1.76.35.35h0Zm-36.24-.65h-.5v.35l.33.12Zm-4.82,4.78.47-.17-.12-.33h-.35Zm0-2.5v.5h.35l.12-.34Zm2.29-2.28.17.47.33-.12v-.35Zm-9.21-13.7.08.49H23Zm-1.15-.33-.36.34h0Zm-.27-1.36.46.19h0Zm.27-.42-.35-.36h0Zm1.79,0,.35-.34h0Zm.27.41.47-.19h0Zm-.27,1.37.31.4h0l0,0Zm-.19.15.28.42h0ZM23.76,52l-.46-.19h0Zm-.27.4L23.14,52h0Zm-1.79,0,.35-.35h0Zm-.27-.4.47-.18h0Zm.27-1.35.35.35h0Zm-8-28.92.42.28v0h0Zm.15-.2.35.37h0Zm.4-.26-.19-.46h0Zm1.38.26-.36.35v0h0Zm.16.2.45-.22,0-.06,0,0Zm.11.22-.47.17v0l0,0Zm.08.22.5-.07h0Zm-.35,1.14L15.28,23Zm-1.38.27-.19.45h0Zm-.4-.27-.35.35h0Zm-.34-1.14.48.14v-.05Zm.34,22.45L13.5,45h0Zm0-1.78.35.35h0Zm1.78,0-.35.35h0ZM60.09,70.5A14.35,14.35,0,0,0,74.48,56.22h-1A13.35,13.35,0,0,1,60.09,69.5ZM74.48,56.22A14.34,14.34,0,0,0,60.09,41.94v1A13.35,13.35,0,0,1,73.48,56.22ZM60.09,41.94A14.34,14.34,0,0,0,45.7,56.22h1A13.34,13.34,0,0,1,60.09,42.94ZM45.71,56.22A14.35,14.35,0,0,0,60.1,70.5v-1A13.36,13.36,0,0,1,46.71,56.22Zm30.29,0A15.87,15.87,0,0,1,60.09,72v1A16.87,16.87,0,0,0,77,56.22ZM60.09,72A15.87,15.87,0,0,1,44.18,56.22h-1A16.88,16.88,0,0,0,60.09,73ZM44.18,56.22A15.87,15.87,0,0,1,60.09,40.43v-1A16.87,16.87,0,0,0,43.18,56.22Zm15.91-15.8A15.87,15.87,0,0,1,76,56.21h1A16.87,16.87,0,0,0,60.09,39.42Zm-5.3-8.1a.75.75,0,0,1,.76.75h1a1.75,1.75,0,0,0-1.76-1.75Zm.76.75a.76.76,0,0,1-.76.75v1a1.75,1.75,0,0,0,1.76-1.75Zm-.76.75H53.53v1h1.26Zm-1.27,0a.76.76,0,0,1-.76-.75h-1a1.75,1.75,0,0,0,1.76,1.75Zm-.76-.75a.75.75,0,0,1,.76-.75v-1a1.75,1.75,0,0,0-1.76,1.75Zm.76-.75h1.26v-1H53.52Zm-1.9-9.21a.53.53,0,0,1-.24-.17l-.7.72a1.84,1.84,0,0,0,.57.38ZM51.38,23a.76.76,0,0,1-.23-.54h-1a1.79,1.79,0,0,0,.52,1.24Zm-.23-.54s0-.08,0-.18l-1-.14a2.69,2.69,0,0,0,0,.32Zm0-.16a.19.19,0,0,1,0-.09l-.89-.46a1.9,1.9,0,0,0-.13.38Zm.06-.16s0,0,0,0,0,0,0,0,0,0,0,0l0-.08-.9-.43,0,.08a1.79,1.79,0,0,0-.09.19Zm0-.05a.72.72,0,0,1,.13-.15l-.7-.71a1.12,1.12,0,0,0-.19.22Zm.13-.15a1,1,0,0,1,.24-.17l-.38-.93a1.75,1.75,0,0,0-.57.37Zm.25-.16a.8.8,0,0,1,.84.15l.71-.71a1.79,1.79,0,0,0-1.92-.37Zm.84.16a.24.24,0,0,1,.08.09l.84-.54c-.06-.08-.13-.18-.22-.28Zm.08.09.1.18.89-.46c0-.05-.08-.16-.15-.26Zm.07.11a.57.57,0,0,1,0,.16l1-.17a2.24,2.24,0,0,0-.08-.31Zm0,.21v.11h1a1.67,1.67,0,0,0,0-.39Zm0,.11a.76.76,0,0,1-.22.54l.71.71a1.73,1.73,0,0,0,.51-1.23h-1Zm-.22.54a.79.79,0,0,1-.54.23v1a1.8,1.8,0,0,0,1.25-.52Zm-.54.21a.77.77,0,0,1-.29-.05l-.39.91a1.64,1.64,0,0,0,.67.14v-1Zm-7.6-7.83h-.08l-.08,0,.3,1s0,0,.1,0a1,1,0,0,0,.2-.09Zm-.08,0h-.18v1a1.61,1.61,0,0,0,.33,0Zm-.17,0h-.18l-.15,1a1.61,1.61,0,0,0,.33,0v-1Zm-.11,0h-.08a.06.06,0,0,0,0,0h0l-.44.9.2.09.1,0Zm-.22-.07a.31.31,0,0,1-.11-.05l-.55.83a1.63,1.63,0,0,0,.35.17Zm-.07,0-.19-.15-.61.79.18.15Zm-.14-.1a.8.8,0,0,1-.23-.55h-1a1.86,1.86,0,0,0,.5,1.24Zm-.23-.54a.79.79,0,0,1,.07-.3L42.43,14a1.86,1.86,0,0,0-.13.67Zm.07-.29a.72.72,0,0,1,.16-.24l-.71-.71a1.71,1.71,0,0,0-.37.56Zm.15-.25a.79.79,0,0,1,.54-.19.82.82,0,0,1,.54.19l.7-.71a1.87,1.87,0,0,0-2.5,0Zm1.08,0a.84.84,0,0,1,.23.54h1a1.77,1.77,0,0,0-.5-1.23Zm.23.54a.84.84,0,0,1-.23.56l.73.69a1.8,1.8,0,0,0,.5-1.24Zm-.17.5-.19.15.62.78.18-.15Zm-.16.13c-.05,0-.08.05-.11.05l.31.95a1.42,1.42,0,0,0,.35-.17ZM65.43,34.86a.69.69,0,0,1-.28.16l.34.95a1.71,1.71,0,0,0,.64-.4Zm-.3.16h-.07l.26,1a0,0,0,0,0,0,0h0a.12.12,0,0,0,.07,0l.11,0Zm0,0A.13.13,0,0,1,65,35l-.06,0h0v1a1.58,1.58,0,0,0,.45-.08Zm-.19.06h0v1h-.06s0,0,0,0h0s0,0,0,0h.11Zm0,0a.33.33,0,0,0-.14,0h0v1l.11,0h0a.24.24,0,0,1-.12,0Zm-.07,0h0l0,0-.09,0-.23,1,.09,0a.67.67,0,0,0,.24,0ZM64.69,35h-.13l-.36.93.17.05h.07Zm-.11,0a.84.84,0,0,1-.3-.22l-.77.64a1.8,1.8,0,0,0,.69.5Zm-.33-.25-5-4.92-.7.71,4.95,4.92Zm-5-4.93a.74.74,0,0,1,0-1.06l-.7-.7a1.74,1.74,0,0,0,0,2.48Zm0-1.06a.76.76,0,0,1,1.08,0l.71-.7a1.74,1.74,0,0,0-2.49,0Zm1.08,0,2.83,2.81.7-.71-2.83-2.8Zm3.68,2.43a30.56,30.56,0,0,0-9-19.76l-.7.71a29.53,29.53,0,0,1,8.66,19.11Zm-9-19.76a31,31,0,0,0-43.55,0l.7.71a30,30,0,0,1,42.14,0Zm-43.55,0a30.24,30.24,0,0,0-9,21.63h1a29.25,29.25,0,0,1,8.73-20.91Zm-9,21.63a30.25,30.25,0,0,0,9,21.62l.7-.72A29.23,29.23,0,0,1,3.52,33.06Zm9,21.62a31,31,0,0,0,27.24,8.47l-.17-1A30,30,0,0,1,12.26,54Zm27.24,8.47a.77.77,0,0,1,.89.61l1-.18a1.77,1.77,0,0,0-2-1.41Zm.88.61a.75.75,0,0,1-.62.87l.17,1a1.75,1.75,0,0,0,1.43-2Zm-.61.87a33.37,33.37,0,0,1-5.71.5v1a33.49,33.49,0,0,0,5.89-.52Zm-5.71.5a32.52,32.52,0,0,1-22.88-9.39l-.7.71a33.46,33.46,0,0,0,23.58,9.69ZM10.47,55.75A31.76,31.76,0,0,1,1,33.07H0A32.73,32.73,0,0,0,9.76,56.45ZM1,33.07a31.7,31.7,0,0,1,9.47-22.68l-.7-.71A32.75,32.75,0,0,0,0,33.07Zm9.47-22.68a32.51,32.51,0,0,1,45.71,0l.7-.71a33.51,33.51,0,0,0-47.12,0Zm45.71,0a32,32,0,0,1,9.4,21l1-.06a33.1,33.1,0,0,0-9.7-21.66ZM66.44,31.72l3-2.95-.7-.7-3,2.94Zm3-2.95a.76.76,0,0,1,1.08,0l.71-.7a1.74,1.74,0,0,0-2.49,0Zm1.08,0a.74.74,0,0,1,0,1.06l.71.71a1.74,1.74,0,0,0,0-2.48Zm0,1.06-5,5,.7.71,5.05-5ZM33.33,31.32a1.75,1.75,0,0,0-1.76,1.75h1a.75.75,0,0,1,.76-.75Zm-1.77,1.75a1.75,1.75,0,0,0,1.76,1.75v-1a.76.76,0,0,1-.76-.75Zm1.77,1.75a1.75,1.75,0,0,0,1.76-1.75h-1a.76.76,0,0,1-.76.75Zm1.76-1.75a1.75,1.75,0,0,0-1.76-1.75v1a.75.75,0,0,1,.76.75ZM34.42,30a3.24,3.24,0,0,1,2.19,3.06h1a4.23,4.23,0,0,0-2.86-4Zm2.19,3.06a3.28,3.28,0,0,1-3.29,3.26v1a4.29,4.29,0,0,0,4.29-4.26Zm-3.28,3.26a3.29,3.29,0,0,1-3.08-2.17l-.94.34a4.27,4.27,0,0,0,4,2.83v-1Zm-3.56-2.51H23.15v1h6.62Zm-6.62,0a.76.76,0,0,1-.76-.75h-1a1.75,1.75,0,0,0,1.76,1.75Zm-.77-.75a.75.75,0,0,1,.76-.75v-1a1.75,1.75,0,0,0-1.76,1.75Zm.77-.75h6.63v-1H23.15ZM30.24,32a3.26,3.26,0,0,1,2-2l-.33-.94a4.27,4.27,0,0,0-2.59,2.58Zm2.32-2.44V19h-1V29.54Zm0-10.59a.76.76,0,0,1,.76-.75v-1A1.75,1.75,0,0,0,31.56,19Zm.77-.75a.76.76,0,0,1,.76.75h1a1.75,1.75,0,0,0-1.76-1.75Zm.76.75V29.54h1V19Zm-.76-5.18a.75.75,0,0,1-.76-.75h-1a1.75,1.75,0,0,0,1.76,1.75ZM32.56,13V11.76h-1V13Zm0-1.25a.76.76,0,0,1,.76-.75V10a1.75,1.75,0,0,0-1.76,1.75Zm.77-.75a.76.76,0,0,1,.76.75h1A1.75,1.75,0,0,0,33.33,10Zm.76.75V13h1V11.76Zm0,1.25a.75.75,0,0,1-.76.75v1A1.75,1.75,0,0,0,35.09,13ZM22.85,15.33h-.08l-.08,0,.3,1s0,0,.1,0a1,1,0,0,0,.2-.09Zm-.08,0h-.18v1a1.61,1.61,0,0,0,.33,0Zm-.17,0a.8.8,0,0,1-.55-.23l-.68.73a1.82,1.82,0,0,0,1.24.5v-1Zm-.54-.21a.8.8,0,0,1-.23-.55h-1a1.86,1.86,0,0,0,.5,1.24Zm-.23-.54a.79.79,0,0,1,.06-.28L21,14a1.78,1.78,0,0,0-.14.67h1Zm.07-.29a.7.7,0,0,1,.15-.24l-.71-.71A1.72,1.72,0,0,0,21,14Zm.15-.25a.79.79,0,0,1,.54-.19.82.82,0,0,1,.54.19l.7-.71a1.87,1.87,0,0,0-2.5,0Zm1.09,0a.72.72,0,0,1,.16.24l.92-.39a1.88,1.88,0,0,0-.37-.56Zm.15.24a.79.79,0,0,1,.07.3h1a2.1,2.1,0,0,0-.13-.67Zm.07.3a.84.84,0,0,1-.23.56l.73.69a1.8,1.8,0,0,0,.5-1.24Zm-.17.5-.19.15.62.78.18-.15Zm-.16.13c-.05,0-.08.05-.11.05l.31.95a1.42,1.42,0,0,0,.35-.17ZM23.14,51a.74.74,0,0,1,.22.52h1a1.76,1.76,0,0,0-.51-1.23Zm.22.51a.71.71,0,0,1-.06.28l.92.39a1.6,1.6,0,0,0,.14-.67Zm-.07.3a.76.76,0,0,1-.15.25l.7.71a1.66,1.66,0,0,0,.38-.59Zm-.15.25a.77.77,0,0,1-.54.22v1a1.77,1.77,0,0,0,1.25-.51Zm-.54.22a.76.76,0,0,1-.54-.22l-.71.71a1.77,1.77,0,0,0,1.25.51Zm-.55-.22a.66.66,0,0,1-.15-.25l-.93.36a1.66,1.66,0,0,0,.38.59Zm-.16-.25a.79.79,0,0,1-.06-.28h-1a1.82,1.82,0,0,0,.14.67Zm-.06-.3a.73.73,0,0,1,.22-.52l-.71-.71a1.76,1.76,0,0,0-.51,1.23Zm.23-.51a.8.8,0,0,1,1.08,0l.71-.7a1.8,1.8,0,0,0-2.51,0Zm12,2.12v1.25h1V53.11Zm0,1.25a.76.76,0,0,1-.76.75v1a1.75,1.75,0,0,0,1.76-1.75Zm-.76.77a.76.76,0,0,1-.76-.75h-1a1.75,1.75,0,0,0,1.76,1.75Zm-.77-.77V53.11h-1v1.25Zm0-1.25a.76.76,0,0,1,.76-.75v-1a1.75,1.75,0,0,0-1.76,1.75Zm.77-.75a.76.76,0,0,1,.76.75h1a1.75,1.75,0,0,0-1.76-1.75ZM14,22.16a1.45,1.45,0,0,1,.1-.18l-.83-.55a3.08,3.08,0,0,0-.16.28Zm.1-.18.07-.09-.7-.72a1.49,1.49,0,0,0-.23.28Zm.08-.09a.6.6,0,0,1,.24-.16l-.38-.93a1.78,1.78,0,0,0-.57.38Zm.24-.16a.79.79,0,0,1,.83.15l.72-.7a1.78,1.78,0,0,0-1.92-.38Zm.84.16a.72.72,0,0,1,.13.15l.77-.64a2.49,2.49,0,0,0-.2-.24Zm.06.05,0,.08a.11.11,0,0,0,0,.05l0,0,.95-.32a.85.85,0,0,0-.09-.19l-.05-.1Zm.12.22a.19.19,0,0,1,0,.09l1-.17a1.39,1.39,0,0,0-.12-.38Zm0,.07c0,.1,0,.16,0,.18h1a2.69,2.69,0,0,0,0-.32Zm0,.18a.72.72,0,0,1-.23.53l.7.71a1.78,1.78,0,0,0,.53-1.24Zm-.24.54a.8.8,0,0,1-.53.23v1A1.79,1.79,0,0,0,16,23.66Zm-.53.21a.65.65,0,0,1-.31-.07l-.36.93a1.67,1.67,0,0,0,.67.14Zm-.3-.05a.53.53,0,0,1-.24-.17l-.7.71a1.65,1.65,0,0,0,.57.37ZM14.2,23a.73.73,0,0,1-.22-.52H13a1.71,1.71,0,0,0,.51,1.23ZM14,22.41V22.3L13,22a1.23,1.23,0,0,0,0,.39h1Zm0-.16,0-.16-.95-.32a2.24,2.24,0,0,0-.08.31Zm-.11,10.82a.76.76,0,0,1-.76.75v1a1.75,1.75,0,0,0,1.76-1.75Zm-.76.75H11.87v1h1.26Zm-1.26,0a.76.76,0,0,1-.76-.75h-1a1.75,1.75,0,0,0,1.76,1.75Zm-.77-.75a.75.75,0,0,1,.76-.75v-1a1.75,1.75,0,0,0-1.76,1.75Zm.77-.75h1.26v-1H11.87Zm1.26,0a.75.75,0,0,1,.76.75h1a1.75,1.75,0,0,0-1.76-1.75Zm2.15,11.93a.77.77,0,0,1-.53.22v1A1.82,1.82,0,0,0,16,45Zm-.54.22a.83.83,0,0,1-.55-.22l-.68.72a1.86,1.86,0,0,0,1.24.5v-1Zm-.54-.22a.77.77,0,0,1-.22-.53H13A1.75,1.75,0,0,0,13.49,45ZM14,43.72a.73.73,0,0,1,.22-.53l-.7-.72A1.75,1.75,0,0,0,13,43.72Zm.22-.53a.79.79,0,0,1,1.07,0l.71-.72a1.81,1.81,0,0,0-2.49,0Zm1.07,0a.75.75,0,0,1,.23.53h1A1.78,1.78,0,0,0,16,42.47Zm.24.53a.74.74,0,0,1-.23.53L16,45a1.78,1.78,0,0,0,.53-1.25Z"/><path class="cls-1" d="M55.28,51.5a4.31,4.31,0,0,1,1.51.25,3.51,3.51,0,0,1,1.19.69,3.38,3.38,0,0,1,.78,1A3,3,0,0,1,59,54.8a3.57,3.57,0,0,1-.12.92,3.26,3.26,0,0,1-.4.85,5.4,5.4,0,0,1-.73.84,10.48,10.48,0,0,1-1.11.89c-.39.28-.71.49-1,.64a4.6,4.6,0,0,0-.43.25h3.81v2.33H51.51V59.43l3.71-2.93a4.38,4.38,0,0,0,.84-.8,1.15,1.15,0,0,0,.25-.7,1,1,0,0,0-1-1,1,1,0,0,0-.81.35,1.52,1.52,0,0,0-.32,1H51.5a4.63,4.63,0,0,1,.26-1.58,3.37,3.37,0,0,1,.76-1.2,3.42,3.42,0,0,1,1.19-.76A4.66,4.66,0,0,1,55.28,51.5Zm4.58,6.41,3.93-6.2H67.1v5.81h1.41v2.14H67.1V61.5H64.56V59.66h-4.7Zm4.72-3.58v3.19H62.67Z"/></g></g></svg>