<svg xmlns="http://www.w3.org/2000/svg" viewBox="0 0 72 79.01"><defs><style>.cls-1,.cls-2{fill:#18c8ee;}.cls-1{fill-rule:evenodd;}</style></defs><title>Asset 1</title><g id="Layer_2" data-name="Layer 2"><g id="Layer_1-2" data-name="Layer 1"><path class="cls-1" d="M59.16,6.75H67.8a3.77,3.77,0,0,1,3.7,3.74V74.76a4.06,4.06,0,0,1-4,3.74H4.21a4.06,4.06,0,0,1-3.7-4.06V10.49a4,4,0,0,1,3.7-3.74h8.64V4.25A4,4,0,0,1,16.55.51h4.94a4,4,0,0,1,3.7,3.74v2.5H46.8V4.25a4.06,4.06,0,0,1,4-3.74h4.63a4,4,0,0,1,3.7,3.74v2.5Zm0,28.08H28.29V38H59.16ZM53,49.28H28.28V52.4H53ZM28.29,62.75H59.16v3.12H28.29ZM49.89,9.87V4.25a.67.67,0,0,1,.62-.62h4.63c.62,0,.93.31.93.62v7.8c0,.62-.31.94-.62.94H50.82c-.62,0-.93-.31-.93-.62ZM16.56,3.63a.67.67,0,0,0-.62.62v8.11a.67.67,0,0,0,.62.62H21.5c.31,0,.62-.31.62-.94V4.24c0-.31-.31-.62-.93-.62H16.56ZM68.42,74.76a.67.67,0,0,1-.62.62H4.21a.67.67,0,0,1-.62-.62V25.46H68.42ZM3.59,22.35H68.42V10.49a.67.67,0,0,0-.62-.62H59.16v2.5a4.06,4.06,0,0,1-4,3.74H50.52a4,4,0,0,1-3.7-3.74V9.87H25.21v2.5a4.06,4.06,0,0,1-4,3.74H16.57a4,4,0,0,1-3.7-3.74V9.87H4.23a.67.67,0,0,0-.62.62V22.35Zm10.3,46.87h6.57a1.55,1.55,0,0,0,1.64-1.65V61a1.56,1.56,0,0,0-1.64-1.65H13.89A1.55,1.55,0,0,0,12.25,61v6.58A1.55,1.55,0,0,0,13.89,69.22Zm5.26-6.91H15.21v4h3.94ZM13.89,41.58h6.57a1.55,1.55,0,0,0,1.64-1.65V33.35a1.56,1.56,0,0,0-1.64-1.65H13.89a1.55,1.55,0,0,0-1.64,1.65v6.58A1.56,1.56,0,0,0,13.89,41.58Zm5.26-6.91H15.21v3.95h3.94ZM13.89,55.4h6.57a1.55,1.55,0,0,0,1.64-1.65V47.17a1.56,1.56,0,0,0-1.64-1.65H13.89a1.55,1.55,0,0,0-1.64,1.65v6.58A1.56,1.56,0,0,0,13.89,55.4Zm5.26-6.91H15.21v3.95h3.94Z"/><path class="cls-2" d="M59.16,6.75h-.5v.5h.5Zm-46.31,0v.5h.5v-.5Zm12.35,0h-.5v.5h.5Zm21.61,0v.5h.5v-.5ZM28.29,34.83v-.5h-.5v.5Zm30.87,0h.5v-.5h-.5ZM28.29,38h-.5v.5h.5Zm30.87,0v.5h.5V38ZM28.29,49.28v-.5h-.5v.5Zm24.69,0h.5v-.5H53ZM28.29,52.4h-.5v.5h.5ZM53,52.4v.5h.5v-.5Zm6.18,10.35h.5v-.5h-.5Zm-30.87,0v-.5h-.5v.5Zm30.87,3.12v.5h.5v-.5Zm-30.87,0h-.5v.5h.5ZM3.59,25.47V25h-.5v.5Zm64.83,0h.5V25h-.5Zm0-3.12v.5h.5v-.5Zm-64.83,0h-.5v.5h.5ZM59.16,9.87v-.5h-.5v.5Zm-12.35,0h.5v-.5h-.5Zm-21.61,0v-.5h-.5v.5Zm-12.35,0h.5v-.5h-.5Zm2.36,52.44v-.5h-.5v.5Zm3.94,0h.5v-.5h-.5Zm-3.94,4h-.5v.5h.5Zm3.94,0v.5h.5v-.5ZM15.21,34.67v-.5h-.5v.5Zm3.94,0h.5v-.5h-.5Zm-3.94,3.95h-.5v.5h.5Zm3.94,0v.5h.5v-.5Zm-3.94,9.87V48h-.5v.5Zm3.94,0h.5V48h-.5Zm-3.94,3.95h-.5v.5h.5Zm3.94,0v.5h.5v-.5ZM67.8,6.25H59.16v1H67.8ZM72,10.49a4.27,4.27,0,0,0-4.2-4.24v1A3.27,3.27,0,0,1,71,10.49Zm0,64.27V10.49H71V74.76ZM67.49,79a4.59,4.59,0,0,0,3.16-1.31A4.17,4.17,0,0,0,72,74.76H71A3.17,3.17,0,0,1,70,77a3.64,3.64,0,0,1-2.47,1v1ZM4.21,79H67.49V78H4.21ZM0,74.45a4.71,4.71,0,0,0,1.29,3.19A4.09,4.09,0,0,0,4.2,79V78A3.09,3.09,0,0,1,2,77a3.69,3.69,0,0,1-1-2.51Zm0-64v64H1v-64ZM4.21,6.25a4.2,4.2,0,0,0-2.9,1.32A4.29,4.29,0,0,0,0,10.5H1A3.28,3.28,0,0,1,2,8.28a3.2,3.2,0,0,1,2.19-1Zm8.64,0H4.21v1h8.64Zm-.5-2v2.5h1V4.25ZM16.56,0a4.2,4.2,0,0,0-2.9,1.32,4.29,4.29,0,0,0-1.3,2.93h1a3.28,3.28,0,0,1,1-2.22,3.2,3.2,0,0,1,2.19-1Zm4.93,0H16.55V1h4.94ZM25.7,4.25a4.31,4.31,0,0,0-1.3-2.93A4.2,4.2,0,0,0,21.5,0V1a3.2,3.2,0,0,1,2.19,1,3.3,3.3,0,0,1,1,2.22h1Zm0,2.5V4.25h-1v2.5Zm21.11-.5H25.2v1H46.81Zm-.5-2v2.5h1V4.25ZM50.82,0a4.59,4.59,0,0,0-3.16,1.31,4.17,4.17,0,0,0-1.35,2.94h1a3.17,3.17,0,0,1,1-2.21,3.64,3.64,0,0,1,2.47-1V0Zm4.63,0H50.82V1h4.63Zm4.21,4.24a4.31,4.31,0,0,0-1.3-2.93A4.2,4.2,0,0,0,55.46,0V1a3.2,3.2,0,0,1,2.19,1,3.3,3.3,0,0,1,1,2.22h1Zm0,2.5V4.25h-1v2.5ZM28.29,35.33H59.16v-1H28.29Zm.5,2.62V34.83h-1V38Zm30.37-.5H28.29v1H59.16Zm-.5-2.62V38h1V34.83Zm-30.37,15H53v-1H28.29Zm.5,2.62V49.28h-1V52.4ZM53,51.9H28.28v1H53Zm-.5-2.62V52.4h1V49.28Zm6.68,13H28.29v1H59.16Zm.5,3.62V62.75h-1v3.12Zm-31.37.5H59.16v-1H28.29Zm-.5-3.62v3.12h1V62.75Zm21.6-58.5V9.87h1V4.25Zm1.12-1.12a1.15,1.15,0,0,0-.78.34,1.11,1.11,0,0,0-.34.78h1v0l0-.06.06,0s0,0,0,0v-1Zm4.63,0H50.51v1h4.63Zm1.43,1.12c0-.71-.67-1.12-1.43-1.12v1a.68.68,0,0,1,.39.09s0,0,0,0Zm0,7.8V4.25h-1v7.8Zm-1.12,1.44c.71,0,1.12-.68,1.12-1.44h-1a.75.75,0,0,1-.09.4c0,.05,0,0,0,0v1Zm-4.63,0h4.63v-1H50.82Zm-1.43-1.13c0,.71.67,1.12,1.43,1.12v-1a.68.68,0,0,1-.39-.09s0-.05,0,0Zm0-2.49v2.5h1V9.87ZM16.44,4.25v0l0-.06.06,0s0,0,0,0v-1a1.15,1.15,0,0,0-.78.34,1.11,1.11,0,0,0-.34.78h1Zm0,8.11V4.25h-1v8.11Zm.12.13s0,0,0,0l-.06,0,0-.06v0h-1a1.16,1.16,0,0,0,1.12,1.12Zm4.93,0H16.55v1h4.94Zm.12-.44a.75.75,0,0,1-.09.4c0,.05-.05,0,0,0v1c.71,0,1.12-.68,1.12-1.44h-1Zm0-7.8v7.8h1V4.25Zm-.42-.12a.68.68,0,0,1,.39.09s0,0,0,0h1c0-.71-.67-1.12-1.43-1.12v1Zm-4.63,0h4.63v-1H16.56ZM67.8,75.89a1.15,1.15,0,0,0,.78-.34,1.11,1.11,0,0,0,.34-.78h-1v0a.21.21,0,0,1,0,.06l-.06,0h0v1Zm-63.59,0H67.8v-1H4.21ZM3.09,74.76a1.16,1.16,0,0,0,1.12,1.12v-1h0l-.06,0a.21.21,0,0,1,0-.06v0h-1Zm0-49.29v49.3h1V25.47ZM68.42,25H3.59v1H68.42Zm.5,49.79V25.46h-1v49.3Zm-.5-52.91H3.59v1H68.42Zm-.5-11.36V22.35h1V10.49Zm-.12-.12h0l.06,0,0,.06v0h1A1.16,1.16,0,0,0,67.8,9.38v1Zm-8.64,0H67.8v-1H59.16Zm.5,2V9.86h-1v2.5Zm-4.52,4.25A4.59,4.59,0,0,0,58.3,15.3a4.17,4.17,0,0,0,1.35-2.94h-1a3.17,3.17,0,0,1-1,2.21,3.64,3.64,0,0,1-2.47,1v1Zm-4.63,0h4.63v-1H50.51Zm-4.2-4.25a4.31,4.31,0,0,0,1.3,2.93,4.2,4.2,0,0,0,2.9,1.32v-1a3.2,3.2,0,0,1-2.19-1,3.3,3.3,0,0,1-1-2.22h-1Zm0-2.49v2.5h1V9.87Zm-21.11.5H46.81v-1H25.2Zm.5,2V9.86h-1v2.5Zm-4.51,4.25a4.59,4.59,0,0,0,3.16-1.31,4.17,4.17,0,0,0,1.35-2.94h-1a3.17,3.17,0,0,1-1,2.21,3.64,3.64,0,0,1-2.47,1Zm-4.63,0h4.63v-1H16.56Zm-4.21-4.25a4.31,4.31,0,0,0,1.3,2.93,4.2,4.2,0,0,0,2.9,1.32v-1a3.2,3.2,0,0,1-2.19-1,3.3,3.3,0,0,1-1-2.22h-1Zm0-2.49v2.5h1V9.87Zm-8.14.5h8.64v-1H4.21Zm-.12.12v0l0-.06.06,0h0v-1a1.15,1.15,0,0,0-.78.34,1.11,1.11,0,0,0-.34.78h1Zm0,11.86V10.49h-1V22.35ZM20.47,68.72H13.9v1h6.57Zm1.14-1.14a1.12,1.12,0,0,1-.31.84,1.16,1.16,0,0,1-.84.31v1a2.13,2.13,0,0,0,1.55-.6,2.16,2.16,0,0,0,.6-1.55Zm0-6.58v6.58h1V61Zm-1.14-1.15a1.12,1.12,0,0,1,.84.31,1.16,1.16,0,0,1,.31.84h1a2.13,2.13,0,0,0-.6-1.55,2.16,2.16,0,0,0-1.55-.6Zm-6.58,0h6.57v-1H13.89ZM12.75,61a1.12,1.12,0,0,1,.31-.84,1.16,1.16,0,0,1,.84-.31v-1a2.13,2.13,0,0,0-1.55.6,2.16,2.16,0,0,0-.6,1.55Zm0,6.58V61h-1v6.58Zm1.14,1.14a1.12,1.12,0,0,1-.84-.31,1.16,1.16,0,0,1-.31-.84h-1a2.13,2.13,0,0,0,.6,1.55,2.16,2.16,0,0,0,1.55.6Zm1.32-5.91h3.94v-1H15.21Zm.5,3.45v-4h-1v4Zm3.44-.5H15.21v1h3.94Zm-.5-3.45v4h1v-4Zm1.82-21.23H13.9v1h6.57Zm1.14-1.15a1.12,1.12,0,0,1-.31.84,1.16,1.16,0,0,1-.84.31v1a2.13,2.13,0,0,0,1.55-.6,2.16,2.16,0,0,0,.6-1.55Zm0-6.58v6.58h1V33.35Zm-1.14-1.14a1.12,1.12,0,0,1,.84.31,1.16,1.16,0,0,1,.31.84h1a2.13,2.13,0,0,0-.6-1.55,2.16,2.16,0,0,0-1.55-.6Zm-6.58,0h6.57v-1H13.89Zm-1.14,1.14a1.12,1.12,0,0,1,.31-.84,1.16,1.16,0,0,1,.84-.31v-1a2.13,2.13,0,0,0-1.55.6,2.16,2.16,0,0,0-.6,1.55Zm0,6.58V33.35h-1v6.58Zm1.14,1.15a1.12,1.12,0,0,1-.84-.31,1.16,1.16,0,0,1-.31-.84h-1a2.13,2.13,0,0,0,.6,1.55,2.16,2.16,0,0,0,1.55.6Zm1.32-5.91h3.94v-1H15.21Zm.5,3.45V34.67h-1v3.95Zm3.44-.5H15.21v1h3.94Zm-.5-3.45v3.95h1V34.67ZM20.47,54.9H13.9v1h6.57Zm1.14-1.14a1.12,1.12,0,0,1-.31.84,1.17,1.17,0,0,1-.84.31v1a2.13,2.13,0,0,0,1.55-.6,2.16,2.16,0,0,0,.6-1.55Zm0-6.59v6.58h1V47.17ZM20.47,46a1.12,1.12,0,0,1,.84.31,1.16,1.16,0,0,1,.31.84h1a2.13,2.13,0,0,0-.6-1.55,2.16,2.16,0,0,0-1.55-.6Zm-6.58,0h6.57V45H13.89Zm-1.14,1.14a1.12,1.12,0,0,1,.31-.84A1.16,1.16,0,0,1,13.9,46V45a2.13,2.13,0,0,0-1.55.6,2.16,2.16,0,0,0-.6,1.55Zm0,6.59V47.18h-1v6.58Zm1.14,1.14a1.12,1.12,0,0,1-.84-.31,1.16,1.16,0,0,1-.31-.84h-1a2.13,2.13,0,0,0,.6,1.55,2.16,2.16,0,0,0,1.55.6ZM15.21,49h3.94V48H15.21Zm.5,3.45V48.49h-1v3.95Zm3.44-.5H15.21v1h3.94Zm-.5-3.45v3.95h1V48.49Z"/></g></g></svg>