<?xml version="1.0" encoding="utf-8"?>
<!-- Generator: Adobe Illustrator 24.0.3, SVG Export Plug-In . SVG Version: 6.00 Build 0)  -->
<svg version="1.1" id="Layer_1" xmlns="http://www.w3.org/2000/svg" xmlns:xlink="http://www.w3.org/1999/xlink" x="0px" y="0px"
	 viewBox="0 0 112 112" style="enable-background:new 0 0 112 112;" xml:space="preserve">
<style type="text/css">
	.st0{fill:#194a79;}
</style>
<g>
	<path class="st0" d="M49.94,36.2c-11.93,0-23.75,0-35.62,0c0,1.46,0,2.83,0,4.25c11.9,0,23.75,0,35.62,0
		C49.94,39,49.94,37.66,49.94,36.2z"/>
	<path class="st0" d="M49.94,69.28c-11.9,0-23.73,0-35.62,0c0,1.46,0,2.82,0,4.26c11.91,0,23.76,0,35.62,0
		C49.94,72.06,49.94,70.7,49.94,69.28z"/>
	<path class="st0" d="M49.94,47.26c-11.92,0-23.77,0-35.63,0c0,1.43,0,2.76,0,4.17c11.96,0,23.8,0,35.63,0
		C49.94,49.95,49.94,48.59,49.94,47.26z"/>
	<path class="st0" d="M14.35,84.54c15.98,0,31.87,0,47.81,0c0-1.42,0-2.75,0-4.2c-16.01,0-31.9,0-47.81,0
		C14.35,81.8,14.35,83.16,14.35,84.54z"/>
	<path class="st0" d="M49.94,62.5c0-1.44,0-2.76,0-4.19c-11.95,0-23.75,0-35.61,0c0,1.45,0,2.81,0,4.19
		C26.25,62.5,38.09,62.5,49.94,62.5z"/>
	<path class="st0" d="M14.34,95.63c16.01,0,31.87,0,47.82,0c0-1.45,0-2.82,0-4.22c-16.01,0-31.87,0-47.82,0
		C14.34,92.86,14.34,94.22,14.34,95.63z"/>
	<path class="st0" d="M107.09,81.35c-3.18-3.17-6.36-6.33-9.54-9.49c-0.18-0.18-0.35-0.38-0.53-0.56
		c8.19-10.5,5.29-24.25-3.33-31.22c-3.32-2.68-7.14-4.27-11.04-4.81c0-2.39,0-4.77,0-7.16c0-2.63-0.84-4.78-2.72-6.64
		c-5.29-5.21-10.54-10.46-15.75-15.75C62.32,3.83,60.17,2.99,57.54,3C42.02,3.03,26.5,3.01,10.98,3.02c-5.18,0-7.8,2.64-7.8,7.81
		c0,15.01,0,30.01,0,45.02c0,15.11,0,30.22,0,45.33c0,4.96,2.66,7.62,7.64,7.62c21.4,0,42.8,0,64.2,0c4.93,0,7.62-2.71,7.62-7.67
		c0-7.25,0-14.49,0-21.74c3.79-0.53,7.58-2.05,11.02-4.73c0.17,0.24,0.31,0.47,0.49,0.66c3.1,3.11,6.21,6.21,9.32,9.31
		c0.24,0.24,0.48,0.47,0.75,0.67c0.85,0.63,1.89,0.62,2.73-0.02C108.29,84.26,108.36,82.61,107.09,81.35z M62.81,11.01
		c3.97,3.97,7.81,7.81,11.83,11.83c-1.23,0-2.37,0-3.52,0c-1.96,0-3.92,0.01-5.87-0.01c-1.35-0.02-2.38-0.59-2.42-2.04
		C62.76,17.56,62.81,14.32,62.81,11.01z M74.67,104.39c-21.19,0-42.39,0-63.58,0c-2.79,0-3.51-0.69-3.51-3.44
		c0-30.01,0-60.02,0-90.04c0-2.67,0.7-3.43,3.19-3.43c15.42-0.01,30.84,0,46.26,0c0.35,0,0.71,0.04,1.28,0.07c0,4.07,0,7.98,0,11.89
		c0,5.28,2.62,7.9,7.87,7.91c3.82,0.01,7.63,0.01,11.45,0.02c0.1,0,0.19,0.05,0.47,0.12c0.03,0.48,0.08,1.02,0.08,1.56
		c0,2.02,0,4.03,0,6.05c-5.3,0.33-10.45,2.55-14.41,6.54c-8.02,8.08-8.65,20.92-1.4,29.84c3.87,4.76,9.66,7.68,15.82,8.07
		c0,7.09,0,14.19,0,21.28C78.18,103.78,77.56,104.39,74.67,104.39z M79.64,74.81c-9.55,0.06-17.46-7.82-17.49-17.43
		C62.13,47.81,70,39.92,79.6,39.9c9.59-0.03,17.42,7.78,17.47,17.44C97.12,66.91,89.3,74.74,79.64,74.81z"/>
	<path class="st0" d="M71.79,46.59c-3.33,2.53-5.19,5.88-5.51,9.91c0,0.32,0,0.49,0,0.66c0.02,1.36,0.86,2.29,2.06,2.29
		c1.17,0,2.02-0.89,2.1-2.19c0.03-0.53,0.05-1.06,0.15-1.57c0.48-2.4,1.7-4.34,3.67-5.81c0.97-0.73,1.15-2.01,0.47-2.93
		C74.03,46.02,72.76,45.85,71.79,46.59z"/>
	<path class="st0" d="M82.75,44.43c-1.02-0.22-2.08-0.36-3.12-0.4c-1.16-0.04-2.03,0.85-2.08,1.95c-0.05,1.18,0.71,2.03,1.92,2.17
		c0.81,0.1,1.61,0.21,2.42,0.33c1.24,0.18,2.39-0.83,2.37-2.1C84.24,45.47,83.67,44.62,82.75,44.43z"/>
</g>
</svg>
