<?xml version="1.0" encoding="utf-8"?>
<!-- Generator: Adobe Illustrator 24.0.3, SVG Export Plug-In . SVG Version: 6.00 Build 0)  -->
<svg version="1.1" id="Layer_1" xmlns="http://www.w3.org/2000/svg" xmlns:xlink="http://www.w3.org/1999/xlink" x="0px" y="0px"
	 viewBox="0 0 72 64" style="enable-background:new 0 0 72 64;" xml:space="preserve">
<style type="text/css">
	.st0{fill:#194a79;}
</style>
<g>
	<path class="st0" d="M64.78,63.51H6.33c-3.45,0-6.25-2.81-6.25-6.25V18.62c0-3.45,2.81-6.25,6.25-6.25h58.44
		c3.45,0,6.25,2.81,6.25,6.25v38.64C71.03,60.71,68.22,63.51,64.78,63.51z M6.33,15.52c-1.71,0-3.1,1.39-3.1,3.1v38.64
		c0,1.71,1.39,3.1,3.1,3.1h58.44c1.71,0,3.1-1.39,3.1-3.1V18.62c0-1.71-1.39-3.1-3.1-3.1H6.33z"/>
</g>
<g>
	<path class="st0" d="M52.92,15.52H18.19V6.96c0-3.45,2.81-6.25,6.25-6.25h22.22c3.45,0,6.25,2.81,6.25,6.25V15.52z M21.34,12.37
		h28.42V6.96c0-1.71-1.39-3.1-3.1-3.1H24.45c-1.71,0-3.1,1.39-3.1,3.1V12.37z"/>
</g>
<g>
	<path class="st0" d="M47,15.52h-22.9v-4.55c0-2.48,2.02-4.5,4.5-4.5H42.5c2.48,0,4.5,2.02,4.5,4.5V15.52z M27.26,12.37h16.59v-1.4
		c0-0.74-0.6-1.35-1.35-1.35H28.61c-0.74,0-1.35,0.6-1.35,1.35V12.37z"/>
</g>
<g>
	<path class="st0" d="M40.36,44.91h-9.62c-3.45,0-6.25-2.81-6.25-6.25v-1.43c0-3.45,2.81-6.25,6.25-6.25h9.62
		c3.45,0,6.25,2.81,6.25,6.25v1.43C46.62,42.11,43.81,44.91,40.36,44.91z M30.75,34.13c-1.71,0-3.1,1.39-3.1,3.1v1.43
		c0,1.71,1.39,3.1,3.1,3.1h9.62c1.71,0,3.1-1.39,3.1-3.1v-1.43c0-1.71-1.39-3.1-3.1-3.1H30.75z"/>
</g>
<g>
	<path class="st0" d="M64.78,12.37H6.33c-3.45,0-6.25,2.81-6.25,6.25v15.25c0,3.45,2.81,6.25,6.25,6.25h20.15
		c-0.49-0.95-0.54-2.14-0.14-3.15H6.33c-1.71,0-3.1-1.39-3.1-3.1V18.62c0-1.71,1.39-3.1,3.1-3.1h58.44c1.71,0,3.1,1.39,3.1,3.1
		v15.25c0,1.71-1.39,3.1-3.1,3.1H44.82c0.47,1,0.46,2.18,0.07,3.15h19.89c3.45,0,6.25-2.81,6.25-6.25V18.62
		C71.03,15.18,68.22,12.37,64.78,12.37z"/>
</g>
</svg>
