<svg xmlns="http://www.w3.org/2000/svg" viewBox="0 0 54 42">
<style type="text/css">
	.st0{fill:none;stroke:#194a79;stroke-width:2;stroke-miterlimit:10;}
</style>
<path class="st0" d="M10.24,5.83h23c1.66,0,3,1.34,3,3v14c0,1.66-1.34,3-3,3h-13l-4.2,5.6c-0.58,0.77-1.8,0.36-1.8-0.6v-5h-4
	c-1.66,0-3-1.34-3-3v-14C7.24,7.17,8.58,5.83,10.24,5.83z"/>
<path class="st0" d="M24.24,27.83v1c0,1.66,1.34,3,3,3h8l4.24,4.95c0.6,0.7,1.76,0.28,1.76-0.65v-4.3h3c1.66,0,3-1.34,3-3v-14
	c0-1.66-1.34-3-3-3h-6"/>
</svg>
