<?xml version="1.0" encoding="utf-8"?>
<!-- Generator: Adobe Illustrator 24.0.3, SVG Export Plug-In . SVG Version: 6.00 Build 0)  -->
<svg version="1.1" id="Layer_1" xmlns="http://www.w3.org/2000/svg" xmlns:xlink="http://www.w3.org/1999/xlink" x="0px" y="0px"
	 viewBox="0 0 70 104" style="enable-background:new 0 0 70 104;" xml:space="preserve">
<style type="text/css">
	.st0{fill:#194a79;}
</style>
<g id="XMLID_16758_">
	<g id="XMLID_16763_">
		<g id="XMLID_16819_">
			<path id="XMLID_1903_" class="st0" d="M55.98,54.53H14.02c-0.64,0-1.16-0.52-1.16-1.16c0-0.64,0.52-1.16,1.16-1.16h41.96
				c0.64,0,1.16,0.52,1.16,1.16C57.14,54.01,56.62,54.53,55.98,54.53z"/>
		</g>
		<g id="XMLID_16818_">
			<path id="XMLID_1902_" class="st0" d="M55.98,61.81c-0.64,0-1.16-0.52-1.16-1.16V48.27c0-3.87-1.37-7.64-3.97-10.91
				c-2.52-3.17-6.07-5.74-10.28-7.44H29.43c-4.21,1.7-7.76,4.26-10.28,7.44c-2.6,3.27-3.97,7.04-3.97,10.91v12.38
				c0,0.64-0.52,1.16-1.16,1.16c-0.64,0-1.16-0.52-1.16-1.16V48.27c0-4.4,1.55-8.67,4.47-12.35c2.81-3.54,6.77-6.39,11.45-8.23
				c0.14-0.05,0.28-0.08,0.43-0.08h11.58c0.15,0,0.29,0.03,0.43,0.08c4.68,1.84,8.64,4.69,11.45,8.23
				c2.93,3.68,4.47,7.95,4.47,12.35v12.38C57.14,61.29,56.62,61.81,55.98,61.81z"/>
		</g>
		<g id="XMLID_16817_">
			<path id="XMLID_1901_" class="st0" d="M20.96,49.43c-0.64,0-1.15-0.51-1.16-1.15c-0.03-3,0.82-5.98,2.47-8.62
				c1.63-2.61,4.01-4.86,6.89-6.49c0.56-0.32,1.27-0.12,1.58,0.44c0.32,0.56,0.12,1.27-0.44,1.58c-5.18,2.94-8.25,7.83-8.19,13.07
				c0.01,0.64-0.51,1.17-1.15,1.17C20.97,49.43,20.97,49.43,20.96,49.43z"/>
		</g>
		<g id="XMLID_16816_">
			<path id="XMLID_1900_" class="st0" d="M48.97,49.43c0,0-0.01,0-0.01,0c-0.64-0.01-1.16-0.53-1.15-1.17
				c0.06-5.24-3-10.12-8.19-13.07c-0.56-0.32-0.75-1.03-0.44-1.58c0.32-0.56,1.03-0.75,1.58-0.44c2.88,1.63,5.26,3.88,6.89,6.49
				c1.65,2.65,2.51,5.63,2.47,8.62C50.13,48.92,49.61,49.43,48.97,49.43z"/>
		</g>
		<g id="XMLID_16815_">
			<path id="XMLID_1899_" class="st0" d="M35,12.51c-0.64,0-1.16-0.52-1.16-1.16V3.33c0-0.64,0.52-1.16,1.16-1.16
				c0.64,0,1.16,0.52,1.16,1.16v8.03C36.16,11.99,35.64,12.51,35,12.51z"/>
		</g>
		<g id="XMLID_16814_">
			<path id="XMLID_1898_" class="st0" d="M40.72,18.27c-0.64,0-1.16-0.52-1.16-1.16c0-2.53-2.06-4.59-4.59-4.59
				c-2.53,0-4.59,2.06-4.59,4.59c0,0.64-0.52,1.16-1.16,1.16c-0.64,0-1.16-0.52-1.16-1.16c0-3.81,3.1-6.92,6.92-6.92
				c3.81,0,6.92,3.1,6.92,6.92C41.88,17.75,41.36,18.27,40.72,18.27z"/>
		</g>
		<g id="XMLID_16813_">
			<path id="XMLID_1897_" class="st0" d="M35,49.43c-0.64,0-1.16-0.52-1.16-1.16V38.22c0-0.64,0.52-1.16,1.16-1.16
				c0.64,0,1.16,0.52,1.16,1.16v10.05C36.16,48.91,35.64,49.43,35,49.43z"/>
		</g>
		<g id="XMLID_16810_">
			<path id="XMLID_1894_" class="st0" d="M41.92,18.27h-13.9c-0.64,0-1.16-0.52-1.16-1.16c0-0.64,0.52-1.16,1.16-1.16h13.9
				c0.64,0,1.16,0.52,1.16,1.16C43.08,17.75,42.56,18.27,41.92,18.27z"/>
		</g>
		<g id="XMLID_16807_">
			<g id="XMLID_16809_">
				<path id="XMLID_1893_" class="st0" d="M29.21,29.93c-0.64,0-1.16-0.52-1.16-1.16V17.11c0-0.64,0.52-1.16,1.16-1.16
					c0.64,0,1.16,0.52,1.16,1.16v11.66C30.37,29.41,29.85,29.93,29.21,29.93z"/>
			</g>
			<g id="XMLID_16808_">
				<path id="XMLID_1892_" class="st0" d="M40.72,29.93c-0.64,0-1.16-0.52-1.16-1.16V17.11c0-0.64,0.52-1.16,1.16-1.16
					c0.64,0,1.16,0.52,1.16,1.16v11.66C41.88,29.41,41.36,29.93,40.72,29.93z"/>
			</g>
		</g>
		<g id="XMLID_16804_">
			<g id="XMLID_16806_">
				<path id="XMLID_1891_" class="st0" d="M33.18,26.93c-0.64,0-1.16-0.52-1.16-1.16v-5.44c0-0.64,0.52-1.16,1.16-1.16
					c0.64,0,1.16,0.52,1.16,1.16v5.44C34.34,26.41,33.82,26.93,33.18,26.93z"/>
			</g>
			<g id="XMLID_16805_">
				<path id="XMLID_1890_" class="st0" d="M36.76,26.93c-0.64,0-1.16-0.52-1.16-1.16v-5.44c0-0.64,0.52-1.16,1.16-1.16
					c0.64,0,1.16,0.52,1.16,1.16v5.44C37.92,26.41,37.4,26.93,36.76,26.93z"/>
			</g>
		</g>
		<g id="XMLID_16803_">
			<path id="XMLID_1889_" class="st0" d="M59.14,61.81h-48.3c-0.64,0-1.16-0.52-1.16-1.16c0-0.64,0.52-1.16,1.16-1.16h48.3
				c0.64,0,1.16,0.52,1.16,1.16C60.31,61.29,59.79,61.81,59.14,61.81z"/>
		</g>
		<g id="XMLID_16795_">
			<path id="XMLID_1880_" class="st0" d="M55.98,73.79H14.02c-0.64,0-1.16-0.52-1.16-1.16V60.65c0-0.64,0.52-1.16,1.16-1.16h41.96
				c0.64,0,1.16,0.52,1.16,1.16v11.98C57.14,73.27,56.62,73.79,55.98,73.79z M15.18,71.47h39.64v-9.66H15.18V71.47z"/>
		</g>
		<g id="XMLID_16794_">
			<path id="XMLID_1879_" class="st0" d="M18.31,70.17c-0.64,0-1.16-0.52-1.16-1.16v-4.77c0-0.64,0.52-1.16,1.16-1.16
				c0.64,0,1.16,0.52,1.16,1.16V69C19.47,69.65,18.95,70.17,18.31,70.17z"/>
		</g>
		<g id="XMLID_16793_">
			<path id="XMLID_1878_" class="st0" d="M24.98,70.17c-0.64,0-1.16-0.52-1.16-1.16v-4.77c0-0.64,0.52-1.16,1.16-1.16
				c0.64,0,1.16,0.52,1.16,1.16V69C26.14,69.65,25.62,70.17,24.98,70.17z"/>
		</g>
		<g id="XMLID_16792_">
			<path id="XMLID_1877_" class="st0" d="M31.66,70.17c-0.64,0-1.16-0.52-1.16-1.16v-4.77c0-0.64,0.52-1.16,1.16-1.16
				c0.64,0,1.16,0.52,1.16,1.16V69C32.82,69.65,32.3,70.17,31.66,70.17z"/>
		</g>
		<g id="XMLID_16791_">
			<path id="XMLID_1876_" class="st0" d="M38.33,70.17c-0.64,0-1.16-0.52-1.16-1.16v-4.77c0-0.64,0.52-1.16,1.16-1.16
				c0.64,0,1.16,0.52,1.16,1.16V69C39.49,69.65,38.97,70.17,38.33,70.17z"/>
		</g>
		<g id="XMLID_16790_">
			<path id="XMLID_1875_" class="st0" d="M45.01,70.17c-0.64,0-1.16-0.52-1.16-1.16v-4.77c0-0.64,0.52-1.16,1.16-1.16
				c0.64,0,1.16,0.52,1.16,1.16V69C46.17,69.65,45.65,70.17,45.01,70.17z"/>
		</g>
		<g id="XMLID_16789_">
			<path id="XMLID_1874_" class="st0" d="M51.68,70.17c-0.64,0-1.16-0.52-1.16-1.16v-4.77c0-0.64,0.52-1.16,1.16-1.16
				c0.64,0,1.16,0.52,1.16,1.16V69C52.85,69.65,52.33,70.17,51.68,70.17z"/>
		</g>
		<g id="XMLID_16779_">
			<g id="XMLID_16788_">
				<path id="XMLID_1871_" class="st0" d="M10.18,103h-4.3c-0.64,0-1.16-0.52-1.16-1.16V77.4c0-0.64,0.52-1.16,1.16-1.16h4.3
					c0.64,0,1.16,0.52,1.16,1.16v24.43C11.35,102.48,10.83,103,10.18,103z M7.05,100.68h1.97V78.57H7.05V100.68z"/>
			</g>
			<g id="XMLID_16787_">
				<path id="XMLID_1868_" class="st0" d="M20.97,103h-4.3c-0.64,0-1.16-0.52-1.16-1.16V77.4c0-0.64,0.52-1.16,1.16-1.16h4.3
					c0.64,0,1.16,0.52,1.16,1.16v24.43C22.13,102.48,21.61,103,20.97,103z M17.83,100.68h1.97V78.57h-1.97V100.68z"/>
			</g>
			<g id="XMLID_16786_">
				<path id="XMLID_1865_" class="st0" d="M31.75,103h-4.3c-0.64,0-1.16-0.52-1.16-1.16V77.4c0-0.64,0.52-1.16,1.16-1.16h4.3
					c0.64,0,1.16,0.52,1.16,1.16v24.43C32.91,102.48,32.39,103,31.75,103z M28.62,100.68h1.97V78.57h-1.97V100.68z"/>
			</g>
			<g id="XMLID_16785_">
				<path id="XMLID_1862_" class="st0" d="M42.53,103h-4.3c-0.64,0-1.16-0.52-1.16-1.16V77.4c0-0.64,0.52-1.16,1.16-1.16h4.3
					c0.64,0,1.16,0.52,1.16,1.16v24.43C43.7,102.48,43.18,103,42.53,103z M39.4,100.68h1.97V78.57H39.4V100.68z"/>
			</g>
			<g id="XMLID_16784_">
				<path id="XMLID_1859_" class="st0" d="M53.32,103h-4.3c-0.64,0-1.16-0.52-1.16-1.16V77.4c0-0.64,0.52-1.16,1.16-1.16h4.3
					c0.64,0,1.16,0.52,1.16,1.16v24.43C54.48,102.48,53.96,103,53.32,103z M50.18,100.68h1.97V78.57h-1.97V100.68z"/>
			</g>
			<g id="XMLID_16783_">
				<path id="XMLID_1856_" class="st0" d="M64.1,103h-4.3c-0.64,0-1.16-0.52-1.16-1.16V77.4c0-0.64,0.52-1.16,1.16-1.16h4.3
					c0.64,0,1.16,0.52,1.16,1.16v24.43C65.26,102.48,64.74,103,64.1,103z M60.97,100.68h1.97V78.57h-1.97V100.68z"/>
			</g>
			<g id="XMLID_16782_">
				<path id="XMLID_1855_" class="st0" d="M67.83,73.79H2.16C1.52,73.79,1,73.27,1,72.63c0-0.64,0.52-1.16,1.16-1.16h65.67
					c0.64,0,1.16,0.52,1.16,1.16C68.99,73.27,68.47,73.79,67.83,73.79z"/>
			</g>
			<g id="XMLID_16781_">
				<path id="XMLID_1852_" class="st0" d="M64.1,78.57H5.89c-0.64,0-1.16-0.52-1.16-1.16v-4.77c0-0.64,0.52-1.16,1.16-1.16H64.1
					c0.64,0,1.16,0.52,1.16,1.16v4.77C65.26,78.05,64.74,78.57,64.1,78.57z M7.05,76.24h55.89v-2.45H7.05V76.24z"/>
			</g>
			<g id="XMLID_16780_">
				<path id="XMLID_1851_" class="st0" d="M68.15,103H1.85C1.38,103,1,102.48,1,101.84s0.38-1.16,0.85-1.16h66.3
					c0.47,0,0.85,0.52,0.85,1.16S68.61,103,68.15,103z"/>
			</g>
		</g>
	</g>
</g>
</svg>
