<svg xmlns="http://www.w3.org/2000/svg" viewBox="0 0 192.78 155.46"><defs><style>.cls-1{fill:#fff;}.cls-1,.cls-10,.cls-11,.cls-2,.cls-3,.cls-4,.cls-5,.cls-6,.cls-7,.cls-8,.cls-9{fill-rule:evenodd;}.cls-2{fill:#004476;}.cls-3{fill:#c5c6c6;}.cls-4{fill:#b8b6b8;}.cls-5{fill:#f08233;}.cls-6{fill:#a8a5a9;}.cls-7{fill:#f49e76;}.cls-8{fill:#f5e3d6;}.cls-9{fill:#cfe5e1;}.cls-10{fill:#45bfe0;}.cls-11{fill:#b6d1ce;}</style></defs><title>Asset 1</title><g id="Layer_2" data-name="Layer 2"><g id="Isolation_Mode" data-name="Isolation Mode"><polygon class="cls-1" points="62.09 27.37 40.6 46.23 49.36 46.23 69.86 27.37 62.09 27.37"/><path class="cls-2" d="M100.48,9.47A67.73,67.73,0,0,0,47.65,34.74l9.25,7.89a55.7,55.7,0,0,1,87.15,0l9.59-7.47A67.72,67.72,0,0,0,100.48,9.47Z"/><path class="cls-2" d="M46.65,91.7a11.61,11.61,0,0,1,3.88-8c-2.65-10.19,2-20.37,4.06-24.1A12.26,12.26,0,0,1,53.13,48c.92-2.46,2.41-3.63,3.77-5.34l-9.25-7.89a67.89,67.89,0,0,0-8.6,71.44l10.65-5.93A54.25,54.25,0,0,1,46.65,91.7Z"/><path class="cls-3" d="M114.94,89.63H86.3s8.85,12.14,8.2,21.31a30.77,30.77,0,0,1-3.06,11.36c2.66,1.38,9,3.49,19.63.15C105.2,113.09,109.66,100.13,114.94,89.63Z"/><path class="cls-3" d="M83.87,84.09l4.51-20.84c-11.62,4.33-24.82,4.68-31.76-1.39a13.4,13.4,0,0,1-2-2.23c-6.17,4.94-8,15.17-4.06,24.1,4.34-3.73,11.38-4,16.85-4.34C75.71,78.87,83.87,84.09,83.87,84.09Z"/><path class="cls-3" d="M145.32,61.86c-6.94,6.07-20.13,5.72-31.76,1.39l4.51,20.84s8.16-5.22,16.49-4.7c4.53.28,10.14.52,14.4,2.71,3.32-11.14-.67-18.73-2.47-21.4A14.27,14.27,0,0,1,145.32,61.86Z"/><path class="cls-4" d="M119.66,77.33a19.18,19.18,0,1,1-19.18-19.18A19.18,19.18,0,0,1,119.66,77.33Z"/><path class="cls-2" d="M85.82,77.33a14.67,14.67,0,1,0,14.66-14.66A14.66,14.66,0,0,0,85.82,77.33Z"/><path class="cls-5" d="M113.24,77.33a12.76,12.76,0,1,1-12.76-12.76A12.76,12.76,0,0,1,113.24,77.33Z"/><path class="cls-6" d="M57.58,41.19a1.5,1.5,0,0,1-1.9,2.32l-8.57-7A1.5,1.5,0,0,1,49,34.17Z"/><path class="cls-6" d="M49.9,101.73a1.5,1.5,0,0,0-1.48-2.61l-9.64,5.46a1.5,1.5,0,0,0,1.48,2.61Z"/><path class="cls-6" d="M143.67,41.19a1.5,1.5,0,0,0,1.9,2.32l8.56-7a1.5,1.5,0,0,0-1.9-2.31Z"/><path class="cls-2" d="M120.34,129.4a15.46,15.46,0,0,1-8.18-5.41,17.29,17.29,0,0,1-1.09-1.54c-10.61,3.34-17,1.23-19.63-.15-1.94,3.84-4.85,7-8.89,7.79A55.84,55.84,0,0,1,49.7,100.25l-10.65,5.93a67.88,67.88,0,0,0,123.05-.4l-10.57-6.13A55.88,55.88,0,0,1,120.34,129.4Z"/><path class="cls-2" d="M153.64,35.15l-9.59,7.47a54.79,54.79,0,0,1,5.4,8.12c.79,3.79.11,6.55-3,10,1.8,2.67,5.79,10.26,2.47,21.4a11.06,11.06,0,0,1,5.92,7.3,55.38,55.38,0,0,1-3.35,10.25l10.57,6.13a67.91,67.91,0,0,0-8.46-70.63Z"/><path class="cls-6" d="M151.35,101.3a1.5,1.5,0,0,1,1.47-2.61l9.64,5.46a1.5,1.5,0,0,1-1.48,2.61Z"/><path class="cls-7" d="M104.23,1.59a4.4,4.4,0,0,1,2.35.38,4.44,4.44,0,0,1,2.17,5.87l-1.19,2.57L104.25,18l-1.34,2.91a1,1,0,0,0-.09.43,1.52,1.52,0,0,0,.52,1.06,1.3,1.3,0,0,0,1.51.15c4.74-2.49,6.31-6.39,10.58-4.42a3,3,0,0,1,1.77,2.49A3.08,3.08,0,0,1,116,23.43L98.17,38.53h0a69.23,69.23,0,0,1-7,6l-.27.23a2.46,2.46,0,0,1-.45.25,8.33,8.33,0,0,1-2.56,1.23c-3.11.64-5.06,8.29-5.15,8.5s-15.72-6.64-21.17-9l-1.84-.8s1.09-9.8,2.19-15.63l.09-.52a23.5,23.5,0,0,1,.73-3h0a103,103,0,0,1,4.78-12.66l1.42-3.07L72.08,3.2a4.4,4.4,0,0,1,8.11,3.42h.06L82,2.88a4.43,4.43,0,0,1,8,3.71l1.85-4a4.43,4.43,0,0,1,8,3.71l.78-2.15A4.44,4.44,0,0,1,104.23,1.59Z"/><path class="cls-8" d="M116.29,23.16l-1.6-3s-5.83,4.92-3.17,7Z"/><path class="cls-9" d="M71.89,43.58,83,48.18a2.29,2.29,0,0,1,1.24,3l-3.5,8.43a2.29,2.29,0,0,1-3,1.24l-11.09-4.6,1.2-2.88Z"/><path class="cls-9" d="M60.81,39l11.08,4.6-4,9.78-1.2,2.88-11.09-4.6a2.28,2.28,0,0,1-1.23-3l3.5-8.43A2.28,2.28,0,0,1,60.81,39Z"/><path class="cls-10" d="M77.2,50a2.22,2.22,0,1,0,2.9-1.2A2.22,2.22,0,0,0,77.2,50Z"/><path class="cls-10" d="M81.78,54.72,69.19,49.45,28,145.94H46.35l37-89C83.62,56.15,82.93,55.15,81.78,54.72Z"/><path class="cls-10" d="M69.42,49.54l-.23-.09v0L56.42,44c-1.12-.51-2.31-.31-2.67.45L9.64,145.94H28Z"/><path class="cls-7" d="M147.64,18.75A4.43,4.43,0,0,0,141.22,23l.2,2.82.42,8.3.23,3.19a1.05,1.05,0,0,1-.07.43,1.52,1.52,0,0,1-.86.81,1.32,1.32,0,0,1-1.47-.38c-3.56-4-3.65-8.21-8.34-7.87a3,3,0,0,0-1.2.34A3.14,3.14,0,0,0,128.79,32a3.1,3.1,0,0,0,.19,3l11.33,20.39h0a68.79,68.79,0,0,0,4.48,8.07l.18.31a2.37,2.37,0,0,0,.32.39,8.28,8.28,0,0,0,2,2.05c2.68,1.7,1.81,9.55,1.82,9.77s17.06-.67,23-1l2-.09s2.42-9.56,3.45-15.4c0-.17.07-.35.09-.52a23.52,23.52,0,0,0,.37-3h0a104.48,104.48,0,0,0,0-13.53c-.09-1.19-.17-2.32-.25-3.37-.33-4.52-.55-7.57-.55-7.57a4.4,4.4,0,0,0-8.79.35h-.06l-.3-4.11a4.43,4.43,0,1,0-8.83.63L158.87,24a4.43,4.43,0,1,0-8.84.64l0-2.29A4.43,4.43,0,0,0,147.64,18.75Z"/><path class="cls-8" d="M128.77,34.69l2.55-2.23s3.72,6.66.48,7.69Z"/><path class="cls-9" d="M163.12,69.44l-12,.4a2.29,2.29,0,0,0-2.21,2.37l.31,9.12a2.28,2.28,0,0,0,2.36,2.21l12-.4L163.47,80Z"/><path class="cls-9" d="M175.12,69l-12,.4L163.47,80l.11,3.11,12-.4a2.28,2.28,0,0,0,2.21-2.36l-.3-9.13A2.29,2.29,0,0,0,175.12,69Z"/><path class="cls-10" d="M155.91,73.55a2.22,2.22,0,1,1-2.29-2.15A2.22,2.22,0,0,1,155.91,73.55Z"/><path class="cls-10" d="M149.94,76.39l13.64-.5,2.92,78-17.16-6.46-1.62-69.55C147.72,77.08,148.71,76.39,149.94,76.39Z"/><path class="cls-10" d="M163.34,75.9h.24v0l13.87-.54c1.22-.09,2.26.52,2.33,1.36l3.15,77.26-17.2-6.48Z"/><path class="cls-11" d="M189.35,155.46H3.43c-1.89,0-3.43-2.13-3.43-4.76s1.54-4.76,3.43-4.76H189.35c1.9,0,3.43,2.13,3.43,4.76S191.25,155.46,189.35,155.46Z"/></g></g></svg>