<svg xmlns="http://www.w3.org/2000/svg" viewBox="0 0 79.25 66.07"><defs><style>.cls-1,.cls-2{fill:#18c8ee;}.cls-1{fill-rule:evenodd;}.cls-3{fill:none;stroke:#18c8ee;stroke-width:3px;}</style></defs><title>Asset 1</title><g id="Layer_2" data-name="Layer 2"><g id="Layer_1-2" data-name="Layer 1"><path class="cls-1" d="M12.78,39.05a3.13,3.13,0,1,1,3.16-3.13,3.15,3.15,0,0,1-3.16,3.13Zm0-9.4a6.27,6.27,0,1,0,6.32,6.27,6.3,6.3,0,0,0-6.32-6.27Zm53.69,9.4a3.13,3.13,0,1,1,3.16-3.13,3.14,3.14,0,0,1-3.16,3.13Zm0-9.4a6.27,6.27,0,1,0,6.32,6.27,6.3,6.3,0,0,0-6.32-6.27ZM39.62,45.05a49.77,49.77,0,0,1-15.9-2.63,1.59,1.59,0,0,1-1-2,1.61,1.61,0,0,1,2-1,46.28,46.28,0,0,0,29.73,0,1.6,1.6,0,0,1,2,1,1.58,1.58,0,0,1-1,2,49.79,49.79,0,0,1-15.91,2.63ZM76,47.14a3.14,3.14,0,0,1-3.16,3.13H6.46A3.14,3.14,0,0,1,3.3,47.14V31.82a6.83,6.83,0,0,1,7-6.63l.41,0h57.8a6.84,6.84,0,0,1,7.4,6.21c0,.13,0,.27,0,.4V47.14ZM72.79,61.21a1.57,1.57,0,0,1-1.58,1.57H61.73a1.57,1.57,0,0,1-1.58-1.57v-7.8H72.78v7.8Zm-53.7,0a1.57,1.57,0,0,1-1.55,1.6H8.06a1.64,1.64,0,0,1-1.61-1.6v-7.8H19.08v7.8ZM17.93,5.4A3.15,3.15,0,0,1,21,3.27H59.84A3.16,3.16,0,0,1,63,5.43l5.78,16.64H11.92ZM47.52.14h0ZM79.11,30.56a9.44,9.44,0,0,0-6.7-7.93L66.09,4.46A6.31,6.31,0,0,0,59.83.14H21A6.31,6.31,0,0,0,14.92,4.4L8.6,22.23A9.61,9.61,0,0,0,.14,30.56a1.85,1.85,0,0,0,0,.47v16.1A6.26,6.26,0,0,0,3.3,52.55V61.2a4.75,4.75,0,0,0,4.77,4.73h9.48a4.73,4.73,0,0,0,4.71-4.73V53.4H57v7.83a4.72,4.72,0,0,0,4.74,4.7h9.48A4.72,4.72,0,0,0,76,61.23V52.55a6.26,6.26,0,0,0,3.16-5.42V31a3.77,3.77,0,0,0,0-.47Z"/><path class="cls-2" d="M23.72,42.42l0,.13h0Zm-1-2,.12,0h0Zm2-1,0,.13h0Zm29.73,0,0,.13h0Zm2,1-.12,0h0Zm-1,2,0,.13h0ZM3.3,31.82h0Zm7-6.64v-.13h0Zm.4,0v.13h0Zm57.81,0v.13h0Zm7.4,6.21h0Zm0,.41h0ZM60.15,53.4v-.13H60v.13Zm12.64,0h.12v-.13h-.12Zm-53.7,7.81h0ZM17.55,62.8v.13h0Zm-9.48,0v.13h0ZM6.46,61.21h0Zm0-7.81v-.13H6.34v.13Zm12.63,0h.12v-.13h-.12Zm-1.16-48,.12,0h0ZM21,3.27V3.4h0Zm38.85,0V3.4h0ZM63,5.43l-.12.05h0Zm5.78,16.64v.13H69L68.9,22Zm-56.86,0L11.8,22l-.06.18h.18Zm60.49.56-.12.05,0,.06.06,0ZM66.09,4.46,66,4.5h0ZM59.84.14V.27h0ZM21,.14V.27h0ZM14.92,4.4l.12,0h0ZM8.61,22.23v.13H8.7l0-.08ZM.14,30.56l.12,0h0Zm0,.47H.26Zm0,16.11h0ZM3.3,52.56h.12v-.08l-.07,0ZM17.55,65.94v.13h0Zm4.7-4.73h0Zm0-7.81v-.13h-.12v.13ZM57,53.4h.12v-.13H57Zm19-.84-.06-.12-.07,0v.08Zm3.16-5.42h0Zm0-16.11L79,31h.12ZM12.78,38.92a3,3,0,0,1-3-3H9.49a3.28,3.28,0,0,0,3.29,3.27Zm-3-3a3,3,0,0,1,3-3v-.27A3.28,3.28,0,0,0,9.49,35.9h.25Zm3-3a3,3,0,0,1,3,3h.25a3.27,3.27,0,0,0-3.28-3.26Zm3,3a3,3,0,0,1-3,3v.27a3.27,3.27,0,0,0,3.28-3.27Zm-3-6.39a6.42,6.42,0,0,0-6.44,6.4h.25a6.16,6.16,0,0,1,6.19-6.13ZM6.33,35.91a6.42,6.42,0,0,0,6.44,6.4V42a6.16,6.16,0,0,1-6.19-6.13Zm6.45,6.4a6.42,6.42,0,0,0,6.44-6.4H19A6.16,6.16,0,0,1,12.78,42Zm6.44-6.4a6.42,6.42,0,0,0-6.44-6.4v.27A6.16,6.16,0,0,1,19,35.91Zm47.25,3a3,3,0,0,1-3-3h-.25a3.28,3.28,0,0,0,3.28,3.27Zm-3-3a3,3,0,0,1,3-3v-.27a3.26,3.26,0,0,0-3.28,3.26h.25Zm3-3a3,3,0,0,1,3,3h.25a3.27,3.27,0,0,0-3.28-3.26Zm3,3a3,3,0,0,1-3,3v.27a3.27,3.27,0,0,0,3.28-3.27Zm-3-6.39A6.42,6.42,0,0,0,60,35.92h.25a6.16,6.16,0,0,1,6.19-6.13ZM60,35.91a6.42,6.42,0,0,0,6.44,6.4V42a6.16,6.16,0,0,1-6.19-6.13Zm6.44,6.4a6.42,6.42,0,0,0,6.44-6.4h-.25A6.16,6.16,0,0,1,66.47,42Zm6.44-6.4a6.42,6.42,0,0,0-6.44-6.4v.27a6.16,6.16,0,0,1,6.19,6.13Zm-33.29,9a49.21,49.21,0,0,1-15.86-2.63l-.08.25a49.7,49.7,0,0,0,15.94,2.64ZM23.76,42.29a1.46,1.46,0,0,1-.92-1.85l-.23-.09a1.74,1.74,0,0,0,1.08,2.2Zm-.92-1.85a1.48,1.48,0,0,1,1.88-.91l.08-.25a1.74,1.74,0,0,0-2.2,1.08Zm1.88-.92a46.38,46.38,0,0,0,29.81,0l-.08-.25a46.17,46.17,0,0,1-29.65,0Zm29.81,0a1.48,1.48,0,0,1,1.88.91l.23-.09a1.73,1.73,0,0,0-2.2-1.08Zm1.88.92a1.45,1.45,0,0,1-.92,1.85l.08.25a1.73,1.73,0,0,0,1.08-2.2Zm-.92,1.85a49.53,49.53,0,0,1-15.86,2.63v.27a49.7,49.7,0,0,0,15.94-2.64Zm20.33,4.85a3,3,0,0,1-3,3v.27a3.28,3.28,0,0,0,3.29-3.27Zm-3,3H6.46v.27H72.79Zm-66.33,0a3,3,0,0,1-3-3H3.17a3.28,3.28,0,0,0,3.29,3.27Zm-3-3V31.82H3.17V47.14Zm0-15.32a6.7,6.7,0,0,1,6.89-6.5v-.27a7,7,0,0,0-7.15,6.76Zm6.89-6.5.4,0,0-.26-.41,0Zm.41,0h57.8v-.27H10.72Zm57.82,0a6.72,6.72,0,0,1,7.27,6.09l.25,0a7,7,0,0,0-7.53-6.33Zm7.26,6.09c0,.13,0,.26,0,.39h.25c0-.14,0-.27,0-.41Zm0,.39V47.14h.25V31.82ZM72.66,61.21a1.44,1.44,0,0,1-1.45,1.43v.27a1.7,1.7,0,0,0,1.7-1.7Zm-1.45,1.43H61.73v.27h9.48Zm-9.48,0a1.44,1.44,0,0,1-1.45-1.43H60a1.7,1.7,0,0,0,1.7,1.7Zm-1.45-1.43v-7.8H60v7.8Zm-.13-7.67H72.78v-.27H60.15Zm12.51-.14v7.8h.25V53.4ZM19,61.21a1.43,1.43,0,0,1-1.42,1.46v.27a1.7,1.7,0,0,0,1.67-1.73Zm-1.42,1.46h0v.27h0Zm0,0H8.07v.27h9.48Zm-9.48,0A1.52,1.52,0,0,1,6.58,61.2H6.33a1.77,1.77,0,0,0,1.73,1.73ZM6.58,61.21v-7.8H6.33v7.8Zm-.12-7.67H19.09v-.27H6.46ZM19,53.4v7.8h.25V53.4ZM18,5.45a3,3,0,0,1,2.94-2V3.14a3.28,3.28,0,0,0-3.18,2.22ZM21,3.4H59.84V3.13H21Zm38.85,0a3,3,0,0,1,3,2.07l.24-.09a3.28,3.28,0,0,0-3.28-2.25Zm3,2.08,5.78,16.64.23-.09L63.11,5.39Zm5.9,16.46H11.92v.27H68.77v-.27ZM12,22.12,18,5.45l-.23-.09L11.81,22ZM47.52,0H31.73V.27H47.52ZM31.73.27H47.52V0H31.73Zm47.5,30.28a9.54,9.54,0,0,0-6.79-8l-.07.26A9.28,9.28,0,0,1,79,30.59Zm-6.7-8L66.21,4.42,66,4.51,72.3,22.68ZM66.21,4.42A6.43,6.43,0,0,0,59.83,0V.28A6.18,6.18,0,0,1,66,4.51ZM59.84,0H21V.27H59.84ZM21,0a6.42,6.42,0,0,0-6.18,4.35l.24.09A6.17,6.17,0,0,1,21,.27ZM14.81,4.35,8.49,22.18l.23.09L15,4.44ZM8.59,22.1A9.75,9.75,0,0,0,0,30.55l.25,0a9.49,9.49,0,0,1,8.35-8.22ZM0,30.54a1.46,1.46,0,0,0,0,.51l.25,0a1.55,1.55,0,0,1,0-.43ZM0,31v16.1H.27V31ZM0,47.14a6.39,6.39,0,0,0,3.22,5.54l.12-.23A6.11,6.11,0,0,1,.27,47.14Zm3.15,5.42v8.65h.25V52.56Zm0,8.65a4.87,4.87,0,0,0,4.89,4.86V65.8a4.62,4.62,0,0,1-4.64-4.6H3.17Zm4.9,4.86h9.48V65.8H8.07Zm9.48,0a4.85,4.85,0,0,0,4.83-4.86h-.25a4.59,4.59,0,0,1-4.58,4.6Zm4.83-4.86v-7.8h-.25v7.8Zm-.13-7.67H57v-.27H22.25Zm34.62-.14v7.83h.25V53.4Zm0,7.84a4.85,4.85,0,0,0,4.86,4.83V65.8a4.58,4.58,0,0,1-4.61-4.57h-.25Zm4.86,4.83h9.48V65.8H61.73Zm9.48,0a4.84,4.84,0,0,0,4.86-4.83h-.25a4.59,4.59,0,0,1-4.61,4.57Zm4.86-4.83V52.56h-.25v8.68ZM76,52.68a6.39,6.39,0,0,0,3.22-5.54H79a6.13,6.13,0,0,1-3.09,5.31Zm3.22-5.54V31H79v16.1Zm0-16.09a2.18,2.18,0,0,0,0-.51l-.25,0A1.55,1.55,0,0,1,79,31Z"/><path class="cls-3" d="M12.12,15s-9-.45-9,3.47,6.44,3.92,6.44,3.92"/><path class="cls-3" d="M68.12,15s9-.45,9,3.47-6.44,3.92-6.44,3.92"/></g></g></svg>