<svg xmlns="http://www.w3.org/2000/svg" viewBox="0 0 147.2 186.36"><defs><style>.cls-1{fill:#1a4a7a;}</style></defs><title>Asset 2</title><g id="Layer_2" data-name="Layer 2"><g id="Isolation_Mode" data-name="Isolation Mode"><path class="cls-1" d="M107.85,186.36a4.68,4.68,0,0,1-4.67-4.67V141a73.51,73.51,0,0,1-58.26.4v40.31a4.67,4.67,0,0,1-9.34,0V136.58a73.79,73.79,0,0,1-8.84-6.29v51a4.67,4.67,0,0,1-9.34,0V121a73.73,73.73,0,0,1-8.06-11.62v60.76a4.67,4.67,0,0,1-9.34,0V75H0c0-.47,0-.93,0-1.4a73.6,73.6,0,0,1,147.2,0c0,.71,0,1.41,0,2.1l0,.87v93.62a4.67,4.67,0,0,1-9.34,0V109.43A74.12,74.12,0,0,1,130,120.81v60.45a4.67,4.67,0,1,1-9.34,0V130.13a73.69,73.69,0,0,1-8.14,5.92V181.7A4.68,4.68,0,0,1,107.85,186.36ZM9.9,82.09a64.26,64.26,0,0,0,127.4,0c-34.9-10.63-55.17-46.2-63.7-65C65.07,35.88,44.8,71.46,9.9,82.09ZM9.82,65.86a64.48,64.48,0,0,0-.47,6.57C41.4,61.28,60,24.86,66.56,9.72a64.32,64.32,0,0,0-8.64,1.55C50.42,26.37,34.58,52.54,9.82,65.86ZM80.64,9.73c6.54,15.14,25.19,51.56,57.21,62.71,0-2-.18-4-.42-6.14C112.12,53.08,96,26.45,88.4,11.06A63.2,63.2,0,0,0,80.64,9.73Zm20.8,6c7.31,12.79,18.33,28,33.29,38.13A64.17,64.17,0,0,0,101.44,15.69Zm-56.78.55a64.48,64.48,0,0,0-32,36.87C27,43.11,37.56,28.53,44.66,16.24Z"/><path class="cls-1" d="M47,84.68a8.18,8.18,0,1,1,8.18-8.18A8.19,8.19,0,0,1,47,84.68Z"/><path class="cls-1" d="M99.94,84.68a8.18,8.18,0,1,1,8.18-8.18A8.19,8.19,0,0,1,99.94,84.68Z"/><path class="cls-1" d="M74,128.26a20.89,20.89,0,0,1-20.87-20.87v-2H94.9v2A20.9,20.9,0,0,1,74,128.26Z"/></g></g></svg>