<svg xmlns="http://www.w3.org/2000/svg" viewBox="0 0 156.82 156.82">
	<defs>
		<style>.cls-1{fill:#ff8517;}</style>
	</defs>
	<g id="Layer_2" data-name="Layer 2">
		<g id="Layer_1-2" data-name="Layer 1">
			<path class="cls-1" d="M91.15,83.65a19.2,19.2,0,0,1-25.57.15l-.82-.75L37.08,108.42h82.64L91.91,82.93Z"/>
			<path class="cls-1" d="M78.41,0a78.41,78.41,0,1,0,78.41,78.41A78.41,78.41,0,0,0,78.41,0Zm53.92,105.76a10.06,10.06,0,0,1-10.05,10H34.53a10.06,10.06,0,0,1-10-10V51.08a10.05,10.05,0,0,1,10-10h87.75a10.05,10.05,0,0,1,10.05,10Z"/>
			<polygon class="cls-1" points="124.94 103.2 124.94 52.12 97.33 77.88 124.94 103.2"/>
			<polygon class="cls-1" points="31.86 53.1 31.86 103.2 59.27 78.06 31.86 53.1"/>
			<path class="cls-1" d="M86.11,78.25l32-29.84H37.66L70.54,78.35A11.7,11.7,0,0,0,86.11,78.25Z"/>
		</g>
	</g>
</svg>