<svg xmlns="http://www.w3.org/2000/svg" viewBox="0 0 77 77"><defs><style>.cls-1,.cls-2{fill:none;}.cls-1,.cls-2,.cls-3{stroke:#18c8ee;}.cls-1,.cls-3{stroke-linecap:round;stroke-linejoin:round;}.cls-1{stroke-width:5px;}.cls-2{stroke-width:4px;}.cls-3{fill:#18c8ee;stroke-width:2px;fill-rule:evenodd;}</style></defs><title>Asset 1</title><g id="Layer_2" data-name="Layer 2"><g id="Layer_1-2" data-name="Layer 1"><path class="cls-1" d="M38.5,74.5A36,36,0,1,1,69.12,57.44"/><path class="cls-2" d="M58.8,59.06l.83.18h0Zm1.73,1.5c0-.13,0-.26.08-.38l5.62,5.43-.14,0-.92.15-.29,0-.08,0h0l.39,2-.39-2L64.2,66l-.42.4-3.12,3-3.92-3.79,3-2.85.62-.59v-.66l0-.15C60.42,61.1,60.47,60.83,60.53,60.56Z"/><path class="cls-2" d="M64.63,53.92l7.76,7.76-4.23,4.23L60.4,58.15Z"/><path class="cls-3" d="M36.65,37.16a5.27,5.27,0,0,1-5.5-5,5.27,5.27,0,0,1,5.5-5h4.71a5.33,5.33,0,0,1,5.5,4.5l3.14-.4a8.54,8.54,0,0,0-8.64-7.46h-.79V17H37.43v6.72h-.79a8.4,8.4,0,1,0,0,16.8h4.71a5.06,5.06,0,1,1,0,10.08H36.64a5.33,5.33,0,0,1-5.5-4.5L28,46.5A8.55,8.55,0,0,0,36.64,54h.79v5h3.14V54h.79A8.57,8.57,0,0,0,50,45.49a8.46,8.46,0,0,0-8.64-8.33Z"/></g></g></svg>