<svg xmlns="http://www.w3.org/2000/svg" viewBox="0 0 82.49 82.5"><defs><style>.cls-1,.cls-2{fill:#18c8ee;}.cls-1{fill-rule:evenodd;}</style></defs><title>Asset 1</title><g id="Layer_2" data-name="Layer 2"><g id="Layer_1-2" data-name="Layer 1"><path class="cls-1" d="M13.39,5.51l9.85,8.63V20.9l-9.85-9.85ZM5.51,13.39h5.55l9.85,9.85H14.15Zm37.07,28.9A1.65,1.65,0,0,0,42.43,40l-5.22-5.22a9.63,9.63,0,0,1,4-1.67,10.11,10.11,0,0,1,1.74,0,9.85,9.85,0,1,1-9.85,9.85,9.28,9.28,0,0,1,.2-1.74L30,40.63a13.65,13.65,0,0,0-.2,2.3A13.13,13.13,0,1,0,42.92,29.8a13.65,13.65,0,0,0-2.3.2,12.93,12.93,0,0,0-5.74,2.56l-7-7a22.94,22.94,0,1,1-7.95,17.33,22.36,22.36,0,0,1,1.94-9.19l-3-1.31a25.85,25.85,0,0,0-2.2,10.5A26.26,26.26,0,1,0,42.92,16.67a25.48,25.48,0,0,0-16.41,5.88V13.39a1.67,1.67,0,0,0-.69-1.22l-.75-.66c1-.59,2-1.12,3.05-1.58A36.11,36.11,0,1,1,9.81,28.25l-3-1.35A39.39,39.39,0,1,0,26.91,6.81a38.33,38.33,0,0,0-4.23,2.4L12.83.65a1.63,1.63,0,0,0-1.1-.41A1.65,1.65,0,0,0,10.1,1.89V7.77L4.85,2.52A1.65,1.65,0,0,0,2.52,4.85L7.77,10.1H1.89a1.67,1.67,0,0,0-1.1.41,1.64,1.64,0,0,0-.15,2.32L12.13,26a1.66,1.66,0,0,0,1.25.56h10.8L40.1,42.44h0a1.64,1.64,0,0,0,2.32,0A.71.71,0,0,0,42.58,42.29Z"/><path class="cls-2" d="M13.39,5.51l.16-.19L13.14,5v.55Zm9.85,8.63h.25V14L23.4,14Zm0,6.77-.18.18.43.43v-.6h-.25Zm-9.85-9.85h-.25v.1l.07.07ZM5.51,13.39v-.25H5l.36.41Zm5.55,0,.18-.18-.07-.07h-.1v.25Zm9.84,9.85v.25h.6l-.43-.43Zm-6.76,0L14,23.4l.07.09h.11v-.25ZM42.44,40l-.18.18h0Zm-5.22-5.22-.15-.2-.24.17.21.21Zm4-1.68,0-.25h0Zm1.74,0,0,.25h0v-.25Zm-9.85,9.85h0Zm.2-1.74.25.05,0-.25-.25,0ZM30,40.63l0-.25-.25,0,0,.25Zm-.2,2.3h0ZM42.93,29.8v.25h0Zm-2.3.2,0-.25h0Zm-5.74,2.56-.18.18.16.16.17-.14Zm-7-7-.16-.19-.2.18.19.19Zm15-5.65v.25h0Zm-23,23h0Zm1.94-9.19.23.1.1-.23-.23-.1Zm-3-1.31.1-.23-.23-.1-.1.23Zm-2.2,10.5h0ZM42.93,16.67v.25h0ZM26.52,22.55h-.25v.53l.41-.34Zm0-9.16h.25Zm-.69-1.22-.16.19h0Zm-.76-.65-.13-.22-.3.18.26.23Zm3.06-1.58L28,9.71h0Zm29.34,0,.1-.23h0ZM9.81,28.26l.23.1.1-.23L9.91,28Zm-3-1.35.1-.23-.23-.1-.1.23Zm0,31.87.23-.1h0Zm52,20.09.1.23h0Zm20.09-52-.23.1h0Zm-52-20.09-.1-.23h0Zm-4.23,2.4-.16.19.14.12.16-.1ZM12.83.65l-.17.19h0Zm-1.1-.4V.5h0ZM10.11,1.9h0Zm0,5.88L9.93,8l.43.43v-.6h-.25ZM4.85,2.52l-.18.18h0Zm-2.33,0,.18.18h0Zm0,2.33.18-.18h0Zm5.26,5.26v.25h.6L8,9.93Zm-5.88,0v.25h0Zm-1.1.41.16.19H1ZM.65,12.83l.19-.16h0ZM12.14,26l-.19.16h0Zm1.25.56v-.25h0Zm10.8,0,.18-.18-.07-.07h-.1v.25ZM40.11,42.44l.19-.17h0Zm0,0-.19.17h0Zm2.32,0-.16-.19h0ZM13.22,5.7l9.85,8.63L23.4,14,13.55,5.32ZM23,14.14V20.9h.5V14.14Zm.42,6.59-9.85-9.85-.35.35,9.85,9.85Zm-9.77-9.67V5.51h-.5v5.55ZM5.51,13.64h5.55v-.5H5.51Zm5.37-.07,9.85,9.85.35-.35-9.85-9.85ZM20.9,23H14.14v.5H20.9Zm-6.57.08L5.7,13.22l-.38.33L14,23.4ZM42.77,42.46a1.89,1.89,0,0,0-.17-2.67l-.33.38a1.38,1.38,0,0,1,.12,2Zm-.16-2.66-5.22-5.22-.35.35,5.22,5.22ZM37.36,35a9.29,9.29,0,0,1,3.87-1.63l-.09-.49a10,10,0,0,0-4.08,1.72Zm3.85-1.63a9.65,9.65,0,0,1,1.7,0l0-.5a10.58,10.58,0,0,0-1.78,0Zm1.72,0a9.6,9.6,0,0,1,9.6,9.6H53a10.1,10.1,0,0,0-10.1-10.1Zm9.6,9.6a9.6,9.6,0,0,1-9.6,9.6V53A10.1,10.1,0,0,0,53,42.93Zm-9.6,9.6a9.6,9.6,0,0,1-9.6-9.6h-.5A10.1,10.1,0,0,0,42.93,53Zm-9.6-9.59a9.72,9.72,0,0,1,.19-1.7l-.49-.1a9.71,9.71,0,0,0-.2,1.78Zm0-2L30,40.38l-.08.49,3.28.56Zm-3.57-.35a14.13,14.13,0,0,0-.2,2.34h.5a13,13,0,0,1,.19-2.25Zm-.2,2.34A13.38,13.38,0,0,0,42.93,56.31v-.5A12.88,12.88,0,0,1,30.05,42.93ZM42.93,56.31A13.38,13.38,0,0,0,56.31,42.93h-.5A12.88,12.88,0,0,1,42.93,55.81ZM56.31,42.93A13.38,13.38,0,0,0,42.93,29.55v.5A12.88,12.88,0,0,1,55.81,42.93ZM42.93,29.55a14,14,0,0,0-2.34.2l.09.49a13.09,13.09,0,0,1,2.26-.19Zm-2.34.2a13.13,13.13,0,0,0-5.86,2.61l.31.39a12.65,12.65,0,0,1,5.63-2.51Zm-5.53,2.63-7-7-.35.35,7,7Zm-7-6.59a22.47,22.47,0,0,1,14.87-5.58v-.5a23,23,0,0,0-15.2,5.71ZM42.93,20.2A22.73,22.73,0,0,1,65.66,42.93h.5A23.23,23.23,0,0,0,42.93,19.7ZM65.66,42.93A22.73,22.73,0,0,1,42.93,65.66v.5A23.23,23.23,0,0,0,66.16,42.93ZM42.93,65.66A22.73,22.73,0,0,1,20.2,42.93h-.5A23.23,23.23,0,0,0,42.93,66.16ZM20.2,42.93a22.39,22.39,0,0,1,1.91-9.09l-.46-.2a23,23,0,0,0-2,9.29ZM22,33.51,19,32.2l-.2.46,3,1.31Zm-3.35-1.18a26.14,26.14,0,0,0-2.22,10.6h.5a25.7,25.7,0,0,1,2.18-10.4Zm-2.22,10.6A26.51,26.51,0,0,0,42.93,69.44v-.5a26,26,0,0,1-26-26ZM42.93,69.44A26.51,26.51,0,0,0,69.44,42.93h-.5a26,26,0,0,1-26,26ZM69.44,42.93A26.51,26.51,0,0,0,42.93,16.42v.5a26,26,0,0,1,26,26ZM42.93,16.42a25.75,25.75,0,0,0-16.57,5.93l.32.38a25.25,25.25,0,0,1,16.25-5.82ZM26.77,22.55V13.39h-.5v9.16Zm0-9.18A1.87,1.87,0,0,0,26,12l-.29.41a1.38,1.38,0,0,1,.58,1ZM26,12l-.75-.66-.33.38.75.66Zm-.79-.26a31.12,31.12,0,0,1,3-1.56L28,9.71a32.21,32.21,0,0,0-3.08,1.59Zm3-1.56a35.84,35.84,0,0,1,29.15,0l.2-.46A36.38,36.38,0,0,0,28,9.71Zm29.14,0A35.86,35.86,0,0,1,75.56,57.5l.46.2a36.35,36.35,0,0,0-18.44-48ZM75.56,57.51A35.86,35.86,0,0,1,28.23,75.7l-.2.46A36.35,36.35,0,0,0,76,57.72ZM28.23,75.69A35.84,35.84,0,0,1,10,28.36l-.46-.2A36.35,36.35,0,0,0,28,76.15ZM9.91,28l-3-1.35-.21.46,3,1.35ZM6.59,26.81a39.62,39.62,0,0,0,0,32.07l.46-.2A39.15,39.15,0,0,1,7.05,27Zm0,32.07A39.65,39.65,0,0,0,58.88,79.1l-.2-.46a39.15,39.15,0,0,1-51.63-20ZM58.88,79.1A39.65,39.65,0,0,0,79.1,26.81l-.46.2a39.15,39.15,0,0,1-20,51.63ZM79.1,26.81A39.65,39.65,0,0,0,26.81,6.59l.2.46A39.15,39.15,0,0,1,78.64,27ZM26.8,6.6A40.53,40.53,0,0,0,22.54,9l.27.42A39.57,39.57,0,0,1,27,7.05ZM22.84,9,13,.46l-.33.38,9.85,8.57ZM13,.47A1.85,1.85,0,0,0,11.73,0V.5a1.4,1.4,0,0,1,.93.35ZM11.73,0A1.9,1.9,0,0,0,9.85,1.91h.5A1.38,1.38,0,0,1,11.73.51ZM9.86,1.9V7.78h.5V1.9Zm.42,5.7L5,2.35l-.35.35L9.93,8ZM5,2.35a1.9,1.9,0,0,0-2.68,0l.35.35a1.39,1.39,0,0,1,2,0Zm-2.68,0A1.9,1.9,0,0,0,2.35,5l.35-.35a1.39,1.39,0,0,1,0-2ZM2.35,5,7.6,10.28,8,9.93,2.7,4.68ZM7.78,9.86H1.9v.5H7.78Zm-5.88,0a1.88,1.88,0,0,0-1.26.47l.33.38a1.4,1.4,0,0,1,.93-.35Zm-1.26.47A1.9,1.9,0,0,0,.47,13l.38-.33a1.38,1.38,0,0,1,.13-2ZM.46,13,12,26.13l.38-.33L.84,12.67ZM12,26.13a1.88,1.88,0,0,0,1.44.64v-.5a1.43,1.43,0,0,1-1.06-.47Zm1.44.64h10.8v-.5H13.39ZM24,26.7,39.93,42.62l.35-.35L24.36,26.35ZM39.92,42.6h0l.38-.32h0Zm0,0a1.88,1.88,0,0,0,2.67,0l-.35-.35a1.39,1.39,0,0,1-2,0Zm2.66,0,.17-.17-.38-.33-.12.12Z"/></g></g></svg>