<svg xmlns="http://www.w3.org/2000/svg" viewBox="0 0 79.24 82.26"><defs><style>.cls-1,.cls-2{fill:#18c8ee;}.cls-1{fill-rule:evenodd;}</style></defs><title>Asset 1</title><g id="Layer_2" data-name="Layer 2"><g id="Layer_1-2" data-name="Layer 1"><path class="cls-1" d="M35.68,51.13,55.47,31.45l-2.34-2.33L34.5,47.65,25.79,39l-2.34,2.33,9.89,9.84a1.67,1.67,0,0,0,1.15.49A1.71,1.71,0,0,0,35.68,51.13ZM27.83,70.45a7,7,0,0,1,2,.3c2.08.69,3.73,2.62,5.31,4.53,1.42,1.67,3,3.61,4.35,3.61s2.9-1.87,4.32-3.54c1.62-1.87,3.27-3.84,5.38-4.53s4.45,0,6.83.56,4.68,1.15,5.8.36,1.32-3.25,1.48-5.58.36-4.89,1.62-6.59,3.69-2.76,6-3.67c2-.82,4.35-1.74,4.75-2.95s-.92-3.35-2.08-5.21C72.34,45.64,71,43.48,71,41.31S72.34,37,73.66,35c1.19-1.87,2.54-4,2.11-5.28s-2.64-2.1-4.65-2.92c-2.34-.95-4.75-1.94-6.07-3.77s-1.52-4.39-1.68-6.92c-.17-2.16-.33-4.59-1.32-5.31s-3.53-.2-5.7.36c-2.37.59-4.85,1.18-6.93.53S45.69,9,44.08,7.11C42.63,5.34,41,3.44,39.69,3.44S36.79,5.31,35.37,7c-1.62,1.87-3.26,3.84-5.41,4.53s-4.45,0-6.83-.56-4.62-1.18-5.74-.36-1.32,3.25-1.48,5.58-.36,4.92-1.62,6.63-3.69,2.76-6,3.67c-2,.82-4.35,1.74-4.75,3s.92,3.38,2.08,5.25c1.29,2.1,2.64,4.26,2.64,6.43s-1.35,4.3-2.67,6.36c-1.19,1.87-2.54,4-2.11,5.28s2.64,2.1,4.65,2.92c2.34,1,4.75,1.94,6.07,3.77s1.52,4.4,1.68,6.92c.17,2.13.33,4.59,1.32,5.31s3.53.2,5.7-.33A18.46,18.46,0,0,1,27.83,70.45ZM39.57,82.13h0c-2.87,0-4.91-2.43-6.89-4.76-1.29-1.54-2.64-3.12-3.82-3.51s-3.17.1-5.11.59c-3,.72-6.1,1.51-8.44-.2s-2.47-4.72-2.67-7.74c-.13-2-.3-4.13-1.09-5.22S8.81,59.42,6.9,58.63c-2.8-1.15-5.7-2.33-6.53-5s.82-5.41,2.47-8C3.89,44,5,42.23,5,41s-1.09-3-2.14-4.69c-1.62-2.59-3.3-5.28-2.41-8s3.79-3.84,6.63-5c1.88-.75,3.83-1.54,4.58-2.56s.86-2.95,1-4.92c.2-3,.46-6.3,2.84-8S21.11,7,24,7.73c1.91.49,3.89,1,5,.59s2.57-2,3.89-3.51c2-2.3,4-4.69,6.79-4.69s4.88,2.43,6.86,4.76C47.85,6.42,49.2,8,50.39,8.39s3.17-.1,5.11-.59c3-.75,6.13-1.51,8.44.2s2.47,4.72,2.67,7.74c.13,2,.3,4.13,1.09,5.22s2.74,1.87,4.65,2.66c2.8,1.15,5.67,2.33,6.53,4.95s-.82,5.41-2.47,8c-1.06,1.67-2.14,3.41-2.14,4.62s1.09,3,2.14,4.69c1.62,2.59,3.3,5.28,2.41,8s-3.79,3.84-6.63,5c-1.88.75-3.83,1.54-4.58,2.56s-.86,3-1,4.92c-.2,3-.46,6.3-2.84,8s-5.64.89-8.54.16c-1.91-.49-3.86-1-5-.59s-2.57,2-3.89,3.51C44.42,79.73,42.38,82.13,39.57,82.13Z"/><path class="cls-2" d="M55.47,31.45l.09.09.09-.09-.09-.09Zm-2.34-2.33.09-.09-.09-.09L53,29ZM34.5,47.65l-.09.09.09.09.09-.09ZM25.79,39l.09-.09-.09-.09-.09.09Zm-2.34,2.33-.09-.09-.09.09.09.09Zm9.89,9.84.09-.09h0ZM29.88,70.74l0-.12h0Zm5.31,4.53-.1.08h0Zm8.67.07-.09-.08h0Zm5.38-4.53,0-.12h0Zm6.82.56,0-.12h0Zm5.81.36.07.1h0Zm1.48-5.58h0ZM65,59.56l-.1-.07h0Zm6-3.67L71,56h0Zm4.75-3,.12,0h0Zm-2.08-5.21-.11.07h0Zm0-12.79.11.07h0Zm2.11-5.28-.12,0h0Zm-4.65-2.92.05-.12h0ZM63.38,16h0Zm-1.32-5.31.07-.1h0Zm-5.7.36,0,.12h0Zm-6.93.53,0,.12h0ZM44.09,7.08l-.1.08h0ZM35.39,7l.09.08h0ZM30,11.47l0-.12h0Zm-6.83-.55,0-.12h0Zm-5.73-.36-.07-.1h0Zm-1.49,5.57h0Zm-1.61,6.63.1.07h0Zm-6,3.67-.05-.12h0ZM3.57,29.38l-.12,0h0Zm2.07,5.25.11-.07h0Zm0,12.79-.11-.07h0ZM3.5,52.7l.12,0h0Zm4.65,2.92-.05.12h0Zm7.75,10.7h0Zm1.32,5.31-.07.1h0Zm5.7-.33,0,.12h0Zm9.76,6.07-.1.08h0Zm-3.82-3.51,0,.12h0Zm-5.11.59,0,.12h0Zm-8.44-.2-.07.1h0Zm-2.68-7.74h0ZM11.55,61.3l.1-.07h0ZM6.9,58.64l0-.12H7Zm-6.53-5,.12,0h0Zm2.47-8-.11-.07h0Zm0-9.31-.11.07h0Zm-2.41-8-.12,0h0Zm6.63-5,0-.12H7Zm4.58-2.56.1.07h0Zm1-4.92h0Zm2.84-8-.07-.1h0ZM24,7.74l0-.12h0Zm5,.59,0-.12h0Zm3.89-3.51L33,4.9h0Zm13.65.06.1-.08h0ZM55.5,7.8l0-.12h0Zm8.44.2-.07.1h0Zm2.67,7.74h0ZM67.7,21l.1-.07h0Zm4.65,2.66,0,.12h0Zm6.53,4.95-.12,0h0Zm-2.47,8,.11.07h0Zm0,9.31.11-.07h0Zm2.4,8,.12,0h0Zm-6.62,5,0,.12h0ZM67.6,61.43l-.1-.07h0Zm-1,4.92h0Zm-2.83,8,.07.1h0Zm-8.54.17,0,.12h0Zm-5-.59,0-.12h0Zm-3.9,3.51-.1-.08h0ZM35.77,51.22,55.56,31.54l-.18-.18L35.59,51ZM55.56,31.36,53.22,29l-.18.18,2.34,2.33ZM53,29,34.41,47.56l.18.18L53.22,29.21ZM34.58,47.56,25.87,38.9l-.18.18,8.71,8.66ZM25.7,38.9l-2.34,2.33.18.18,2.34-2.33Zm-2.34,2.51,9.89,9.84.18-.18-9.89-9.84Zm9.89,9.84a1.8,1.8,0,0,0,1.24.53v-.25a1.56,1.56,0,0,1-1.07-.46Zm1.25.53a1.79,1.79,0,0,0,1.27-.56L35.59,51a1.59,1.59,0,0,1-1.1.49v.25ZM27.83,70.57a7.18,7.18,0,0,1,2,.29l.07-.24a7.32,7.32,0,0,0-2.08-.3Zm2,.29a7.79,7.79,0,0,1,2.79,1.78,28,28,0,0,1,2.46,2.71l.19-.16a28.24,28.24,0,0,0-2.48-2.73,8.21,8.21,0,0,0-2.89-1.84Zm5.25,4.49a31,31,0,0,0,2.22,2.44,6.34,6.34,0,0,0,1.12.86,2.29,2.29,0,0,0,1.1.35v-.25a2,2,0,0,1-1-.31,6.26,6.26,0,0,1-1.08-.83,29,29,0,0,1-2.2-2.42ZM39.54,79a2.29,2.29,0,0,0,1.08-.33,6.24,6.24,0,0,0,1.11-.84A26,26,0,0,0,44,75.42l-.19-.16a25.65,25.65,0,0,1-2.2,2.39,7,7,0,0,1-1.07.81,1.91,1.91,0,0,1-1,.3V79ZM44,75.42a34,34,0,0,1,2.49-2.7,7.7,7.7,0,0,1,2.83-1.79l-.08-.24a8.08,8.08,0,0,0-2.92,1.85,32.6,32.6,0,0,0-2.51,2.72Zm5.31-4.49a7.32,7.32,0,0,1,3.22-.18,33.15,33.15,0,0,1,3.53.74l.06-.24a33.75,33.75,0,0,0-3.56-.75,7.7,7.7,0,0,0-3.33.19Zm6.76.56a25.88,25.88,0,0,0,3.36.7,3.77,3.77,0,0,0,2.54-.36l-.14-.2a3.5,3.5,0,0,1-2.37.31,26.42,26.42,0,0,1-3.33-.69Zm5.91.34a3.73,3.73,0,0,0,1.15-2.3,28.12,28.12,0,0,0,.39-3.37l-.25,0a25.19,25.19,0,0,1-.38,3.34,3.51,3.51,0,0,1-1.05,2.15Zm1.53-5.67a27,27,0,0,1,.4-3.54,7.38,7.38,0,0,1,1.19-3l-.2-.15a7.71,7.71,0,0,0-1.24,3.09,27.85,27.85,0,0,0-.4,3.57Zm1.59-6.53c1.29-1.74,3.63-2.71,6-3.63l-.09-.23c-2.3.92-4.71,1.91-6.06,3.71ZM71,56a31,31,0,0,0,3-1.33,6.17,6.17,0,0,0,1.16-.78,2.23,2.23,0,0,0,.66-.91l-.24-.08a1.9,1.9,0,0,1-.59.8,6.3,6.3,0,0,1-1.11.75,27.5,27.5,0,0,1-3,1.32Zm4.82-3a2.19,2.19,0,0,0,0-1.14,6.8,6.8,0,0,0-.47-1.32,28.7,28.7,0,0,0-1.63-2.85l-.21.13a28.45,28.45,0,0,1,1.61,2.83,5.91,5.91,0,0,1,.45,1.27,2,2,0,0,1,0,1Zm-2.09-5.32A31.61,31.61,0,0,1,72,44.47a7.76,7.76,0,0,1-.83-3.19h-.25a7.92,7.92,0,0,0,.85,3.29,33,33,0,0,0,1.81,3.2Zm-2.62-6.36A7.48,7.48,0,0,1,72,38.12,29.47,29.47,0,0,1,73.77,35l-.21-.13A29.79,29.79,0,0,0,71.72,38a7.65,7.65,0,0,0-.85,3.27ZM73.78,35a27.43,27.43,0,0,0,1.67-2.88,6.41,6.41,0,0,0,.48-1.34,2.3,2.3,0,0,0,0-1.17l-.24.08a1.91,1.91,0,0,1,0,1A5.6,5.6,0,0,1,75.22,32a28.15,28.15,0,0,1-1.65,2.85Zm2.12-5.38a2.15,2.15,0,0,0-.65-.89A6.75,6.75,0,0,0,74.12,28a29.58,29.58,0,0,0-2.94-1.33l-.09.23A27.26,27.26,0,0,1,74,28.17a6.07,6.07,0,0,1,1.09.74,1.93,1.93,0,0,1,.58.79Zm-4.72-3a31.08,31.08,0,0,1-3.4-1.55,7.79,7.79,0,0,1-2.61-2.18L65,23a8,8,0,0,0,2.69,2.25,29.66,29.66,0,0,0,3.43,1.56Zm-6-3.73c-1.29-1.8-1.49-4.32-1.66-6.86l-.25,0c.16,2.52.36,5.11,1.7,7ZM63.51,16a31.22,31.22,0,0,0-.35-3.21,5.63,5.63,0,0,0-.38-1.31,2.12,2.12,0,0,0-.64-.88l-.15.2a1.85,1.85,0,0,1,.56.78,6.12,6.12,0,0,1,.36,1.26A30.32,30.32,0,0,1,63.26,16Zm-1.37-5.4a2.4,2.4,0,0,0-1.1-.38,6.31,6.31,0,0,0-1.43,0,26,26,0,0,0-3.28.69l.06.24a26.46,26.46,0,0,1,3.24-.68,5.81,5.81,0,0,1,1.37,0,2.07,2.07,0,0,1,1,.33ZM56.33,11a28.85,28.85,0,0,1-3.56.73,7.86,7.86,0,0,1-3.3-.2l-.08.24a8,8,0,0,0,3.4.21,30.88,30.88,0,0,0,3.59-.73Zm-6.86.53a7.91,7.91,0,0,1-2.8-1.78A31,31,0,0,1,44.18,7L44,7.16A31.36,31.36,0,0,0,46.5,9.89a8.3,8.3,0,0,0,2.89,1.84ZM44.19,7a26.59,26.59,0,0,0-2.25-2.51,6.38,6.38,0,0,0-1.13-.86,2.27,2.27,0,0,0-1.1-.34v.25a2,2,0,0,1,1,.31,6.26,6.26,0,0,1,1.08.83A26.44,26.44,0,0,1,44,7.17ZM39.71,3.28a2.29,2.29,0,0,0-1.08.33,6.24,6.24,0,0,0-1.11.84A26,26,0,0,0,35.3,6.86l.19.16a25.65,25.65,0,0,1,2.2-2.39,7,7,0,0,1,1.07-.81,1.91,1.91,0,0,1,1-.3V3.28ZM35.29,6.87a32.33,32.33,0,0,1-2.5,2.7,7.72,7.72,0,0,1-2.86,1.79l.08.24A8,8,0,0,0,33,9.75,32.7,32.7,0,0,0,35.48,7Zm-5.35,4.49a7.32,7.32,0,0,1-3.22.18,33.15,33.15,0,0,1-3.53-.74l-.06.24a33.75,33.75,0,0,0,3.56.75A7.7,7.7,0,0,0,30,11.6Zm-6.76-.56a27.94,27.94,0,0,0-3.3-.7,3.67,3.67,0,0,0-2.54.36l.15.2a3.37,3.37,0,0,1,2.36-.31,28.24,28.24,0,0,1,3.27.69Zm-5.84-.35a3.73,3.73,0,0,0-1.15,2.3,28.12,28.12,0,0,0-.39,3.37l.25,0a25.19,25.19,0,0,1,.38-3.34,3.51,3.51,0,0,1,1.05-2.15Zm-1.53,5.67a33.26,33.26,0,0,1-.41,3.57,7.36,7.36,0,0,1-1.18,3l.2.15a7.7,7.7,0,0,0,1.23-3.09,32.21,32.21,0,0,0,.41-3.6Zm-1.59,6.56c-1.29,1.74-3.63,2.71-6,3.63l.09.23c2.3-.92,4.71-1.91,6.06-3.71Zm-6,3.63a28.74,28.74,0,0,0-3,1.34,6.17,6.17,0,0,0-1.16.78,2.23,2.23,0,0,0-.66.91l.24.08a1.9,1.9,0,0,1,.59-.8,6.3,6.3,0,0,1,1.11-.75,27.5,27.5,0,0,1,3-1.32Zm-4.82,3a2.23,2.23,0,0,0,0,1.15,6.65,6.65,0,0,0,.47,1.33A27.86,27.86,0,0,0,5.54,34.7l.21-.13a28.57,28.57,0,0,1-1.61-2.84,6.17,6.17,0,0,1-.45-1.28,2.06,2.06,0,0,1,0-1ZM5.54,34.7a31.61,31.61,0,0,1,1.79,3.18,7.76,7.76,0,0,1,.83,3.19h.25a7.92,7.92,0,0,0-.85-3.29,33,33,0,0,0-1.81-3.2Zm2.62,6.36a7.41,7.41,0,0,1-.83,3.16,29.47,29.47,0,0,1-1.82,3.13l.21.13a29.79,29.79,0,0,0,1.84-3.16,7.65,7.65,0,0,0,.85-3.27H8.16ZM5.5,47.36a27.43,27.43,0,0,0-1.67,2.88,6.41,6.41,0,0,0-.48,1.34,2.3,2.3,0,0,0,0,1.17l.24-.08a1.91,1.91,0,0,1,0-1,5.6,5.6,0,0,1,.46-1.29,28.15,28.15,0,0,1,1.65-2.85ZM3.38,52.74a2.15,2.15,0,0,0,.65.89,6.75,6.75,0,0,0,1.13.77A29.58,29.58,0,0,0,8.1,55.73l.09-.23a27.26,27.26,0,0,1-2.92-1.32,6.07,6.07,0,0,1-1.09-.74,1.82,1.82,0,0,1-.57-.79Zm4.72,3a31.08,31.08,0,0,1,3.4,1.55,7.79,7.79,0,0,1,2.61,2.18l.2-.15a8,8,0,0,0-2.69-2.25,29.66,29.66,0,0,0-3.43-1.56Zm6,3.73c1.29,1.8,1.49,4.32,1.66,6.86l.25,0c-.16-2.52-.36-5.11-1.7-7Zm1.65,6.86a32,32,0,0,0,.35,3.2,5.87,5.87,0,0,0,.38,1.32,2.09,2.09,0,0,0,.64.89l.15-.2a1.85,1.85,0,0,1-.56-.78,6.23,6.23,0,0,1-.36-1.27A30.42,30.42,0,0,1,16,66.32Zm1.37,5.4a2.4,2.4,0,0,0,1.1.38,6.31,6.31,0,0,0,1.43,0A29.76,29.76,0,0,0,23,71.42l-.06-.24a28.14,28.14,0,0,1-3.24.65,6.4,6.4,0,0,1-1.37,0,2.15,2.15,0,0,1-1-.33ZM23,71.42a19.19,19.19,0,0,1,4.88-.85v-.25a19.51,19.51,0,0,0-4.95.86ZM39.57,82.13V82h0v.25h0V82h0v.25h0Zm0-.13a5.82,5.82,0,0,1-3.7-1.48,24.59,24.59,0,0,1-3.1-3.24l-.19.16a25,25,0,0,0,3.13,3.27,6.1,6.1,0,0,0,3.86,1.53Zm-6.79-4.71c-.64-.77-1.31-1.55-2-2.19a5.38,5.38,0,0,0-1.92-1.35l-.08.24a5.42,5.42,0,0,1,1.83,1.29,28.46,28.46,0,0,1,1.94,2.18ZM28.9,73.74a5.08,5.08,0,0,0-2.32,0c-.9.14-1.89.38-2.86.63l.06.24c1-.25,2-.49,2.84-.63a5.12,5.12,0,0,1,2.2,0Zm-5.18.59a25,25,0,0,1-4.45.81,5.86,5.86,0,0,1-3.89-1l-.15.2a6.1,6.1,0,0,0,4.05,1,25,25,0,0,0,4.49-.81Zm-8.34-.18a5.72,5.72,0,0,1-2.06-3.29,22.29,22.29,0,0,1-.56-4.36l-.25,0a23.94,23.94,0,0,0,.57,4.41,6,6,0,0,0,2.15,3.42Zm-2.62-7.64c-.07-1-.14-2.06-.3-3a5.61,5.61,0,0,0-.81-2.3l-.2.15a5.4,5.4,0,0,1,.77,2.2,26.56,26.56,0,0,1,.29,3Zm-1.11-5.29a5.62,5.62,0,0,0-2-1.48c-.83-.43-1.8-.83-2.76-1.22l-.1.23c1,.39,1.92.79,2.74,1.21a5.51,5.51,0,0,1,1.86,1.4Zm-4.71-2.7a24.14,24.14,0,0,1-4-1.91,5.57,5.57,0,0,1-2.47-3l-.24.07a5.83,5.83,0,0,0,2.57,3.1,24.59,24.59,0,0,0,4,1.93ZM.49,53.65a5.75,5.75,0,0,1,.28-4,24.26,24.26,0,0,1,2.18-4l-.21-.13a25.45,25.45,0,0,0-2.2,4,6,6,0,0,0-.29,4.14ZM3,45.72C3.48,44.88,4,44,4.42,43.23A5.19,5.19,0,0,0,5.11,41H4.86a5,5,0,0,1-.66,2.08c-.4.79-.93,1.64-1.46,2.47ZM5.11,41a5.34,5.34,0,0,0-.69-2.24C4,38,3.47,37.11,3,36.27l-.21.13c.53.84,1.06,1.69,1.46,2.49A5.18,5.18,0,0,1,4.86,41h.25ZM3,36.27A23.65,23.65,0,0,1,.82,32.34,5.72,5.72,0,0,1,.56,28.4l-.24-.08a6,6,0,0,0,.27,4.11,24.77,24.77,0,0,0,2.15,4ZM.55,28.41a5.81,5.81,0,0,1,2.53-3,24.92,24.92,0,0,1,4-1.92L7,23.27A23.78,23.78,0,0,0,3,25.21,6.06,6.06,0,0,0,.31,28.33ZM7.11,23.5c.94-.38,1.9-.76,2.72-1.19a5.49,5.49,0,0,0,1.91-1.41l-.2-.15a5.35,5.35,0,0,1-1.83,1.34c-.81.42-1.76.8-2.7,1.18Zm4.64-2.6a5.32,5.32,0,0,0,.73-2.13c.15-.87.22-1.87.29-2.85l-.25,0c-.07,1-.14,2-.28,2.83a4.92,4.92,0,0,1-.68,2Zm1-5a22.5,22.5,0,0,1,.6-4.44A6,6,0,0,1,15.55,8l-.15-.2a6.27,6.27,0,0,0-2.28,3.6,23.43,23.43,0,0,0-.61,4.49ZM15.54,8a6.06,6.06,0,0,1,4-1A24.57,24.57,0,0,1,24,7.85L24,7.61a24.64,24.64,0,0,0-4.49-.83,6.35,6.35,0,0,0-4.15,1ZM24,7.86c1,.25,1.93.49,2.81.63a4.86,4.86,0,0,0,2.27,0L29,8.21a4.61,4.61,0,0,1-2.15,0C26,8.11,25,7.86,24,7.62Zm5.08.58a5.54,5.54,0,0,0,2-1.35c.66-.64,1.33-1.42,2-2.19l-.19-.16c-.66.77-1.32,1.55-2,2.18A5.18,5.18,0,0,1,29,8.21ZM33,4.9a23.25,23.25,0,0,1,3.06-3.19A5.76,5.76,0,0,1,39.71.25V0a6.07,6.07,0,0,0-3.8,1.51,23.65,23.65,0,0,0-3.09,3.22ZM39.71.25a5.79,5.79,0,0,1,3.67,1.48A25.07,25.07,0,0,1,46.47,5l.19-.16a25.58,25.58,0,0,0-3.12-3.27A6,6,0,0,0,39.71,0ZM46.47,5c.64.77,1.31,1.55,2,2.19A5.38,5.38,0,0,0,50.35,8.5l.08-.24A5.33,5.33,0,0,1,48.6,7c-.64-.63-1.3-1.41-1.94-2.18Zm3.88,3.55a5.14,5.14,0,0,0,2.33,0c.89-.14,1.88-.38,2.85-.63l-.06-.24c-1,.25-1.95.49-2.83.63a5,5,0,0,1-2.21,0Zm5.18-.59A23.36,23.36,0,0,1,60,7.1a5.82,5.82,0,0,1,3.88,1L64,7.9a6.07,6.07,0,0,0-4-1.05,23.36,23.36,0,0,0-4.5.83Zm8.34.18a5.72,5.72,0,0,1,2.06,3.28,22.29,22.29,0,0,1,.56,4.36l.25,0a23.94,23.94,0,0,0-.57-4.41A6,6,0,0,0,64,7.89Zm2.62,7.65c.07,1,.14,2.06.3,3A5.61,5.61,0,0,0,67.6,21l.2-.15a5.4,5.4,0,0,1-.77-2.2,29.11,29.11,0,0,1-.3-2.95ZM67.6,21a5.62,5.62,0,0,0,2,1.48c.83.43,1.8.83,2.76,1.22l.1-.23c-1-.39-1.92-.79-2.73-1.21a5.51,5.51,0,0,1-1.86-1.4Zm4.7,2.7a23.54,23.54,0,0,1,4,1.91,5.68,5.68,0,0,1,2.48,3l.24-.08a6,6,0,0,0-2.59-3.1,24.49,24.49,0,0,0-4-1.93Zm6.46,4.87a5.75,5.75,0,0,1-.28,4,24.26,24.26,0,0,1-2.18,4l.21.13a25.45,25.45,0,0,0,2.2-4A6,6,0,0,0,79,28.52ZM76.3,36.53c-.53.84-1.07,1.69-1.47,2.49a5.19,5.19,0,0,0-.69,2.2h.25a5,5,0,0,1,.66-2.08c.4-.79.93-1.64,1.46-2.47Zm-2.16,4.69a5.34,5.34,0,0,0,.69,2.24c.41.81,1,1.68,1.47,2.52l.21-.13c-.53-.84-1.06-1.69-1.46-2.49a5.18,5.18,0,0,1-.66-2.13h-.25ZM76.3,46a23.65,23.65,0,0,1,2.13,3.93,5.72,5.72,0,0,1,.26,3.94l.24.08a6,6,0,0,0-.27-4.11,24.77,24.77,0,0,0-2.15-4Zm2.4,7.87a5.81,5.81,0,0,1-2.53,3,24.92,24.92,0,0,1-4,1.92l.09.23a23.78,23.78,0,0,0,4.06-1.94,6,6,0,0,0,2.63-3.12Zm-6.56,4.9c-.94.38-1.9.76-2.72,1.19a5.49,5.49,0,0,0-1.91,1.41l.2.15a5.45,5.45,0,0,1,1.83-1.34c.81-.42,1.76-.8,2.7-1.18ZM67.5,61.36a5.32,5.32,0,0,0-.73,2.13c-.15.87-.22,1.87-.29,2.85l.25,0c.07-1,.14-2,.28-2.83a5,5,0,0,1,.68-2Zm-1,5a22.7,22.7,0,0,1-.6,4.45,6,6,0,0,1-2.19,3.47l.15.2a6.27,6.27,0,0,0,2.28-3.6,23.43,23.43,0,0,0,.61-4.49Zm-2.78,7.91a6.06,6.06,0,0,1-4,1,24.57,24.57,0,0,1-4.44-.82l-.06.24a24.64,24.64,0,0,0,4.49.83,6.29,6.29,0,0,0,4.15-1Zm-8.44.14a28.05,28.05,0,0,0-2.8-.62,5.38,5.38,0,0,0-2.28,0l.07.24a5.18,5.18,0,0,1,2.17,0c.86.13,1.82.37,2.78.61Zm-5.08-.58a5.67,5.67,0,0,0-2,1.35c-.66.64-1.33,1.42-2,2.19l.19.16c.66-.77,1.32-1.55,2-2.18A5.18,5.18,0,0,1,50.26,74Zm-3.95,3.55a23.07,23.07,0,0,1-3,3.19A5.74,5.74,0,0,1,39.57,82v.25a6,6,0,0,0,3.79-1.51,22.87,22.87,0,0,0,3.06-3.22Z"/></g></g></svg>