<svg xmlns="http://www.w3.org/2000/svg" viewBox="0 0 224.02 151.88"><defs><style>.cls-1{fill:#45bfe0;}.cls-1,.cls-10,.cls-11,.cls-12,.cls-2,.cls-3,.cls-4,.cls-6,.cls-7,.cls-8,.cls-9{fill-rule:evenodd;}.cls-2{fill:#002247;}.cls-3{fill:#f08233;}.cls-4{fill:#001128;}.cls-5,.cls-6{fill:#b6d1ce;}.cls-7{fill:#fff;}.cls-8{fill:#f49e76;}.cls-9{fill:#e77556;}.cls-10{fill:none;stroke:#002247;stroke-miterlimit:10;stroke-width:4px;}.cls-11{fill:#004476;}.cls-12{fill:#002b46;}</style></defs><title>Asset 27</title><g id="Layer_2" data-name="Layer 2"><g id="Isolation_Mode" data-name="Isolation Mode"><path class="cls-1" d="M116.23,38.29c-4.83,5-.45,17.15,7.27,15.39,8.29-1.9,7-14.82-.45-16.94A6.56,6.56,0,0,0,116.23,38.29Z"/><path class="cls-2" d="M154.68,54.34a13.83,13.83,0,0,1-6.51,3.74c-4.84,1.11-9.37-1-13.4-3.47-4.31-2.62-8.6-5.27-12.67-8.26-2.9-2.14-5.87-4.41-7.68-7.6-2.1-3.7-2.23-8.15-1.8-12.28.3-2.83-1-5.36-1.6-8-1.13-5.24,0-11.42,4.91-14.42,2.49-1.54,5.1-1.31,7.73-.18a51.52,51.52,0,0,0,6,2.66C134.13,7.75,139,6,143.38,5.1c3.18-.66,6.66-1,9.79.05,3.49,1.17,5.15,3.72,7.06,6.68,1.63,2.52,4.1,4.43,6.07,6.67a11.84,11.84,0,0,1,2.55,10.7c-1.31,5.7-4.58,10.59-7.42,15.58C159.61,48,157.48,51.63,154.68,54.34Z"/><path class="cls-3" d="M118.72,108.4c5.81-8.94,9.42-19.92,4.37-30a4.39,4.39,0,0,0-2.21-2.5c-2.33-.78-5.5.06-7.53,1.25C106.31,81.27,102,89,98.05,96c-4.11,7.19-7.68,14.67-11.8,21.84A39.56,39.56,0,0,0,82,126.87a14.35,14.35,0,0,0,.2,8.84c4.63,12,17.38-2.69,21.26-7.12A178.23,178.23,0,0,0,118.72,108.4Z"/><path class="cls-4" d="M147.64,54.19a7.73,7.73,0,0,1-2.17,1.63,9.49,9.49,0,0,1-6.9.3,22.34,22.34,0,0,1-6.21-3.34c-5.21-3.68-11.66-8.55-14.76-14.22-1.92-3.49-3.33-7.61-1.5-11.42a10.61,10.61,0,0,1,8.42-6,1.64,1.64,0,0,1,.88.09,1.74,1.74,0,0,1,.68.74,55.89,55.89,0,0,0,4,6.49,23.62,23.62,0,0,0,6.28,5.19c3.83,2.32,8,4,11.62,6.69,2.59,1.92,2.66,6.24,2,9.23A9.78,9.78,0,0,1,147.64,54.19Z"/><path class="cls-1" d="M176.8,97c1.84-6.71,2.79-13.57-1.37-18.14-1.88-2.06-5.23-3.5-8-4.52-5.35-2-10.81-4.67-16.54-5.54-6-.92-12.74-1.48-18.76-.17a48.27,48.27,0,0,0-10.8,4c-4.59,2.23-7.85,3.73-9.33,8.31a77.26,77.26,0,0,0-3.17,15.57c-1.62,15.37.52,30.78.47,46.17a8.79,8.79,0,0,0,.79,4.44c1.51,2.68,5.62,2.72,8.59,2.71l29.3,0a57.17,57.17,0,0,1,11,1.1,7,7,0,0,0,7.51-3.4c1.46-2.44,1.57-5.29,1.72-8a151.29,151.29,0,0,1,5.24-31.66C174.27,104.84,175.69,101,176.8,97Z"/><path class="cls-3" d="M153.17,77.44a9.8,9.8,0,0,0,1.37-7.92,32.39,32.39,0,0,0-3.62-.77c-6-.92-12.74-1.48-18.76-.17-.68.15-1.36.32-2,.51a7.23,7.23,0,0,0-1.8,2.46,8,8,0,0,0,.73,7.56A9.7,9.7,0,0,0,135,83.23a21.35,21.35,0,0,0,12.31-.74A12.66,12.66,0,0,0,153.17,77.44Z"/><path class="cls-1" d="M114.81,149.26c.36.17.72.33,1.09.48,1,.07,1.94.08,2.81.07l29.3,0a57.17,57.17,0,0,1,11,1.1,7,7,0,0,0,7.51-3.4c1.46-2.44,1.57-5.29,1.72-8a151.29,151.29,0,0,1,5.24-31.66c.42-1.55,1-3.36,1.66-5.31-.25-1.64-.73-2.81-1.66-2.76a1.52,1.52,0,0,0-.82.34,9.24,9.24,0,0,0-2.74,4.23c-2,4.94-3.74,12.84-8,16.3-4.44,3.64-9.55,5.33-14.93,7.07-9.33,3-19.73,4.33-27.63,10.55-1.32,1-2.57,2.18-3.79,3.33s-2.6,2.11-3.26,3.56C111.31,147.34,112.92,148.36,114.81,149.26Z"/><path class="cls-3" d="M197.83,112.93q2.23,4,4.41,8c2.94,5.48,8.39,17.64-.34,20.64-4.4,1.52-6.92,0-9.82-3.17a184.84,184.84,0,0,1-27.82-40.3c-2.77-5.43-10.12-19.57-1.19-22.8a10.82,10.82,0,0,1,8.7.63,17.5,17.5,0,0,1,3.3,2.44c6.44,5.74,11,13.15,15.11,20.67C192.7,103.73,195.28,108.33,197.83,112.93Z"/><path class="cls-3" d="M153.35,132.56l2.31-.37c3.74-.58,7.48-1.27,11.19-2.07a192.43,192.43,0,0,1,22.23-3.63c.8-.08,1.59-.14,2.39-.2,3.35-.26,6.87-.34,9.93,1.22s5.51,5.27,4.75,8.85a7.86,7.86,0,0,1-4.68,5.36,20.52,20.52,0,0,1-6.95,1.29l-22.92,1.55-11.35.77c-3.61.26-7.28.76-10.9.76a7.34,7.34,0,0,1-4.53-1.27c-1.79-1.39-2.86-4.34-3-6.65a4,4,0,0,1,1.1-3.41,3.77,3.77,0,0,1,1.76-.63C147.55,133.6,150.44,133.05,153.35,132.56Z"/><rect class="cls-5" x="87.53" y="135.28" width="36.23" height="7.09"/><path class="cls-6" d="M93.75,136,84.61,89.41A2.62,2.62,0,0,0,82,87.3H21.25a2.6,2.6,0,0,0-2.11,1.08h0l-2.81,3.32,2.49-.55,9,45.83a2.62,2.62,0,0,0,2.57,2.12H91.18A2.62,2.62,0,0,0,93.75,136Z"/><path class="cls-7" d="M27.62,142.37H88.4A2.62,2.62,0,0,0,91,139.24L81.83,92.69a2.61,2.61,0,0,0-2.57-2.11H18.47A2.61,2.61,0,0,0,15.9,93.7L25,140.25A2.63,2.63,0,0,0,27.62,142.37Z"/><path class="cls-6" d="M46.73,115.32A7.11,7.11,0,0,0,53.44,121,4.55,4.55,0,0,0,58,115.32a7.17,7.17,0,0,0-6.7-5.69A4.6,4.6,0,0,0,46.73,115.32Z"/><path class="cls-8" d="M145.47,79.64c2.66-.85,4.85-2.5,5.67-5.13.74-2.38-.43-5.06-.64-7.47a45.8,45.8,0,0,1-.08-6.93,29.87,29.87,0,0,0,0-6.48c-.19-1.21-.85-1-2.08-1.49a10.65,10.65,0,0,0-4-.48c-2.73,0-9.86-.19-11.55,2.21a6.73,6.73,0,0,0-.88,3.8c0,1.58-.32,3.63-.58,5.84-.12,1-.05,2-.2,2.94a18,18,0,0,1-.95,3.19c-1.37,4-.08,7.74,4.2,9.55A17,17,0,0,0,145.47,79.64Z"/><path class="cls-9" d="M150.43,53.63c-.19-1.21-.86-1-2.09-1.49a10.63,10.63,0,0,0-3.94-.48c-2.74,0-9.87-.19-11.56,2.21a6.8,6.8,0,0,0-.87,3.8c-.05,1.58-.33,3.63-.59,5.84-.11,1,0,2-.19,2.94a13.81,13.81,0,0,1-.68,2.44,14.45,14.45,0,0,0,8.41.53,19.23,19.23,0,0,0,11.45-8.37c0-.31,0-.62,0-.94A30.51,30.51,0,0,0,150.43,53.63Z"/><path class="cls-8" d="M154.4,38a33.71,33.71,0,0,0-1.47-10c-4.05-12.41-19.54-15.48-28.86-6.57-10.4,9.94-6.42,33.7,4.53,42a12.29,12.29,0,0,0,10.47,2.07C149.83,62.67,154.46,49.43,154.4,38Z"/><path class="cls-9" d="M152.93,28c-4.05-12.41-19.54-15.48-28.86-6.57a16.63,16.63,0,0,0-3,3.88,11.13,11.13,0,0,0,1.63,1.17,47.58,47.58,0,0,0,12.64,5.29c1.91.5,3.92.9,5.48,2.1A8.05,8.05,0,0,1,143,36.45a23.75,23.75,0,0,1,1.57,3.8A44.79,44.79,0,0,1,146.31,49a1.41,1.41,0,0,0,.32.85,1.12,1.12,0,0,0,.82.23c1.72,0,2.55-1.69,3.89-2.56.8-.53,1.61-1.06,2.37-1.64A42.85,42.85,0,0,0,154.4,38,33.71,33.71,0,0,0,152.93,28Z"/><path class="cls-2" d="M144.72,36a24.56,24.56,0,0,1,1.06,4,44.73,44.73,0,0,1,.63,8.88,1.41,1.41,0,0,0,.21.88,1.17,1.17,0,0,0,.79.34c1.7.18,2.74-1.35,4.18-2a22.62,22.62,0,0,0,4.3-2.47c3.71-2.9,2.86-7.7,2.75-12a26.24,26.24,0,0,0-.83-7,17.14,17.14,0,0,0-3.95-6.51,25.33,25.33,0,0,0-19.93-7.77A16.62,16.62,0,0,0,123.6,16.7c-2.23,2.26.49,5.32,2.33,6.78a47.79,47.79,0,0,0,11.85,6.89c1.83.73,3.77,1.39,5.16,2.78A8.09,8.09,0,0,1,144.72,36Z"/><path class="cls-8" d="M152.36,38.32c4.77-2.6,6.23,4,5.41,7.28a10.5,10.5,0,0,1-1.71,3.79c-1.14,1.5-4.38,4-6.25,2.35a4.21,4.21,0,0,1-1-3.14C148.78,45.57,149.13,40.09,152.36,38.32Z"/><path class="cls-10" d="M114.19,25.09c-2-5.73-6.15-10.34-3.79-16.77a9.64,9.64,0,0,1,9-6.32,10.64,10.64,0,0,1,5.43,1.39c2,1.12,3.23,2.95,5.51,3.57,5.35,1.44,10.89-2.64,16-3.59s10.44.72,12.92,5.55c1,1.91,1.39,4.11,2.68,5.82,2.14,2.87,6.31,3.84,8,7,2.77,5.14-2.92,12.57-5.82,16.52"/><path class="cls-1" d="M136.84,60.05a23.36,23.36,0,0,1-3.52-.26l.21-1.43a21.67,21.67,0,0,0,12.33-1.72,16.19,16.19,0,0,0,2.67-1.53A12.6,12.6,0,0,0,152,51.3l1.25.73a14.25,14.25,0,0,1-3.86,4.25A17.26,17.26,0,0,1,146.47,58,22.87,22.87,0,0,1,136.84,60.05Z"/><path class="cls-11" d="M129.15,57.22c1.74-1.49,5.61-1.36,6.89.19a2.54,2.54,0,0,1-.38,3.58c-1.24,1.15-2.76,1.09-4.3.74C129.43,61.3,127.05,59,129.15,57.22Z"/><path class="cls-12" d="M127.64,12.06a23.36,23.36,0,0,0,2.51,0q1.24-.09,2.49-.27c1.65-.24,3.29-.57,5-.8a25.34,25.34,0,0,1,5.08-.24,11.72,11.72,0,0,1,5,1.34,7.64,7.64,0,0,1,1.09.77,8.26,8.26,0,0,1,.92.95,6.33,6.33,0,0,1,.73,1.12,5.17,5.17,0,0,1,.47,1.26A4.67,4.67,0,0,1,151,17.5a6.78,6.78,0,0,1-.19,1.31c-.1.42-.2.82-.27,1.21a5.08,5.08,0,0,0,0,1.17,7.29,7.29,0,0,0,.71,2.3c.34.74.76,1.47,1.15,2.22a10.39,10.39,0,0,1,.92,2.38,5.34,5.34,0,0,1,.13,1.26,4.06,4.06,0,0,1-.22,1.25,4.57,4.57,0,0,0-.13-2.46,10.36,10.36,0,0,0-1-2.24c-.42-.72-.88-1.43-1.28-2.18a7.41,7.41,0,0,1-.85-2.46,5,5,0,0,1,0-1.34c.06-.44.16-.85.25-1.26a6.05,6.05,0,0,0,.15-1.17,4,4,0,0,0-.15-1.15,6,6,0,0,0-2.87-3.59,11,11,0,0,0-4.65-1.28,26.46,26.46,0,0,0-4.95.11c-1.66.17-3.32.41-5,.56-.84.07-1.68.11-2.53.11A17.56,17.56,0,0,1,127.64,12.06Z"/><path class="cls-11" d="M154.36,36.45c-6.72,1.72-9.32,14.39-1.82,16.91,8.06,2.71,13.74-9,8.45-14.68A6.56,6.56,0,0,0,154.36,36.45Z"/><path class="cls-1" d="M156.57,38.07c-4.65.75-7.5,10.61-2.72,13.33,5.14,2.91,10-5.87,6.94-10.93C159.61,38.5,158.06,37.83,156.57,38.07Z"/><path class="cls-1" d="M157.5,37.33l-1.79-.2c1.22-10.52.7-24-8.68-28.24-4.44-2-8.49-3.49-15.71-2.07a6.84,6.84,0,0,1-1.87-.53C136,3.1,143,5.05,147.78,7.25,158.15,12,158.79,26.23,157.5,37.33Z"/><path class="cls-7" d="M152.56,99.78l-1.66-1.65a.14.14,0,0,1,0-.21l.85-.85a.15.15,0,0,1,.21,0h0l1.66,1.65a.17.17,0,0,1,0,.21l-.86.85a.14.14,0,0,1-.2,0Z"/><path class="cls-7" d="M151,98.25v.28a.09.09,0,0,1,0,.07l-.81.81a.12.12,0,0,0,0,.14h0l.95.94a.09.09,0,0,0,.13,0h0l.81-.81a.11.11,0,0,1,.07,0h.28l-1.4-1.4Zm.44,1.44-.23.22a.06.06,0,0,1-.09,0h0l-.38-.38a.06.06,0,0,1,0-.09h0l.22-.23a.07.07,0,0,1,.09,0h0l.38.38a.09.09,0,0,1,0,.1Z"/><path class="cls-7" d="M149.63,93.37a3.15,3.15,0,0,0-2.2-.92,3,3,0,0,0-3,3h0a2.94,2.94,0,0,0,.05.51,3.49,3.49,0,0,0,.41,1,8.87,8.87,0,0,0,.93,1.07l.07.08,3.71,3.71a.13.13,0,0,0,.2,0l.77-.77a.15.15,0,0,0,0-.2l-3.24-3.24-.76-.77a2.54,2.54,0,0,1-.29-.36,2.37,2.37,0,0,1-.38-.85,1.69,1.69,0,0,1,.08-.92l.09-.19.2-.24a1.61,1.61,0,0,1,1.14-.47,2.11,2.11,0,0,1,1.61.92l.19.2.38.4a.14.14,0,0,0,.2,0h0l.39-.39.21-.23a2.14,2.14,0,0,1,1.6-.9A1.62,1.62,0,0,1,153.56,95a.1.1,0,0,1,0,0,1,1,0,0,1,0,.25,2,2,0,0,1-.09.6,1.67,1.67,0,0,1-.07.19,2.27,2.27,0,0,1-.27.45l-.3.33-.57.56,1,1,.84-.84a2.94,2.94,0,0,0,.87-2.11,3,3,0,0,0-3-3,3.12,3.12,0,0,0-2.19.92A.13.13,0,0,1,149.63,93.37Z"/><polygon class="cls-7" points="140.63 103.69 141.09 103.69 141.09 104.5 141.93 104.5 141.93 103.69 142.38 103.68 142.38 105.78 141.93 105.78 141.93 104.93 141.09 104.93 141.09 105.78 140.64 105.78 140.63 103.69"/><path class="cls-7" d="M143.42,104.26a.78.78,0,1,1-.8.78.77.77,0,0,1,.8-.78Zm0,1.16a.38.38,0,1,0-.37-.39h0A.37.37,0,0,0,143.42,105.42Z"/><path class="cls-7" d="M144.45,106.4v-2.1h.43v.2a.56.56,0,0,1,.48-.24.78.78,0,0,1,0,1.55.56.56,0,0,1-.48-.23v.82Zm.8-1.74a.37.37,0,0,0-.39.38.38.38,0,0,0,.38.38.39.39,0,0,0,.39-.38h0a.38.38,0,0,0-.37-.38Z"/><path class="cls-7" d="M146.79,105.1a.45.45,0,0,0,.41.3c.14,0,.27-.08.27-.21s-.07-.17-.22-.23l-.25-.09a.62.62,0,0,1,.18-1.22.77.77,0,0,1,.72.45l-.38.21a.36.36,0,0,0-.33-.25c-.14,0-.23.08-.23.19s.07.16.2.2l.27.11c.34.13.5.32.5.6a.68.68,0,0,1-.74.66.83.83,0,0,1-.79-.51Z"/><polygon class="cls-7" points="149.61 104.3 149 104.96 149.65 105.78 149.13 105.78 148.67 105.19 148.6 105.27 148.6 105.78 148.17 105.78 148.17 103.68 148.6 103.68 148.6 104.83 149.09 104.3 149.61 104.3"/><path class="cls-7" d="M150.05,104.13a.26.26,0,0,1-.25-.26.25.25,0,0,1,.25-.25.26.26,0,0,1,.26.25.27.27,0,0,1-.26.26Zm-.22.17h.44v1.48h-.44Z"/><path class="cls-7" d="M150.58,106.4v-2.1H151v.2a.54.54,0,0,1,.48-.23.72.72,0,0,1,.69.77.73.73,0,0,1-.69.78.56.56,0,0,1-.48-.23v.81Zm.8-1.74a.38.38,0,0,0-.39.38.4.4,0,0,0,.38.39.39.39,0,0,0,.39-.38h0a.37.37,0,0,0-.37-.38h0Z"/><path class="cls-7" d="M153.31,105.78h-.71v-2.1h.71a1.05,1.05,0,1,1,0,2.1Zm0-1.67h-.24v1.25h.24a.63.63,0,1,0,0-1.25Z"/><path class="cls-7" d="M155.53,104.73a.2.2,0,0,0-.11,0c-.24,0-.38.18-.38.47v.6h-.44V104.3H155v.24a.48.48,0,0,1,.43-.27h.07Z"/><path class="cls-7" d="M156,104.13a.26.26,0,0,1-.25-.26.25.25,0,0,1,.5,0,.26.26,0,0,1-.25.26Zm-.22.17h.44v1.48h-.44Z"/><polygon class="cls-7" points="156.37 104.3 156.83 104.3 157.18 105.23 157.52 104.3 157.97 104.3 157.37 105.78 156.97 105.78 156.37 104.3"/><path class="cls-7" d="M159.45,105.43a.72.72,0,0,1-.68.39.78.78,0,1,1,.73-.77v.11h-1.09a.35.35,0,0,0,.36.3.33.33,0,0,0,.31-.18l.37.15Zm-.37-.55a.33.33,0,0,0-.33-.28.32.32,0,0,0-.33.28Z"/><path class="cls-6" d="M219.5,151.88H4.52a4.76,4.76,0,0,1,0-9.51h215a4.76,4.76,0,0,1,0,9.51Z"/><path class="cls-8" d="M144.7,144c-1.81.38-3.22,2-5,2.49a6.15,6.15,0,0,1-3.88-.28c-1.14-.43-2.29-.65-3.45-1-.91-.29-2.13-.9-3.11-.7-2.55.54-5.1,2.35-7.41,3.53a2.66,2.66,0,0,1-1.67.43c-.57-.11-1-.8-.72-1.29-.67.63-1.55,1.87-2.62,1.39a.9.9,0,0,1-.46-1.2,3.71,3.71,0,0,1-1.27,1,1.25,1.25,0,0,1-1.48-.35,1.43,1.43,0,0,1-.19-.74,5.53,5.53,0,0,1,.59-2.57c1.82-4,5.94-6.92,9.45-9.29a7.54,7.54,0,0,1,2-1.07,7.37,7.37,0,0,1,2-.22,39.89,39.89,0,0,1,12.82,2.07A5.39,5.39,0,0,0,143,136a4.33,4.33,0,0,1,2,0,3.47,3.47,0,0,1,1.72,1.38,6.46,6.46,0,0,1,1.32,4c-.07,1.06-.15,2.21-1.4,2.44-.51.09-1,0-1.55.09Z"/></g></g></svg>