<?xml version="1.0" encoding="utf-8"?>
<!-- Generator: Adobe Illustrator 24.0.3, SVG Export Plug-In . SVG Version: 6.00 Build 0)  -->
<svg version="1.1" id="Layer_1" xmlns="http://www.w3.org/2000/svg" xmlns:xlink="http://www.w3.org/1999/xlink" x="0px" y="0px"
	 viewBox="0 0 44 46" style="enable-background:new 0 0 44 46;" xml:space="preserve">
<style type="text/css">
	.st0{fill:none;stroke:#194a79;stroke-width:2;stroke-miterlimit:10;}
</style>
<g>
	<path class="st0" d="M10.47,26.61v-2l-6-7l-1.83-3.06c-0.64-1.59,0.2-4.39,1.83-4.94l3,5l4,4c0.64,0.66,1.97,1,2.88,1h2.23
		c0.91,0,2.25-0.34,2.88-1l4-4l3-5c1.63,0.54,2.46,3.34,1.83,4.94l-1.83,3.06l-6,7v10"/>
	<path class="st0" d="M15.47,9.61c1.8,0,3,1.35,3,3.01v1c0,1.66-1.2,3.01-3,3.01s-3-1.35-3-3.01v-1
		C12.47,10.96,13.67,9.61,15.47,9.61z"/>
	<path class="st0" d="M28.47,32.63c-1.8,0-3-1.35-3-3.01v-1c0-1.66,1.2-3.01,3-3.01c1.8,0,3,1.35,3,3.01v1
		C31.47,31.28,30.28,32.63,28.47,32.63z"/>
	<path class="st0" d="M22.51,44.61v-5c0-3.3,3.53-4,5.96-4h1.12c0.76,0,1.8-0.52,2.88-1l4-2l3-7l0,0c1.63,0.54,2.46,4.34,1.83,5.94
		l-1.83,4.06l-5.96,5v4"/>
	<path class="st0" d="M12.47,35.63c1.8,0,3-1.35,3-3.01v-1c0-1.66-1.2-3.01-3-3.01s-3,1.35-3,3.01v1
		C9.47,34.28,10.67,35.63,12.47,35.63z"/>
	<path class="st0" d="M6.47,44.61v-2c0-3.3,3.57-4,6-4s6,0.7,6,4v2"/>
	<line class="st0" x1="15.47" y1="5.61" x2="15.47" y2="0.61"/>
	<line class="st0" x1="19.51" y1="6.61" x2="22.51" y2="3.61"/>
	<line class="st0" x1="11.51" y1="6.61" x2="8.51" y2="3.61"/>
</g>
</svg>
