<?xml version="1.0" encoding="utf-8"?>
<!-- Generator: Adobe Illustrator 24.0.3, SVG Export Plug-In . SVG Version: 6.00 Build 0)  -->
<svg version="1.1" id="Layer_1" xmlns="http://www.w3.org/2000/svg" xmlns:xlink="http://www.w3.org/1999/xlink" x="0px" y="0px"
	 viewBox="0 0 78 104" style="enable-background:new 0 0 78 104;" xml:space="preserve">
<style type="text/css">
	.st0{fill:#194a79;}
</style>
<path class="st0" d="M74.87,44.23c-8.68,0-17.37,0-26.05,0c-9.17,0-18.34,0-27.51,0c-5.82,0-11.63,0-17.45,0
	c-0.83,0-1.53,0.7-1.53,1.55c0,8.97,0,17.95,0,26.92c0,9.65,0,19.33,0,28.99c0,0.02,0,0.04,0,0.04c0,2,3.05,2,3.05,0
	c0-9.2,0-18.4,0-27.6c0-9.14,0-18.3,0-27.44c0-0.31,0-0.62,0-0.93c-0.51,0.52-1.02,1.03-1.53,1.55c8.56,0,17.14,0,25.7,0
	c9.7,0,19.4,0,29.08,0c5.41,0,10.82,0,16.21,0C76.82,47.33,76.82,44.23,74.87,44.23z"/>
<path class="st0" d="M3.66,45.14c-0.84,0,0.02,0.06-0.29,0.36c0.14-0.14,0.27-0.26,0.41-0.4c0.7-0.69,1.4-1.38,2.07-2.04
	c2.26-2.22,4.52-4.45,6.78-6.67c1.87-1.84,3.74-3.68,5.61-5.52c0.18-0.18,0.37-0.36,0.55-0.55c0.21-0.2-0.04-0.04,0-0.04
	c0.66,0,1.33,0,1.99,0c6.02,0,12.04,0,18.05,0c1.99,0,1.99-3.03,0-3.03c-5.07,0-10.17,0-15.24,0c-1.21,0-2.42,0-3.64,0
	c-0.72,0-1.44-0.06-2.14,0.16c-0.76,0.22-1.29,0.85-1.83,1.4c-0.78,0.77-1.58,1.56-2.36,2.33c-3.2,3.15-6.43,6.33-9.63,9.48
	c-0.9,0.89-1.81,1.78-2.71,2.67c-0.72,0.71-1.09,1.6-0.92,2.63c0.27,1.64,1.75,2.33,3.27,2.33C5.65,48.17,5.65,45.14,3.66,45.14z"/>
<path class="st0" d="M46.81,4.33c4.98,0,9.93,0,14.91,0c0.22,0,0.47,0,0.69,0c0.04,0-0.18-0.04-0.18-0.18
	c-0.02-0.2-0.24,0.27-0.29,0.33c-0.94,1.43-2.22,2.78-1.79,4.62c0.14,0.59,0.63,1.17,0.96,1.66c0.37,0.55,0.73,1.1,1.1,1.66
	c-0.14-0.2,0.47-0.25,0.08-0.25c-0.37,0-0.73,0-1.08,0c-4.79,0-9.58,0-14.37,0c-1.98,0-1.98,3.07,0,3.07c4.98,0,9.93,0,14.9,0
	c1.31,0,2.43-0.25,3.2-1.45c1.1-1.68-0.39-3.38-1.28-4.73c-0.16-0.25-0.33-0.49-0.49-0.74c-0.12-0.18-0.08,0-0.04-0.08
	c0.39-0.59,0.77-1.19,1.18-1.78c0.37-0.55,0.71-1.02,0.92-1.66c0.39-1.25-0.39-2.66-1.51-3.23c-0.94-0.47-2.18-0.31-3.18-0.31
	c-1.79,0-3.61,0-5.4,0c-2.77,0-5.55,0-8.32,0C44.84,1.26,44.84,4.33,46.81,4.33z"/>
<path class="st0" d="M63.83,13.23c2,0,2-3,0-3C61.83,10.23,61.83,13.23,63.83,13.23z"/>
<path class="st0" d="M24.33,45.72c0,8.9,0,17.79,0,26.69c0,9.74,0,19.51,0,29.25c0,0.02,0,0.04,0,0.06c0,2.01,3,2.01,3,0
	c0-9.23,0-18.43,0-27.66c0-9.12,0-18.25,0-27.37c0-0.33,0-0.64,0-0.97C27.33,43.74,24.33,43.74,24.33,45.72z"/>
<path class="st0" d="M70.33,101.74c0-9.23,0-18.43,0-27.66c0-9.12,0-18.25,0-27.37c0-0.33,0-0.64,0-0.97c0-2.01-3-2.01-3,0
	c0,8.9,0,17.79,0,26.69c0,9.74,0,19.49,0,29.25c0,0.02,0,0.04,0,0.06C67.33,103.73,70.33,103.73,70.33,101.74z"/>
<path class="st0" d="M33.33,79.62c0,7.39,0,14.79,0,22.18c0,0.78,0.68,1.43,1.51,1.43c8.33,0,16.65,0,24.98,0
	c0.83,0,1.51-0.65,1.51-1.43c0-7.39,0-14.78,0-22.18c0-1.85-3.02-1.85-3.02,0c0,7.39,0,14.79,0,22.18c0.5-0.48,1.01-0.95,1.51-1.43
	c-8.33,0-16.65,0-24.98,0c0.5,0.48,1.01,0.96,1.51,1.43c0-7.39,0-14.78,0-22.18C36.35,77.77,33.33,77.77,33.33,79.62z"/>
<path class="st0" d="M49.91,78.23c-1.03,0-2.09,0-3.12,0c-0.8,0-1.46,0.65-1.46,1.43c0,7.39,0,14.79,0,22.18
	c0,1.85,2.92,1.85,2.92,0c0-7.39,0-14.78,0-22.18c-0.49,0.48-0.97,0.96-1.46,1.43c1.03,0,2.09,0,3.12,0
	C51.8,81.1,51.8,78.23,49.91,78.23z"/>
<path class="st0" d="M59.85,78.23c-3.68,0-7.35,0-11.03,0c-1.98,0-1.98,3,0,3c3.68,0,7.35,0,11.03,0
	C61.83,81.23,61.83,78.23,59.85,78.23z"/>
<path class="st0" d="M45.85,78.23c-3.68,0-7.35,0-11.03,0c-1.98,0-1.98,3,0,3c3.68,0,7.35,0,11.03,0
	C47.83,81.23,47.83,78.23,45.85,78.23z"/>
<path class="st0" d="M16.59,52.24c-1.23,0-2.49,0-3.72,0c-0.8,0-1.63-0.04-2.31,0.47c-0.54,0.41-0.89,0.88-1.11,1.51
	c-0.06,0.18-0.1,0.39-0.1,0.57c0-0.59-0.02-0.1-0.02,0.14c0,0.12,0,0.22,0,0.35c0,1.33,0,2.68,0,4c0,1.29,0,2.57,0,3.86
	c0,0.14,0,0.27,0.02,0.41c0,0,0.28,1.25,0.1,0.59c0.06,0.2,0.16,0.39,0.24,0.57c0.22,0.45,0.66,0.84,1.07,1.08
	c0.85,0.47,1.87,0.35,2.78,0.35c1.25,0,3.12,0.33,4.27-0.31c1.25-0.69,1.51-1.9,1.51-3.25c0-1.25,0-2.47,0-3.72
	c0-1.14,0-2.29,0-3.43C19.35,53.67,18.36,52.42,16.59,52.24c-0.82-0.08-1.49,0.76-1.49,1.53c0,0.9,0.68,1.45,1.49,1.53
	c-0.22-0.02-0.22-0.39-0.22-0.06c0,0.27,0,0.53,0,0.8c0,0.88,0,1.78,0,2.66c0,1.53,0,3.04,0,4.58c0,0.1,0.2-0.16,0.16-0.16
	c-0.3,0-0.6,0-0.89,0c-0.93,0-1.85,0-2.78,0c-0.24,0-0.5,0-0.74,0c-0.36,0,0.18,0.06-0.06-0.02c0.5,0.16-0.12-0.18,0.22,0.12
	c-0.26-0.25,0.14,0.25-0.02,0c0.28,0.49-0.2-0.51-0.14-0.39c0.06,0.27,0.14,0.51,0.2,0.78c-0.12-1.27-0.02-2.59-0.02-3.86
	c0-1.53,0-3.04,0-4.58c0-0.02,0-0.04,0-0.06c0.02-0.22,0-0.16-0.02,0.14c0.06-0.51,0.06-0.55,0.02-0.12
	c0.04-0.12,0.02-0.08-0.04,0.08c0.08-0.14,0.06-0.1-0.08,0.08c0.08-0.1,0.28-0.22-0.1,0.06c0.36-0.27-0.1,0,0.06-0.04
	c-0.36,0.08-0.02,0.02,0.1,0.02c1.45,0,2.88,0,4.33,0C18.52,55.3,18.52,52.24,16.59,52.24z"/>
<path class="st0" d="M16.57,74.24c-1.23,0-2.48,0-3.71,0c-0.79,0-1.63-0.04-2.3,0.47c-0.54,0.41-0.89,0.88-1.11,1.51
	c-0.06,0.18-0.1,0.39-0.1,0.57c0-0.59-0.02-0.1-0.02,0.14c0,0.12,0,0.22,0,0.35c0,1.33,0,2.68,0,4.01c0,1.29,0,2.58,0,3.86
	c0,0.14,0,0.27,0.02,0.41c0,0.04,0.28,1.33,0.08,0.53c0.04,0.2,0.16,0.41,0.24,0.59c0.18,0.43,0.63,0.84,1.01,1.08
	c0.79,0.51,1.79,0.39,2.68,0.39c1.29,0,2.86,0.25,4.11-0.16c1.45-0.47,1.87-1.9,1.87-3.27c0-1.29,0-2.56,0-3.84
	c0-1.14,0-2.29,0-3.43C19.33,75.67,18.34,74.42,16.57,74.24c-0.81-0.08-1.49,0.76-1.49,1.53c0,0.9,0.67,1.45,1.49,1.53
	c-0.22-0.02-0.22-0.39-0.22-0.06c0,0.27,0,0.53,0,0.8c0,0.88,0,1.78,0,2.66c0,1.53,0,3.05,0,4.58c0,0.1,0.2-0.16,0.16-0.16
	c-0.3,0-0.6,0-0.89,0c-0.93,0-1.85,0-2.78,0c-0.24,0-0.5,0-0.73,0c-0.36,0,0.18,0.06-0.06-0.02c0.42,0.14,0.24,0.12,0.1,0.02
	c-0.24-0.16,0.32,0.31,0.06,0.02c0.1,0.1,0.12,0.18,0.02,0.02c0.26,0.47-0.22-0.55-0.12-0.35c0.06,0.27,0.14,0.51,0.2,0.78
	c-0.12-1.27-0.02-2.6-0.02-3.86c0-1.53,0-3.05,0-4.58c0-0.02,0-0.04,0-0.06c0.02-0.22,0-0.16-0.02,0.14
	c0.06-0.51,0.06-0.55,0.02-0.12c0.04-0.12,0.02-0.08-0.04,0.08c0.08-0.14,0.06-0.1-0.08,0.08c0.08-0.1,0.28-0.22-0.1,0.06
	c0.36-0.27-0.1,0,0.06-0.04c-0.36,0.08-0.02,0.02,0.1,0.02c1.45,0,2.88,0,4.33,0C18.5,77.3,18.5,74.24,16.57,74.24z"/>
<path class="st0" d="M73.59,42.45C73.59,42.43,73.59,42.43,73.59,42.45c-0.12-0.06-0.24-0.1-0.36-0.16c-0.26-0.08-0.54-0.08-0.8,0
	c-0.38,0.1-0.7,0.36-0.9,0.68c-0.2,0.34-0.26,0.76-0.16,1.15c0.06,0.12,0.1,0.24,0.16,0.36c0.14,0.22,0.32,0.4,0.54,0.54
	c0.12,0.06,0.24,0.1,0.36,0.16c0.26,0.08,0.54,0.08,0.8,0c0.38-0.1,0.7-0.36,0.9-0.68c0.2-0.34,0.26-0.76,0.16-1.15
	c-0.06-0.12-0.1-0.24-0.16-0.36C73.99,42.75,73.81,42.57,73.59,42.45z"/>
<path class="st0" d="M39.97,29.62c1.92-1.66,3.81-3.31,5.73-4.99c0.3-0.27,0.63-0.53,0.93-0.8c0.06-0.06,0.12-0.1,0.2-0.16
	c0.14-0.12,0.28-0.25,0.4-0.35c0.36-0.33,0.06,0.02-0.18-0.18c0.67,0.57,1.31,1.15,1.98,1.72c3.13,2.72,6.25,5.44,9.34,8.22
	c3.31,2.97,6.64,5.93,9.94,8.92c0.99,0.88,1.98,1.78,2.97,2.66c0.08,0.06,0.16,0.14,0.22,0.2c0.73,0.65-0.26-0.25,0.34,0.31
	c0.63,0.55,1.23,1.1,1.86,1.66c1.45,1.31,3.61-0.86,2.14-2.17c-0.42-0.39-0.87-0.78-1.29-1.17c-0.18-0.16-0.36-0.33-0.56-0.49
	c-0.16-0.14-1.03-0.92-0.32-0.29c-0.36-0.33-0.73-0.65-1.09-0.96c-2.04-1.84-4.09-3.66-6.13-5.5c-3.33-2.99-6.62-6.01-9.99-8.94
	c-1.63-1.43-3.27-2.84-4.9-4.28c-1.45-1.25-3.21-3.42-5.28-2.64c-0.77,0.29-1.37,0.94-1.98,1.47c-0.73,0.63-1.45,1.27-2.18,1.9
	c-1.43,1.25-2.84,2.48-4.28,3.72C36.34,28.74,38.5,30.89,39.97,29.62z"/>
<path class="st0" d="M3.82,103.23c9.17,0,18.32,0,27.49,0c9.13,0,18.28,0,27.41,0c3.38,0,6.75,0,10.13,0c1.98,0,1.98-3,0-3
	c-8.64,0-17.28,0-25.94,0c-9.21,0-18.44,0-27.66,0c-3.81,0-7.64,0-11.45,0C1.84,100.23,1.84,103.23,3.82,103.23z"/>
<path class="st0" d="M48.33,21.71c0-6.31,0-12.65,0-18.96c0-2.03-3-2.03-3,0c0,6.31,0,12.65,0,18.96
	C45.33,23.74,48.33,23.74,48.33,21.71z"/>
<path class="st0" d="M56.27,62.72c-0.06,4.44-3.08,8.17-7.39,9.21c-4.35,1.06-8.71-1.35-10.65-5.24c-1.92-3.87-0.61-8.87,2.77-11.45
	c3.51-2.69,8.53-2.59,11.91,0.26C55.07,57.3,56.23,59.93,56.27,62.72c0.02,1.98,3.08,1.98,3.06,0c-0.06-4.73-2.71-9.09-6.98-11.21
	c-4.33-2.16-9.65-1.53-13.4,1.49c-3.75,3.02-5.32,7.93-4.33,12.6c1,4.57,4.81,8.19,9.3,9.29c7.81,1.9,15.3-4.28,15.4-12.17
	C59.35,60.74,56.29,60.74,56.27,62.72z"/>
<path class="st0" d="M48.33,62.17c0-1.62,0-3.25,0-4.87c0-1.43-3-1.43-3,0c0,1.62,0,3.25,0,4.87
	C45.33,63.59,48.33,63.59,48.33,62.17z"/>
<path class="st0" d="M45.73,63.06c0.76,0.91,1.49,1.79,2.25,2.7c0.53,0.64,1.42,0.64,1.95,0c0.53-0.64,0.53-1.7,0-2.34
	c-0.76-0.91-1.49-1.79-2.25-2.7c-0.53-0.64-1.42-0.64-1.95,0C45.2,61.33,45.2,62.42,45.73,63.06z"/>
<path class="st0" d="M36.88,28.63C31.5,33.72,26.13,38.81,20.75,43.9c-1.31,1.24,0.73,3.18,2.03,1.93
	c5.37-5.09,10.75-10.18,16.12-15.27C40.22,29.32,38.18,27.39,36.88,28.63z"/>
</svg>
