<?xml version="1.0" encoding="utf-8"?>
<!-- Generator: Adobe Illustrator 24.0.3, SVG Export Plug-In . SVG Version: 6.00 Build 0)  -->
<svg version="1.1" id="Layer_1" xmlns="http://www.w3.org/2000/svg" xmlns:xlink="http://www.w3.org/1999/xlink" x="0px" y="0px"
	viewBox="0 0 92 67" style="enable-background:new 0 0 92 67;" xml:space="preserve">
	<style type="text/css">
		.st0{fill:#194a79;}
	</style>
	<path class="st0" d="M74.72,34.02C82.76,36.96,89,44.44,91.04,53.8c0.74,3.38-1.46,6.67-4.54,6.67H64.04c0.2,0.8,0.37,1.61,0.49,2.44
		c0.21,1.59-0.85,3.03-2.26,3.03h-30.4c-1.42,0-2.48-1.44-2.26-3.03c0.11-0.83,0.28-1.64,0.49-2.44H5.87c-3.02,0-5.23-3.17-4.58-6.5
		c2.08-10.54,9.09-18.96,18.15-22.01c-4.2-2.88-7.01-8.08-7.01-14.04c0-9.08,6.51-16.43,14.53-16.43s14.53,7.36,14.53,16.43
		c0,5.96-2.81,11.16-7.01,14.04c1.43,0.48,2.81,1.1,4.13,1.84c1.75-3.21,4.87-5.35,8.44-5.35c4.19,0,7.76,2.94,9.21,7.08
		c1.06-0.59,2.16-1.1,3.3-1.52c-3.62-2.76-6-7.44-6-12.75c0-8.49,6.08-15.36,13.58-15.36s13.58,6.88,13.58,15.36
		C80.74,26.57,78.35,31.26,74.72,34.02z M58.63,21.25c0,5.68,3.83,10.31,8.53,10.31c4.7,0,8.53-4.62,8.53-10.31
		s-3.82-10.31-8.53-10.31S58.63,15.57,58.63,21.25z M47.06,33.5c-2.64,0-4.86,2.82-4.86,6.17c0,3.34,2.23,6.17,4.86,6.17
		c2.64,0,4.86-2.82,4.86-6.17S49.7,33.5,47.06,33.5z M17.49,17.91c0,6.27,4.25,11.38,9.47,11.38s9.47-5.1,9.47-11.38
		c0-6.28-4.25-11.38-9.47-11.38S17.49,11.64,17.49,17.91z M6.27,55.41h25.79c1.89-3.44,4.68-6.18,8-7.81
		c-1.8-2.03-2.92-4.84-2.92-7.95c0-0.28,0.02-0.55,0.04-0.83c-3.03-1.94-6.51-3.06-10.21-3.06c-9.81,0-18.52,8.06-20.71,19.17
		C6.22,55.14,6.24,55.3,6.27,55.41z M35.2,60.88h23.72c-1.78-5.78-6.52-9.87-11.86-9.87S36.98,55.1,35.2,60.88z M86.08,55.41
		c0.04-0.12,0.07-0.31,0.02-0.54c-2.2-10.11-9.99-17.17-18.94-17.17c-3.77,0-7.28,1.27-10.27,3.43c-0.29,2.51-1.31,4.76-2.82,6.47
		c3.32,1.63,6.11,4.36,8,7.81H86.08z"/>
	</svg>
