<?xml version="1.0" encoding="utf-8"?>
<!-- Generator: Adobe Illustrator 24.0.3, SVG Export Plug-In . SVG Version: 6.00 Build 0)  -->
<svg version="1.1" id="Layer_1" xmlns="http://www.w3.org/2000/svg" xmlns:xlink="http://www.w3.org/1999/xlink" x="0px" y="0px"
	 viewBox="0 0 92 67" style="enable-background:new 0 0 92 67;" xml:space="preserve">
<style type="text/css">
	.st0{fill:#194A79;stroke:#FFFFFF;stroke-width:1.5;stroke-miterlimit:10;}
</style>
<path class="st0" d="M74.7,34C82.8,37,89,44.4,91,53.8c0.7,3.4-1.5,6.7-4.5,6.7H64c0.2,0.8,0.4,1.6,0.5,2.4c0.2,1.6-0.8,3-2.3,3
	H31.9c-1.4,0-2.5-1.4-2.3-3c0.1-0.8,0.3-1.6,0.5-2.4H5.9c-3,0-5.2-3.2-4.6-6.5c2.1-10.5,9.1-19,18.1-22c-4.2-2.9-7-8.1-7-14
	c0-9.1,6.5-16.4,14.5-16.4s14.5,7.4,14.5,16.4c0,6-2.8,11.2-7,14c1.4,0.5,2.8,1.1,4.1,1.8c1.8-3.2,4.9-5.4,8.4-5.4
	c4.2,0,7.8,2.9,9.2,7.1c1.1-0.6,2.2-1.1,3.3-1.5c-3.6-2.8-6-7.4-6-12.8c0-8.5,6.1-15.4,13.6-15.4s13.6,6.9,13.6,15.4
	C80.7,26.6,78.3,31.3,74.7,34z M58.6,21.2c0,5.7,3.8,10.3,8.5,10.3c4.7,0,8.5-4.6,8.5-10.3s-3.8-10.3-8.5-10.3S58.6,15.6,58.6,21.2z
	 M47.1,33.5c-2.6,0-4.9,2.8-4.9,6.2c0,3.3,2.2,6.2,4.9,6.2c2.6,0,4.9-2.8,4.9-6.2S49.7,33.5,47.1,33.5z M17.5,17.9
	c0,6.3,4.2,11.4,9.5,11.4s9.5-5.1,9.5-11.4S32.2,6.5,27,6.5S17.5,11.6,17.5,17.9z M6.3,55.4h25.8c1.9-3.4,4.7-6.2,8-7.8
	c-1.8-2-2.9-4.8-2.9-8c0-0.3,0-0.5,0-0.8c-3-1.9-6.5-3.1-10.2-3.1c-9.8,0-18.5,8.1-20.7,19.2C6.2,55.1,6.2,55.3,6.3,55.4z
	 M35.2,60.9h23.7c-1.8-5.8-6.5-9.9-11.9-9.9S37,55.1,35.2,60.9z M86.1,55.4c0-0.1,0.1-0.3,0-0.5c-2.2-10.1-10-17.2-18.9-17.2
	c-3.8,0-7.3,1.3-10.3,3.4c-0.3,2.5-1.3,4.8-2.8,6.5c3.3,1.6,6.1,4.4,8,7.8H86.1z"/>
</svg>
