<svg xmlns="http://www.w3.org/2000/svg" viewBox="0 0 156.82 156.81"><defs><style>.cls-1{fill:#ff8517;}</style></defs><title>Asset 1</title><g id="Layer_2" data-name="Layer 2"><g id="Layer_1-2" data-name="Layer 1"><path class="cls-1" d="M78.41,0a78.41,78.41,0,1,0,78.41,78.4A78.4,78.4,0,0,0,78.41,0ZM54.09,26.28a3.72,3.72,0,0,1,2.46-.3,3.77,3.77,0,0,1,1.53.88,16.77,16.77,0,0,1,1.47,1.7c2.25,4.23,4.61,9.36,7,15.09.7,1.67,1.42,3.39,2.13,5.16,1,2.47.46,4.83-1.4,5.82-2.63,1.39-3.64,1.83-6,3L51.42,34.9l-2.68-6.14A41.54,41.54,0,0,1,54.09,26.28ZM112,127.75c-2,1.11-5.09,2.91-7.35,2.29a87.46,87.46,0,0,1-14.74-5.75A110,110,0,0,1,76.8,116.7,93,93,0,0,1,56.29,98.15c-16-19.88-20.68-41.36-22.14-51-.54-3.52,1.15-5.32,2.81-7.92,2.19-3.44,5.07-5.45,8.31-7.86l.07-.06,0,.12L57.53,59.29a8.38,8.38,0,0,0-2.41,1.27,3.5,3.5,0,0,0-.25,4c8.27,16,18.26,30.29,32.43,39a3.65,3.65,0,0,0,3.77.06,4.79,4.79,0,0,0,1.19-.83l27.3,19.44A55.8,55.8,0,0,1,112,127.75Zm10.59-8.4L94.6,99.4c.21-.36.43-.71.67-1.05,2-2.93,3.39-6.26,7.62-4.52,4.88,2,17,11.45,19,13,1.76,1.33,4.27,2.78,4.58,5.14C126.76,114,124.35,117.38,122.61,119.35Z"/></g></g></svg>