<svg xmlns="http://www.w3.org/2000/svg" viewBox="0 0 80 68.01"><defs><style>.cls-1,.cls-3{fill:#18c8ee;}.cls-1{fill-rule:evenodd;}.cls-2{fill:none;stroke:#18c8ee;}</style></defs><title>Asset 1</title><g id="Layer_2" data-name="Layer 2"><g id="Layer_1-2" data-name="Layer 1"><path class="cls-1" d="M19.25,23.52a4.52,4.52,0,0,0-2.74-5.76A4.35,4.35,0,0,0,15,17.5a4.52,4.52,0,0,0-1.51,8.77l.27.09V35.1c0,.47,0,.93,0,1.39l2.47-.3c0-.37,0-.74,0-1.11V26.36l.27-.09A4.48,4.48,0,0,0,19.25,23.52Z"/><path class="cls-2" d="M19.25,23.52a4.52,4.52,0,0,0-2.74-5.76A4.35,4.35,0,0,0,15,17.5a4.52,4.52,0,0,0-1.51,8.77l.27.09V35.1c0,.47,0,.93,0,1.39l2.47-.3c0-.37,0-.74,0-1.11V26.36l.27-.09A4.48,4.48,0,0,0,19.25,23.52Z"/><path class="cls-1" d="M59.39,20.5l-.88,2.39a12,12,0,0,1,6.54,8.61L67.51,31A14.56,14.56,0,0,0,59.39,20.5Z"/><path class="cls-2" d="M59.39,20.5l-.88,2.39a12,12,0,0,1,6.54,8.61L67.51,31A14.56,14.56,0,0,0,59.39,20.5Z"/><path class="cls-1" d="M64.77,38.5v4.32l-.27.09A4.41,4.41,0,0,0,66,51.5h0a4.42,4.42,0,0,0,1.49-8.6l-.27-.09V38.49H64.77Z"/><path class="cls-2" d="M64.77,38.5v4.32l-.27.09A4.41,4.41,0,0,0,66,51.5h0a4.42,4.42,0,0,0,1.49-8.6l-.27-.09V38.49H64.77Z"/><path class="cls-1" d="M42.5,34.5H40a13,13,0,0,1-5.47,9.73l1.29,2.27A15.37,15.37,0,0,0,42.5,34.5Z"/><path class="cls-2" d="M42.5,34.5H40a13,13,0,0,1-5.47,9.73l1.29,2.27A15.37,15.37,0,0,0,42.5,34.5Z"/><path class="cls-1" d="M51.56,19.77l-.34.05a14.5,14.5,0,0,0-10.76,7.49l2.15,1.12a12.32,12.32,0,0,1,8.49-6.17l.46-.08V55.11L28.44,64.24V12.72l23.12-9.2V19.77ZM26,45.6l-.43,0A10.5,10.5,0,0,1,18,41.21l-2,1.36A13,13,0,0,0,25.66,48L26,48V64.36L2.91,55.1V3.55L26,12.71ZM54,3.49l23.12,9.06V64h-.42l-.12.3L54,55.54v-52Zm-1.79,54.1,25.53,9.92a1.74,1.74,0,0,0,.37,0,1.24,1.24,0,0,0,1.27-1.22c.16-14,.16-50.39.16-54.5h0a1.23,1.23,0,0,0-.77-1.14L53.28.52h-.81l-25.22,10-.14-.06L2.15.65a1.18,1.18,0,0,0-.92,0,1.24,1.24,0,0,0-.64.67,1.33,1.33,0,0,0-.08.45V56a1.24,1.24,0,0,0,.77,1.15L26.74,67.23h.91L52,57.54Z"/><path class="cls-3" d="M51.56,19.77l.07.5.43-.06v-.44Zm-.33,0-.07-.5h0ZM40.47,27.3,40,27.06l-.24.45.45.23Zm2.15,1.12-.23.44.43.23.24-.43Zm8.48-6.17L51,21.76h0Zm.46-.08h.5v-.6l-.59.11Zm0,32.93.18.47.32-.12v-.34h-.5ZM28.44,64.23h-.5V65l.68-.27Zm0-51.51-.18-.47-.32.13v.34Zm23.12-9.2h.5V2.78l-.68.27ZM26,45.6l0,.5.54,0V45.6Zm-.42,0,0-.5h0ZM18,41.21l.41-.29-.28-.4-.4.27Zm-2,1.36-.28-.41-.42.29.3.42ZM25.67,48l0,.5h0ZM26,48h.5v-.47l-.47,0Zm0,16.34-.19.46.69.27v-.74H26ZM2.91,55.1h-.5v.34l.31.13Zm0-51.55.18-.46-.68-.27v.74h.5ZM26,12.72h.5v-.34l-.32-.13ZM54,3.49,54.15,3l-.68-.27v.73H54ZM77.1,12.55h.5v-.34l-.32-.12ZM77.1,64v.5h.5V64Zm-.42,0v-.5h-.34l-.12.32Zm-.12.3-.18.47.47.18.18-.47ZM54,55.55h-.5v.34l.32.12Zm-1.79,2-.18.47h0ZM77.71,67.5l-.18.47.07,0h.07Zm.36,0V67H78Zm1.27-1.22h0Zm.16-54.5h0Zm-.77-1.14-.18.46h0ZM53.27.5,53.45,0l-.09,0h-.1V.5Zm-.81,0V0h-.1l-.09,0Zm-25.22,10-.18.47.18.07.18-.07Zm-.14,0-.18.47h0ZM2.14.64,2.32.17h0Zm-.92,0L1,.2H1Zm-.64.67L.11,1.15h0ZM.5,1.78h0ZM.5,56h0Zm.77,1.15.18-.47h0Zm25.47,10-.18.47.09,0h.1v-.5Zm.9,0v.5h.1l.09,0ZM52,57.53l.18-.47L52,57l-.18.07ZM51.5,19.27l-.34.05.14,1,.34,0Zm-.34.05A15,15,0,0,0,40,27.07l.88.47a14,14,0,0,1,10.38-7.23ZM40.24,27.75l2.15,1.12.46-.89L40.7,26.86Zm2.81.91a11.79,11.79,0,0,1,8.14-5.92l-.18-1a12.75,12.75,0,0,0-8.83,6.42Zm8.14-5.92.46-.08-.18-1-.46.08Zm-.13-.57V55.1h1V22.17Zm.32,32.47L28.26,63.76l.37.93,23.12-9.13ZM28.94,64.23V12.72h-1V64.23Zm-.31-51.05L51.75,4l-.37-.93-23.12,9.2ZM51.06,3.52V19.77h1V3.52Zm-25,41.59-.43,0-.09,1,.43,0Zm-.43,0a10,10,0,0,1-7.27-4.15l-.81.58a10.94,10.94,0,0,0,8,4.56ZM17.7,40.8l-2,1.36.56.83,2-1.36Zm-2.13,2.06A13.53,13.53,0,0,0,25.63,48.5l.06-1a12.47,12.47,0,0,1-9.31-5.22ZM25.64,48.5l.37,0,.06-1-.37,0ZM25.53,48V64.36h1V48Zm.69,15.88L3.1,54.64l-.37.93,23.12,9.26ZM3.41,55.1V3.55h-1V55.1ZM2.73,4l23.12,9.16.37-.93L3.1,3.09Zm22.8,8.7V45.61h1V12.72ZM53.79,4,76.91,13l.36-.93L54.15,3ZM76.6,12.55V64h1V12.55Zm.5,51h-.42v1h.42Zm-.89.32-.12.3.93.36.12-.3Zm.53,0L54.15,55.08l-.36.93,22.59,8.76ZM54.47,55.55V3.49h-1V55.55ZM52,58.05,77.52,68l.36-.93L52.35,57.12ZM77.66,68a1.73,1.73,0,0,0,.49,0L78,67l-.15,0h-.09Zm.42,0a1.74,1.74,0,0,0,1.77-1.72h-1a.73.73,0,0,1-.78.72Zm1.76-1.72c.16-14,.16-50.4.16-54.5H79c0,4.11,0,40.51-.16,54.49ZM80,11.76Zm0,0a1.73,1.73,0,0,0-1.09-1.61l-.36.93a.72.72,0,0,1,.45.67Zm-1.08-1.61L53.46,0,53.09,1,78.55,11.08ZM53.27,0h-.81V1h.81Zm-1,0-25.22,10,.37.93L52.65,1Zm-24.86,10L27.28,10l-.36.93.14.06ZM27.28,10,2.32.17,2,1.1l25,9.85ZM2.32.17A1.67,1.67,0,0,0,1,.2l.4.91a.72.72,0,0,1,.54,0ZM1,.2a1.75,1.75,0,0,0-.9,1L1,1.51a.73.73,0,0,1,.37-.4Zm-.89,1A1.5,1.5,0,0,0,0,1.79H1a.58.58,0,0,1,.05-.26ZM0,1.78V56H1V1.78ZM0,56a1.73,1.73,0,0,0,1.09,1.62l.36-.93A.72.72,0,0,1,1,56Zm1.09,1.61L26.55,67.68l.37-.93L1.46,56.7ZM26.74,67.72h.91v-1h-.91Zm1.09,0L52.22,58l-.37-.93L27.46,66.75Zm24-9.68.14.06.36-.93-.14-.06Z"/></g></g></svg>