<?xml version="1.0" encoding="utf-8"?>
<!-- Generator: Adobe Illustrator 24.0.3, SVG Export Plug-In . SVG Version: 6.00 Build 0)  -->
<svg version="1.1" id="Layer_1" xmlns="http://www.w3.org/2000/svg" xmlns:xlink="http://www.w3.org/1999/xlink" x="0px" y="0px"
	 viewBox="0 0 26 36" style="enable-background:new 0 0 26 36;" xml:space="preserve">
<style type="text/css">
	.st0{fill-rule:evenodd;clip-rule:evenodd;fill:#194a79;stroke:#194a79;stroke-width:0.25;stroke-miterlimit:10;}
</style>
<path class="st0" d="M13.2,9.56c-2.26,0-4.1,1.83-4.1,4.1c0,2.26,1.84,4.1,4.1,4.1c2.26,0,4.1-1.84,4.1-4.1
	C17.3,11.39,15.46,9.56,13.2,9.56z M13.2,19.39c-3.16-0.01-5.71-2.58-5.71-5.74c0.01-3.16,2.58-5.72,5.74-5.71
	c3.15,0.01,5.7,2.56,5.71,5.71c0.01,3.16-2.55,5.73-5.71,5.74H13.2z M13.2,2.99C7.43,2.87,2.65,7.45,2.53,13.21
	c0,0.24,0,0.48,0.01,0.72c0,8.07,7.54,16.27,10.66,19.32c3.11-3.07,10.66-11.33,10.66-19.32C24.13,8.17,19.68,3.28,13.92,3
	C13.68,2.99,13.44,2.99,13.2,2.99z M13.2,35.22c-0.21,0-0.41-0.09-0.56-0.23C9.1,31.66,0.9,22.95,0.9,13.93
	C0.6,7.29,5.74,1.67,12.38,1.36c0.27-0.01,0.55-0.02,0.82-0.01c6.65-0.15,12.16,5.11,12.31,11.76c0.01,0.27,0,0.55-0.01,0.82
	c0,8.92-8.2,17.7-11.74,21.06C13.6,35.13,13.41,35.22,13.2,35.22z"/>
</svg>
