<?xml version="1.0" encoding="utf-8"?>
<!-- Generator: Adobe Illustrator 24.0.3, SVG Export Plug-In . SVG Version: 6.00 Build 0)  -->
<svg version="1.1" id="Layer_1" xmlns="http://www.w3.org/2000/svg" xmlns:xlink="http://www.w3.org/1999/xlink" x="0px" y="0px"
	 viewBox="0 0 83 110" style="enable-background:new 0 0 83 110;" xml:space="preserve">
<style type="text/css">
	.st0{fill:#194a79;}
</style>
<g>
	<g>
		<path class="st0" d="M29.12,107.38c-0.7,0-1.38-0.29-1.86-0.83l-6.58-7.33l-9.58,2.31c-0.87,0.21-1.79-0.06-2.41-0.72
			c-0.62-0.66-0.83-1.59-0.56-2.45l7.82-25.2c0.41-1.32,1.81-2.05,3.13-1.65c1.32,0.41,2.06,1.81,1.65,3.13l-6.52,21l6.75-1.63
			c0.89-0.21,1.83,0.08,2.45,0.76l4.64,5.16l6.16-19.86c0.41-1.32,1.81-2.05,3.13-1.65c1.32,0.41,2.06,1.81,1.65,3.13l-7.47,24.06
			c-0.27,0.86-0.97,1.51-1.85,1.7C29.48,107.36,29.3,107.38,29.12,107.38z"/>
		<path class="st0" d="M54.16,107.38c-0.18,0-0.36-0.02-0.54-0.06c-0.88-0.19-1.59-0.84-1.85-1.7l-7.47-24.06
			c-0.41-1.32,0.33-2.72,1.65-3.13c1.32-0.41,2.72,0.33,3.13,1.65l6.16,19.86l4.64-5.16c0.62-0.68,1.56-0.97,2.45-0.76l6.75,1.63
			l-6.52-21c-0.41-1.32,0.33-2.72,1.65-3.13c1.32-0.41,2.72,0.33,3.13,1.65l7.82,25.2c0.27,0.86,0.05,1.79-0.56,2.45
			c-0.62,0.66-1.54,0.93-2.41,0.72l-9.58-2.31l-6.58,7.33C55.54,107.09,54.86,107.38,54.16,107.38z"/>
	</g>
	<path class="st0" d="M41.64,85.91c-0.54,0-1.07-0.17-1.52-0.52L34.4,81l-6.97,1.87c-1.09,0.29-2.25-0.19-2.81-1.16L21,75.46
		l-7.15-0.94c-1.12-0.15-2-1.03-2.15-2.15l-0.94-7.15L4.51,61.6c-0.98-0.57-1.46-1.72-1.17-2.81l1.87-6.97l-4.39-5.73
		c-0.69-0.9-0.69-2.15,0-3.04l4.39-5.73l-1.87-6.97c-0.29-1.09,0.19-2.25,1.17-2.81l6.25-3.61l0.94-7.15c0.15-1.12,1.03-2,2.15-2.15
		L21,13.68l3.61-6.25c0.57-0.98,1.72-1.46,2.81-1.17l6.97,1.87l5.73-4.39c0.9-0.69,2.15-0.69,3.04,0l5.73,4.39l6.97-1.87
		c1.09-0.29,2.25,0.19,2.81,1.17l3.61,6.25l7.15,0.94c1.12,0.15,2,1.03,2.15,2.15l0.94,7.15l6.25,3.61
		c0.98,0.57,1.46,1.72,1.17,2.81l-1.87,6.97l4.39,5.73c0.69,0.9,0.69,2.15,0,3.04l-4.39,5.73l1.87,6.97
		c0.29,1.09-0.18,2.25-1.17,2.81l-6.25,3.61l-0.94,7.15c-0.15,1.12-1.03,2-2.15,2.15l-7.15,0.94l-3.61,6.25
		c-0.57,0.98-1.72,1.46-2.81,1.16L48.89,81l-5.73,4.39C42.72,85.74,42.18,85.91,41.64,85.91z M34.94,75.77
		c0.54,0,1.08,0.18,1.52,0.52l5.18,3.97l5.18-3.97c0.62-0.47,1.42-0.63,2.17-0.43l6.31,1.69l3.27-5.65
		c0.39-0.67,1.07-1.13,1.84-1.23l6.48-0.85l0.85-6.48c0.1-0.77,0.56-1.45,1.23-1.84l5.65-3.27l-1.69-6.31
		c-0.2-0.75-0.04-1.55,0.43-2.17l3.97-5.18l-3.97-5.18c-0.47-0.62-0.63-1.42-0.43-2.17l1.69-6.31l-5.65-3.27
		c-0.67-0.39-1.13-1.07-1.23-1.84l-0.85-6.47l-6.47-0.85c-0.77-0.1-1.45-0.56-1.84-1.23l-3.27-5.66l-6.31,1.69
		c-0.75,0.2-1.55,0.04-2.17-0.43l-5.18-3.97l-5.18,3.97c-0.62,0.47-1.42,0.63-2.17,0.43l-6.31-1.69l-3.27,5.66
		c-0.39,0.67-1.07,1.13-1.84,1.23l-6.47,0.85l-0.85,6.47c-0.1,0.77-0.56,1.45-1.23,1.84l-5.66,3.27l1.69,6.31
		c0.2,0.75,0.04,1.55-0.43,2.17l-3.97,5.18l3.97,5.18c0.47,0.62,0.63,1.42,0.43,2.17l-1.69,6.31l5.66,3.27
		c0.67,0.39,1.13,1.07,1.23,1.84l0.85,6.47l6.47,0.85c0.77,0.1,1.45,0.56,1.84,1.23l3.27,5.65l6.31-1.69
		C34.51,75.8,34.72,75.77,34.94,75.77z"/>
</g>
</svg>
