<?xml version="1.0" encoding="utf-8"?>
<!-- Generator: Adobe Illustrator 24.0.3, SVG Export Plug-In . SVG Version: 6.00 Build 0)  -->
<svg version="1.1" id="Layer_1" xmlns="http://www.w3.org/2000/svg" xmlns:xlink="http://www.w3.org/1999/xlink" x="0px" y="0px"
	 viewBox="0 0 46 42" style="enable-background:new 0 0 46 42;" xml:space="preserve">
<style type="text/css">
	.st0{fill:none;stroke:#194a79;stroke-width:2;stroke-miterlimit:10;}
	.st1{fill:none;stroke:#194a79;stroke-width:2;stroke-linecap:round;stroke-miterlimit:10;}
</style>
<g>
	<polyline class="st0" points="32.25,10.01 32.25,1.78 3,1.78 3,40.17 32.25,40.17 32.25,26.46 	"/>
	<path class="st0" d="M42.16,8.2c-1.07-1.07-3.75-0.13-5.89,2.01L24.72,21.89c-3.76,3.76-8.18,9.92-7.11,10.99
		c1.07,1.07,7.23-3.35,10.99-7.11l11.55-11.68C42.28,11.95,43.23,9.27,42.16,8.2z"/>
	<line class="st1" x1="15.62" y1="35" x2="17.61" y2="32.88"/>
	<path class="st0" d="M36.26,10.21l5.17,5.17c0.71,0.71,0.71,1.87,0,2.59l-6.46,6.46"/>
	<line class="st0" x1="24.07" y1="22.54" x2="27.95" y2="26.42"/>
	<line class="st0" x1="42.16" y1="8.2" x2="44" y2="6.35"/>
	<line class="st0" x1="13.05" y1="34.69" x2="7.57" y2="34.69"/>
	<line class="st0" x1="13.05" y1="8.18" x2="22.2" y2="8.18"/>
	<line class="st0" x1="8.48" y1="12.75" x2="26.77" y2="12.75"/>
	<line class="st0" x1="8.48" y1="16.41" x2="25.85" y2="16.41"/>
	<line class="st0" x1="8.48" y1="20.06" x2="22.2" y2="20.06"/>
	<line class="st0" x1="8.48" y1="23.72" x2="18.54" y2="23.72"/>
</g>
</svg>
