<?xml version="1.0" encoding="utf-8"?>
<!-- Generator: Adobe Illustrator 24.0.3, SVG Export Plug-In . SVG Version: 6.00 Build 0)  -->
<svg version="1.1" id="Layer_1" xmlns="http://www.w3.org/2000/svg" xmlns:xlink="http://www.w3.org/1999/xlink" x="0px" y="0px"
	 viewBox="0 0 74 94" style="enable-background:new 0 0 74 94;" xml:space="preserve">
<style type="text/css">
	.st0{fill-rule:evenodd;clip-rule:evenodd;fill:#194a79;}
</style>
<path class="st0" d="M4.72,17.24l0.39-0.01c17.77-0.47,28.24-8.66,31.92-12.16l0.28-0.26l0.28,0.26
	c3.68,3.5,14.15,11.68,31.92,12.16l0.39,0.01v28.17c0,11.69-5.51,22.91-14.74,29.99L37.3,89.11l-17.85-13.7
	c-9.23-7.09-14.74-18.3-14.74-29.99V17.24z M2.3,45.41c0,12.45,5.86,24.38,15.69,31.93l18.58,14.27c0.42,0.32,1.04,0.32,1.47,0
	l18.58-14.27C66.44,69.8,72.3,57.86,72.3,45.41V16.04c0-0.67-0.54-1.22-1.21-1.22c-21.54,0-32.77-12.43-32.88-12.56
	C37.98,2,37.65,1.85,37.3,1.85c-0.35,0-0.68,0.15-0.91,0.41C35.94,2.78,25.04,14.82,3.51,14.82c-0.67,0-1.21,0.55-1.21,1.22V45.41z"
	/>
<path class="st0" d="M35.53,54.52l19.79-19.68l-2.34-2.33L34.35,51.05l-8.71-8.66l-2.34,2.33l9.89,9.84c0.3,0.3,0.73,0.49,1.15,0.49
	C34.78,55.05,35.2,54.85,35.53,54.52z"/>
</svg>
