<svg xmlns="http://www.w3.org/2000/svg" viewBox="0 0 79.24 81.25"><defs><style>.cls-1,.cls-2{fill:#18c8ee;}.cls-1{fill-rule:evenodd;}.cls-3{fill:none;stroke:#18c8ee;stroke-linecap:round;stroke-linejoin:round;stroke-width:1.25px;}</style></defs><title>Asset 1</title><g id="Layer_2" data-name="Layer 2"><g id="Layer_1-2" data-name="Layer 1"><path class="cls-1" d="M7.62,65V64.3a.76.76,0,0,1,.26-.59.5.5,0,0,1,.34-.13l.12,0,4.67.54a.65.65,0,0,1,.46.34h0a.8.8,0,0,1,0,.84.57.57,0,0,1-.51.33H8.21A.64.64,0,0,1,7.62,65ZM13,67.63a2.58,2.58,0,0,0,2.28-1.38,2.78,2.78,0,0,0-.24-3,2.6,2.6,0,0,0-1.81-1.08l-4.74-.56-.28,0a2.57,2.57,0,0,0-1.69.63,2.68,2.68,0,0,0-.92,2V65a2.65,2.65,0,0,0,2.6,2.68Z"/><path class="cls-2" d="M7.88,63.71l.4.48h0Zm.34-.13L8.31,63H8.22Zm.13,0-.09.62h0Zm4.67.54-.07.62h0Zm.46.35-.51.36.07.08Zm0,0,.51-.36L13.92,64Zm0,.84.55.3h0Zm1.77.91-.55-.3h0Zm-.24-3,.51-.36h0Zm-1.8-1.08.07-.62h0Zm-4.74-.56L8.59,61h0Zm-2,.62.41.47H7ZM8.25,65V64.3H7V65Zm0-.65s0,0,0-.06,0,0,0,0,0,0,0,0l-.8-1A1.36,1.36,0,0,0,7,64.3Zm0-.11H8.22V63a1.17,1.17,0,0,0-.75.28Zm-.15,0,.12,0L8.44,63l-.12,0Zm.13,0,4.67.54.14-1.24L8.41,63Zm4.68.55h-.07l0,0,.06.08,1-.72a1.28,1.28,0,0,0-.91-.6Zm.1.17h0l.88-.89h0ZM13,64.85a.16.16,0,0,1,0,.09.25.25,0,0,1,0,.1l1.11.58A1.44,1.44,0,0,0,14,64.13ZM13,65l0,0H13V66.3a1.2,1.2,0,0,0,1.06-.66Zm0,0H8.23v1.25H13Zm-4.8,0h0s0,0,0,0a.18.18,0,0,1,0-.11H7a1.29,1.29,0,0,0,1.23,1.34V65ZM13,68.25a3.19,3.19,0,0,0,2.83-1.71L14.76,66A1.91,1.91,0,0,1,13,67v1.25Zm2.82-1.71a3.4,3.4,0,0,0-.28-3.62l-1,.72a2.15,2.15,0,0,1,.2,2.3Zm-.28-3.62a3.25,3.25,0,0,0-2.24-1.34l-.15,1.24a2,2,0,0,1,1.37.82Zm-2.24-1.34L8.59,61l-.15,1.24,4.74.56ZM8.59,61l-.35,0v1.25h.22Zm-.35,0a3.25,3.25,0,0,0-2.1.78l.82.94a1.94,1.94,0,0,1,1.28-.48Zm-2.1.78A3.32,3.32,0,0,0,5,64.3H6.25A2.07,2.07,0,0,1,7,62.73ZM5,64.3V65H6.25V64.3ZM5,65a3.27,3.27,0,0,0,3.23,3.3V67a2,2,0,0,1-2-2Zm3.23,3.3H13V67H8.23Z"/><path class="cls-1" d="M78.62,27.73V9.62a1,1,0,0,0-1-1C64.09,8.61,57.16,1.26,56.87,1a1,1,0,0,0-1.5,0c-.07.07-7,7.66-20.74,7.66a1,1,0,0,0-1,1V27.73A24.68,24.68,0,0,0,36.36,39a1,1,0,0,0,1.36.43,1,1,0,0,0,.5-.59,1,1,0,0,0-.07-.77,22.56,22.56,0,0,1-2.51-10.32V10.62H36c11-.37,17.6-5.27,19.94-7.37l.22-.2.22.2c2.34,2.09,9,7,19.94,7.37h.32V27.73A22.94,22.94,0,0,1,67.33,46L56.11,54.36l-.9-.67a1,1,0,0,0-.6-.2,1,1,0,0,0-.81.41A1,1,0,0,0,54,55.32l1.5,1.11a1,1,0,0,0,1.2,0l11.82-8.8A24.92,24.92,0,0,0,78.62,27.73Z"/><path class="cls-3" d="M78.62,27.73V9.62a1,1,0,0,0-1-1C64.09,8.61,57.16,1.26,56.87,1a1,1,0,0,0-1.5,0c-.07.07-7,7.66-20.74,7.66a1,1,0,0,0-1,1V27.73A24.68,24.68,0,0,0,36.36,39a1,1,0,0,0,1.36.43,1,1,0,0,0,.5-.59,1,1,0,0,0-.07-.77,22.56,22.56,0,0,1-2.51-10.32V10.62H36c11-.37,17.6-5.27,19.94-7.37l.22-.2.22.2c2.34,2.09,9,7,19.94,7.37h.32V27.73A22.94,22.94,0,0,1,67.33,46L56.11,54.36l-.9-.67a1,1,0,0,0-.6-.2,1,1,0,0,0-.81.41A1,1,0,0,0,54,55.32l1.5,1.11a1,1,0,0,0,1.2,0l11.82-8.8A24.92,24.92,0,0,0,78.62,27.73Z"/><path class="cls-1" d="M48.62,53H46.41l.05-.38a2.17,2.17,0,0,0,0-.36v-.73h2.14Zm-1.3,17.6-.11.63a2.35,2.35,0,0,1-2.24,2H6.27a2.36,2.36,0,0,1-2.24-2l-.11-.63,0-3.79V64.15C4,63,4.07,59,5.59,57.38l2-2.12s.71.31,1.16.57c1.29.75,2.51.78,4.43.78,2.34,0,25.75.15,25.75.15a7.31,7.31,0,0,0,3.42-.85l1.25-.65,2,2.12c1,1.07,1.63,3.6,1.63,6.77v2.69Zm-4,7.26a.7.7,0,0,1-.67.73H39.29a.7.7,0,0,1-.67-.73v-2.6h4.67Zm-30.67,0a.7.7,0,0,1-.67.73H8.62A.7.7,0,0,1,8,77.89v-2.6h4.67ZM10.36,49.33a7.26,7.26,0,0,1,6.71-4.7h17.1a7.27,7.27,0,0,1,6.71,4.7l1.68,4.23-1.11.58a5.44,5.44,0,0,1-2.5.62H12.29a5.38,5.38,0,0,1-2.5-.62l-1.11-.58ZM2.62,53V51.56H4.76v.73c0,.12,0,.24,0,.36l0,.38Zm48-1.6a1.85,1.85,0,0,0-1.83-1.87H46.31a1.84,1.84,0,0,0-1.8,1.76l-.09,1.49L42.74,48.6a9.26,9.26,0,0,0-8.57-6H17.07a9.26,9.26,0,0,0-8.57,6L6.82,52.8l-.09-1.49a1.84,1.84,0,0,0-1.8-1.76H2.45A1.85,1.85,0,0,0,.62,51.42v1.73A1.85,1.85,0,0,0,2.45,55H5.08l-.93,1C2.24,58,2,62,2,64.14v2.69a1.94,1.94,0,0,0,0,.24,1.1,1.1,0,0,1,0,.18v0l0,.15v3.38a4.42,4.42,0,0,0,3.72,4.4l.28,0v2.62a2.7,2.7,0,0,0,2.67,2.73H12a2.71,2.71,0,0,0,2.67-2.73v-2.6h22v2.6a2.7,2.7,0,0,0,2.67,2.73h3.33a2.71,2.71,0,0,0,2.67-2.73V75.26l.28,0a4.43,4.43,0,0,0,3.71-4.4V67.49l0-.16,0-.26a1.94,1.94,0,0,0,0-.24V64.14C49.28,62,49,58,47.09,56l-.93-1h2.63a1.85,1.85,0,0,0,1.83-1.87Z"/><path class="cls-2" d="M48.62,53v.62a.62.62,0,0,0,.62-.62Zm-2.21,0L45.79,53a.62.62,0,0,0,.15.49.64.64,0,0,0,.47.21Zm.05-.38-.62-.09h0Zm0-1.09v-.62a.62.62,0,0,0-.62.62Zm2.13,0h.62a.62.62,0,0,0-.62-.62Zm-1.3,19.07.62.11a.41.41,0,0,0,0-.11Zm-.11.63.62.11h0ZM4,71.26l-.62.11h0Zm-.11-.63H3.3a.41.41,0,0,0,0,.11Zm0-3.79H4ZM5.6,57.38l.45.43h0Zm2-2.12.25-.57a.63.63,0,0,0-.7.14Zm1.16.57-.31.54h0ZM39,56.76v.62h0Zm3.42-.85-.29-.55h0Zm1.25-.65.45-.43a.62.62,0,0,0-.74-.12Zm2,2.12L46.1,57h0Zm1.63,9.46h0Zm-8.66,8.45v-.62a.62.62,0,0,0-.62.62Zm4.67,0h.62a.62.62,0,0,0-.62-.62ZM8,75.29v-.62a.62.62,0,0,0-.62.62Zm4.66,0h.62a.62.62,0,0,0-.62-.62Zm-2.26-26-.58-.23h0Zm30.52,0,.58-.23h0Zm1.69,4.23.29.55a.62.62,0,0,0,.29-.78Zm-1.12.58.29.55h0Zm-31.66,0-.29.55h0Zm-1.11-.58-.58-.23a.62.62,0,0,0,.29.78ZM2.62,53H2a.62.62,0,0,0,.62.62Zm0-1.47v-.62a.62.62,0,0,0-.62.62Zm2.14,0h.62a.62.62,0,0,0-.62-.62Zm0,1.09.62-.08h0Zm0,.38v.62a.64.64,0,0,0,.47-.21A.62.62,0,0,0,5.45,53Zm39.68-1.71.62,0h0Zm-.09,1.48-.58.23a.64.64,0,0,0,.68.39.62.62,0,0,0,.52-.58Zm-1.68-4.21-.58.23h0Zm-34.24,0-.58-.23h0ZM6.83,52.8l-.62,0a.64.64,0,0,0,.53.58A.62.62,0,0,0,7.42,53Zm-.1-1.48-.62,0h0ZM5.08,55l.45.43a.63.63,0,0,0,.12-.68.62.62,0,0,0-.57-.38Zm-.93,1-.45-.43h0ZM2,67.07,2.6,67h0Zm0,.18.62,0h0Zm0,0,.61.14a.59.59,0,0,0,0-.19Zm0,.16-.61-.14a.68.68,0,0,0,0,.14Zm0,3.38H2Zm3.71,4.4-.09.62h0Zm.29,0h.62A.63.63,0,0,0,6,74.65Zm8.66,0v-.62a.62.62,0,0,0-.62.62Zm22,0h.62a.62.62,0,0,0-.62-.62Zm8.67,0-.09-.62a.62.62,0,0,0-.53.62Zm.29,0,.09.62h0Zm3.7-7.74h.62a.88.88,0,0,0,0-.16Zm0-.16-.62,0a.57.57,0,0,0,0,.13Zm0-.25L48.64,67v0ZM47.1,56l.45-.43h0Zm-.93-1v-.62a.61.61,0,0,0-.57.38.63.63,0,0,0,.12.68Zm2.45-2.63H46.41v1.25h2.21ZM47,53.11l0-.38-1.24-.16-.05.38Zm0-.37a3.37,3.37,0,0,0,0-.44H45.86a2.13,2.13,0,0,1,0,.27Zm0-.45v-.73H45.86v.73Zm-.62-.11h2.14V50.93H46.49ZM48,51.56V53h1.25V51.56Zm-1.3,19-.11.63,1.23.21.11-.63Zm-.11.63A1.73,1.73,0,0,1,45,72.67v1.25a3,3,0,0,0,2.85-2.55ZM45,72.67H6.27v1.25H45Zm-38.7,0a1.73,1.73,0,0,1-1.62-1.52l-1.23.21a3,3,0,0,0,2.85,2.56ZM4.65,71.15l-.11-.63-1.23.21.11.63Zm-.1-.52,0-3.79H3.33l0,3.79Zm0-3.79V64.15H3.33v2.69Zm0-2.69A20.66,20.66,0,0,1,4.82,61a6.39,6.39,0,0,1,1.23-3.21L5.15,57a7.55,7.55,0,0,0-1.56,3.87,21.47,21.47,0,0,0-.26,3.33Zm1.47-6.34,2-2.12-.9-.86L5.15,57Zm1.57-2.55-.25.57h0l.08,0,.28.13c.23.11.5.24.7.36l.63-1.08c-.25-.14-.56-.3-.8-.41L8,54.74l-.09,0h0Zm.85,1.11c1.46.84,2.84.86,4.74.86V56c-1.93,0-3,0-4.12-.7Zm4.74.87L27,57.31l8.3,0,2.68,0h1V56.14h-1l-2.68,0-8.3,0L13.2,56v1.24ZM39,57.38a8,8,0,0,0,3.71-.92l-.58-1.11a6.74,6.74,0,0,1-3.13.77Zm3.71-.91,1.25-.65-.58-1.11-1.25.65Zm.51-.78,2,2.12.9-.86-2-2.12Zm2,2.12a5.29,5.29,0,0,1,1,2.32,17.29,17.29,0,0,1,.42,4h1.25a19,19,0,0,0-.45-4.32A6.25,6.25,0,0,0,46.11,57Zm1.46,6.34v2.69h1.25V64.15Zm0,2.69,0,3.79h1.25l0-3.79Zm-4,11a.2.2,0,0,1,0,.1s0,0,0,0v1.25a1.32,1.32,0,0,0,1.29-1.36Zm-.05.11H39.29v1.25h3.33Zm-3.33,0s0,0,0,0a.13.13,0,0,1,0-.1H38a1.33,1.33,0,0,0,1.29,1.36Zm0-.11v-2.6H38v2.6Zm-.63-2h4.67V74.67H38.62Zm4.05-.63v2.6h1.25v-2.6ZM12,77.89a.2.2,0,0,1,0,.1s0,0,0,0v1.25a1.33,1.33,0,0,0,1.29-1.36ZM12,78H8.63v1.25H12ZM8.62,78s0,0,0,0a.13.13,0,0,1,0-.1H7.33a1.33,1.33,0,0,0,1.29,1.36Zm0-.11v-2.6H7.33v2.6Zm-.62-2h4.67V74.67H8Zm4-.63v2.6h1.25v-2.6ZM10.94,49.56a6.65,6.65,0,0,1,6.13-4.31V44a7.9,7.9,0,0,0-7.29,5.1Zm6.13-4.31h17.1V44H17.07Zm17.11,0a6.65,6.65,0,0,1,6.13,4.31l1.16-.46A7.9,7.9,0,0,0,34.18,44Zm6.12,4.31L42,53.79l1.16-.46L41.46,49.1Zm2,3.45-1.11.58.58,1.11,1.11-.58Zm-1.12.58a4.76,4.76,0,0,1-2.21.55v1.25a6.06,6.06,0,0,0,2.79-.69Zm-2.2.54H12.29v1.25H39Zm-26.67,0a4.79,4.79,0,0,1-2.21-.55L9.5,54.69a6,6,0,0,0,2.79.69Zm-2.21-.54L9,53l-.58,1.11,1.11.58Zm-.82.2,1.68-4.23L9.78,49.1,8.1,53.33Zm-6-.76V51.56H2V53Zm-.63-.85H4.76V50.93H2.62Zm1.51-.62v.73H5.38v-.73Zm0,.73a3.15,3.15,0,0,0,0,.44l1.24-.17a2.45,2.45,0,0,1,0-.27Zm0,.44,0,.38L5.45,53l0-.38Zm.67-.33H2.62v1.25H4.83Zm46.42-1a2.48,2.48,0,0,0-2.45-2.49v1.25A1.23,1.23,0,0,1,50,51.43Zm-2.45-2.5H46.32v1.25H48.8Zm-2.49,0a2.45,2.45,0,0,0-2.42,2.34l1.25.08a1.22,1.22,0,0,1,1.18-1.17V48.93Zm-2.42,2.35-.09,1.49,1.25.08.09-1.49ZM45,52.57l-1.68-4.21-1.16.46L43.84,53Zm-1.68-4.21A9.88,9.88,0,0,0,34.17,42v1.25a8.62,8.62,0,0,1,8,5.57ZM34.18,42H17.08v1.25h17.1ZM17.07,42a9.88,9.88,0,0,0-9.15,6.36l1.16.46a8.62,8.62,0,0,1,8-5.57ZM7.92,48.36,6.24,52.57,7.4,53l1.68-4.21Zm-.47,4.41-.09-1.49-1.25.08.09,1.49Zm-.09-1.49a2.46,2.46,0,0,0-2.42-2.34v1.25a1.21,1.21,0,0,1,1.18,1.17ZM4.93,48.93H2.45v1.25H4.93Zm-2.48,0A2.48,2.48,0,0,0,0,51.42H1.25a1.22,1.22,0,0,1,1.2-1.24ZM0,51.43v1.73H1.25V51.43Zm0,1.73a2.48,2.48,0,0,0,2.45,2.49V54.4a1.23,1.23,0,0,1-1.2-1.24Zm2.45,2.49H5.08V54.4H2.45Zm2.18-1.06-.93,1,.9.86.93-1Zm-.93,1a8.81,8.81,0,0,0-2,4.31,22,22,0,0,0-.39,4.27H2.59a20.58,20.58,0,0,1,.37-4,7.62,7.62,0,0,1,1.65-3.7ZM1.33,64.15v2.69H2.58V64.15Zm0,2.69a2,2,0,0,0,0,.32L2.6,67c0-.1,0-.12,0-.15H1.33Zm0,.31c0,.06,0,.11,0,.16l1.24-.12a1.5,1.5,0,0,1,0-.2Zm0,.15v0l1.25-.1v0Zm0-.15,0,.15,1.22.28,0-.15Zm0,.3v3.38H2.58V67.45Zm0,3.38a5,5,0,0,0,4.25,5l.18-1.24a3.8,3.8,0,0,1-3.18-3.79H1.33Zm4.25,5,.28,0L6,74.65l-.28,0Zm-.25-.58v2.62H6.58V75.27Zm0,2.62a3.33,3.33,0,0,0,3.29,3.36V80a2.08,2.08,0,0,1-2-2.11Zm3.29,3.36H12V80H8.62Zm3.34,0a3.33,3.33,0,0,0,3.29-3.36H14A2.08,2.08,0,0,1,12,80Zm3.29-3.36v-2.6H14v2.6Zm-.63-2h22V74.67h-22ZM36,75.29v2.6h1.25v-2.6Zm0,2.6a3.33,3.33,0,0,0,3.29,3.36V80a2.08,2.08,0,0,1-2-2.11Zm3.29,3.36h3.33V80H39.29Zm3.33,0a3.33,3.33,0,0,0,3.29-3.36H44.66a2.08,2.08,0,0,1-2,2.11Zm3.3-3.36V75.27H44.67v2.62Zm-.54-2,.28,0-.18-1.24-.28,0Zm.29,0a5.05,5.05,0,0,0,4.24-5H48.66a3.8,3.8,0,0,1-3.17,3.78Zm4.24-5V67.5H48.66v3.33Zm0-3.5a.81.81,0,0,1,0-.09h0l-1.24.18a1.55,1.55,0,0,0,0,.23Zm0,0,0-.26L48.64,67l0,.26Zm0-.21a2,2,0,0,0,0-.32H48.66a.69.69,0,0,1,0,.16Zm0-.32V64.15H48.66v2.69Zm0-2.69a22,22,0,0,0-.39-4.27,8.73,8.73,0,0,0-2-4.31l-.9.86a7.58,7.58,0,0,1,1.65,3.7,20.58,20.58,0,0,1,.37,4Zm-2.36-8.58-.93-1-.9.86.93,1Zm-1.38.08H48.8V54.4H46.17Zm2.63,0a2.47,2.47,0,0,0,2.45-2.49H50a1.22,1.22,0,0,1-1.2,1.24Zm2.45-2.49V51.43H50v1.73Z"/><path class="cls-1" d="M42.68,65a.68.68,0,0,1-.64.72H37.21a.61.61,0,0,1-.55-.36h0a.85.85,0,0,1,.12-.89.63.63,0,0,1,.43-.27L42,63.59a.59.59,0,0,1,.46.15.73.73,0,0,1,.24.56V65Zm1.94-.65a2.73,2.73,0,0,0-.89-2,2.55,2.55,0,0,0-2-.64L37,62.2a2.66,2.66,0,0,0-1.85,1.16,2.74,2.74,0,0,0-.2,2.84,2.56,2.56,0,0,0,2.28,1.42H42A2.63,2.63,0,0,0,44.62,65Z"/><path class="cls-2" d="M36.66,65.31l-.58.23,0,.06Zm0,0,.58-.23,0,0Zm.13-.9.51.36h0Zm.43-.26.07.62h0ZM42,63.59,41.91,63h0Zm.47.15L42,64.2h0Zm1.29-1.46.42-.47h0Zm-2-.64.07.62h0ZM37,62.2l-.07-.62h0Zm-1.85,1.16.51.36h0Zm-.2,2.84-.56.28h0ZM42.05,65A.13.13,0,0,1,42,65s0,0,0,0h0V66.3A1.3,1.3,0,0,0,43.3,65H42.05ZM42,65H37.21v1.25H42Zm-4.83,0h0l0,0-1.11.57a1.24,1.24,0,0,0,1.11.7Zm0,0h0l-1.16.46h0Zm0,0h0s0,0,0,0v0a.33.33,0,0,1,.08-.2l-1-.73a1.44,1.44,0,0,0-.17,1.54Zm.08-.26h0l-.15-1.25a1.24,1.24,0,0,0-.87.52Zm0,0L42,64.21,41.89,63l-4.76.56ZM42,64.21h0l.85-.92a1.21,1.21,0,0,0-1-.32Zm0,0s0,0,0,0,0,0,0,0a.43.43,0,0,1,0,0h1.25a1.39,1.39,0,0,0-.45-1Zm0,.09V65H43.3V64.3Zm3.2,0a3.35,3.35,0,0,0-1.1-2.49l-.83.93A2.12,2.12,0,0,1,44,64.3Zm-1.1-2.49A3.17,3.17,0,0,0,41.68,61l.15,1.24a1.93,1.93,0,0,1,1.49.48ZM41.68,61l-4.77.56.15,1.24,4.77-.56Zm-4.77.56A3.26,3.26,0,0,0,34.62,63l1,.72a2,2,0,0,1,1.42-.9ZM34.62,63a3.37,3.37,0,0,0-.25,3.49l1.11-.57a2.11,2.11,0,0,1,.16-2.19Zm-.25,3.49a3.19,3.19,0,0,0,2.84,1.76V67a2,2,0,0,1-1.73-1.08Zm2.84,1.76H42V67H37.21Zm4.83,0A3.26,3.26,0,0,0,45.25,65H44a2,2,0,0,1-2,2ZM45.25,65V64.3H44V65Z"/><path class="cls-1" d="M30.55,64.63l-.32,1.51a.65.65,0,0,1-.65.49H21.67a.65.65,0,0,1-.65-.49l-.32-1.51Zm-8.88,4h7.91a2.68,2.68,0,0,0,2.64-2.08l.37-1.76a1.75,1.75,0,0,0-.37-1.48,1.85,1.85,0,0,0-1.44-.67H20.49a1.92,1.92,0,0,0-1.45.67,1.78,1.78,0,0,0-.37,1.49L19,66.56A2.66,2.66,0,0,0,21.67,68.63Z"/><path class="cls-2" d="M30.55,64.63l.61.13a.61.61,0,0,0-.13-.52.62.62,0,0,0-.49-.23v.62Zm-.32,1.51L29.62,66h0Zm-9.22,0,.61-.13h0Zm-.31-1.51V64a.63.63,0,0,0-.62.75Zm11.52,1.91-.61-.13h0Zm.37-1.75L32,64.66h0Zm-.38-1.49-.48.4h0ZM19,63.3l-.48-.4h0Zm-.37,1.49.61-.13h0ZM19,66.54l.61-.13h0Zm10.91-2L29.62,66l1.22.26.32-1.51ZM29.62,66a0,0,0,0,1,0,0h-.05v1.25a1.26,1.26,0,0,0,1.26-1Zm0,0H21.67v1.25h7.91Zm-7.91,0h-.05s0,0,0,0l-1.22.25a1.27,1.27,0,0,0,1.27,1V66Zm0,0-.32-1.51-1.22.26.32,1.51Zm-.93-.76h9.85V64H20.7Zm1,4h7.91V68H21.67Zm7.91,0a3.3,3.3,0,0,0,3.25-2.58l-1.22-.25a2.06,2.06,0,0,1-2,1.59Zm3.25-2.58.37-1.76L32,64.65l-.37,1.76Zm.37-1.76a2.39,2.39,0,0,0-.5-2l-1,.8a1.12,1.12,0,0,1,.24,1Zm-.5-2a2.5,2.5,0,0,0-1.93-.9v1.25a1.24,1.24,0,0,1,1,.45ZM30.77,62H20.48v1.25H30.77ZM20.48,62a2.51,2.51,0,0,0-1.93.9l1,.8a1.24,1.24,0,0,1,1-.45V62Zm-1.93.9a2.39,2.39,0,0,0-.5,2l1.22-.26a1.13,1.13,0,0,1,.24-1Zm-.5,2,.37,1.76,1.22-.26-.37-1.76Zm.37,1.76a3.3,3.3,0,0,0,3.25,2.58V68a2.05,2.05,0,0,1-2-1.59Z"/><path class="cls-1" d="M53.14,35.16,47,28.83l-1.39,1.44,6.83,7.06a1,1,0,0,0,1.39,0L67.63,23.06l-1.39-1.44Z"/><path class="cls-3" d="M53.14,35.16,47,28.83l-1.39,1.44,6.83,7.06a1,1,0,0,0,1.39,0L67.63,23.06l-1.39-1.44Z"/></g></g></svg>