<?xml version="1.0" encoding="utf-8"?>
<!-- Generator: Adobe Illustrator 24.0.3, SVG Export Plug-In . SVG Version: 6.00 Build 0)  -->
<svg version="1.1" id="Layer_1" xmlns="http://www.w3.org/2000/svg" xmlns:xlink="http://www.w3.org/1999/xlink" x="0px" y="0px"
	 viewBox="0 0 74 94" style="enable-background:new 0 0 74 94;" xml:space="preserve">
<style type="text/css">
	.st0{fill-rule:evenodd;clip-rule:evenodd;fill:#194A79;stroke:#194A79;stroke-width:2;stroke-miterlimit:10;}
</style>
<path class="st0" d="M4.7,17.2l0.4,0C22.9,16.8,33.3,8.6,37,5.1l0.3-0.3l0.3,0.3c3.7,3.5,14.2,11.7,31.9,12.2l0.4,0v28.2
	c0,11.7-5.5,22.9-14.7,30L37.3,89.1L19.4,75.4c-9.2-7.1-14.7-18.3-14.7-30L4.7,17.2L4.7,17.2z M2.3,45.4c0,12.5,5.9,24.4,15.7,31.9
	l18.6,14.3c0.4,0.3,1,0.3,1.5,0l18.6-14.3c9.8-7.5,15.7-19.5,15.7-31.9V16c0-0.7-0.5-1.2-1.2-1.2c-21.5,0-32.8-12.4-32.9-12.6
	C38,2,37.7,1.9,37.3,1.9c-0.3,0-0.7,0.1-0.9,0.4C35.9,2.8,25,14.8,3.5,14.8c-0.7,0-1.2,0.6-1.2,1.2V45.4z"/>
<path class="st0" d="M35.5,54.5l19.8-19.7L53,32.5L34.3,51l-8.7-8.7l-2.3,2.3l9.9,9.8c0.3,0.3,0.7,0.5,1.2,0.5
	C34.8,55,35.2,54.8,35.5,54.5z"/>
</svg>
