<svg xmlns="http://www.w3.org/2000/svg" viewBox="0 0 84 84"><defs><style>.cls-1,.cls-2,.cls-3{fill:none;stroke:#18c8ee;}.cls-1{stroke-width:4px;}.cls-2{stroke-width:3px;}.cls-3{stroke-linecap:round;stroke-width:5px;}</style></defs><title>Asset 1</title><g id="Layer_2" data-name="Layer 2"><g id="Layer_1-2" data-name="Layer 1"><path class="cls-1" d="M42,82A40,40,0,1,1,76,63"/><path class="cls-2" d="M66.86,65.19l1.4.3h0Zm1.25,1.36c0-.22.09-.44.13-.62a3.55,3.55,0,0,0,.34-.28l6.12,5.92c0,.1,0,.2,0,.3-.25,0-.5.06-.73.09l-.87.14-.27.05-.08,0h0L73,73.64l-.29-1.47-.43.09-.31.3-3.27,3.12h0l-4.38-4.23,3.2-3,.46-.44v-.5s0-.11,0-.18C68,67.07,68.05,66.81,68.11,66.55Z"/><path class="cls-2" d="M71.92,60.5,79.41,68a.42.42,0,0,1,0,.6l-4.08,4.08a.42.42,0,0,1-.6,0l-7.49-7.49a.42.42,0,0,1,0-.6l4.08-4.08A.42.42,0,0,1,71.92,60.5Z"/><path class="cls-3" d="M24.42,45.9,38.3,59"/><path class="cls-3" d="M64.82,32.18,38.29,59"/></g></g></svg>