<?xml version="1.0" encoding="utf-8"?>
<!-- Generator: Adobe Illustrator 24.0.3, SVG Export Plug-In . SVG Version: 6.00 Build 0)  -->
<svg version="1.1" id="Layer_1" xmlns="http://www.w3.org/2000/svg" xmlns:xlink="http://www.w3.org/1999/xlink" x="0px" y="0px"
	 viewBox="0 0 86 100" style="enable-background:new 0 0 86 100;" xml:space="preserve">
<style type="text/css">
	.st0{fill:#194a79;}
</style>
<g>
	<g>
		<path class="st0" d="M62.4,73.77c-5.44,0-9.86-5.23-9.86-11.65c0-1.49,1.21-2.7,2.7-2.7c1.49,0,2.7,1.21,2.7,2.7
			c0,3.39,2.04,6.25,4.46,6.25c2.42,0,4.46-2.86,4.46-6.25c0-1.49,1.21-2.7,2.7-2.7c1.49,0,2.7,1.21,2.7,2.7
			C72.27,68.54,67.84,73.77,62.4,73.77z"/>
	</g>
	<g>
		<path class="st0" d="M35.07,97.01H3.92c-1.49,0-2.7-1.21-2.7-2.7v-66.9c0-1.49,1.21-2.7,2.7-2.7h65.93c1.49,0,2.7,1.21,2.7,2.7
			v20.54c0,1.49-1.21,2.7-2.7,2.7c-1.49,0-2.7-1.21-2.7-2.7V30.12H6.62v61.49h28.46c1.49,0,2.7,1.21,2.7,2.7
			C37.78,95.81,36.57,97.01,35.07,97.01z"/>
	</g>
	<g>
		<path class="st0" d="M82.11,98.21H42.7c-1.49,0-2.7-1.21-2.7-2.7V55.52c0-1.49,1.21-2.7,2.7-2.7h39.41c1.49,0,2.7,1.21,2.7,2.7
			v39.99C84.81,97,83.6,98.21,82.11,98.21z M45.4,92.8h34V58.22h-34V92.8z"/>
	</g>
	<g>
		<path class="st0" d="M50.12,23.97c-1.49,0-2.7-1.21-2.7-2.7c0-7.63-4.73-13.85-10.54-13.85c-5.81,0-10.54,6.21-10.54,13.85
			c0,1.49-1.21,2.7-2.7,2.7c-1.49,0-2.7-1.21-2.7-2.7c0-10.61,7.15-19.25,15.94-19.25c8.79,0,15.94,8.64,15.94,19.25
			C52.82,22.76,51.61,23.97,50.12,23.97z"/>
	</g>
</g>
</svg>
