<svg xmlns="http://www.w3.org/2000/svg" viewBox="0 0 35.32 35.44"><defs><style>.cls-1,.cls-2,.cls-3,.cls-4,.cls-5,.cls-6{fill:none;stroke:#1a4a7a;stroke-linecap:round;stroke-linejoin:round;}.cls-1{stroke-width:1.44px;}.cls-2{stroke-width:1.44px;}.cls-3{stroke-width:1.44px;}.cls-4{stroke-width:1.43px;}.cls-5{stroke-width:1.44px;}.cls-6{stroke-width:1.44px;}</style></defs><title>Asset 20</title><g id="Layer_2" data-name="Layer 2"><g id="Isolation_Mode" data-name="Isolation Mode"><polygon class="cls-1" points="34.6 1.77 1.65 34.72 34.6 34.72 34.6 1.77 34.6 1.77"/><polygon class="cls-2" points="27.15 18.89 18.77 27.27 27.15 27.27 27.15 18.89 27.15 18.89"/><line class="cls-3" x1="34.6" y1="30" x2="30.93" y2="30"/><line class="cls-4" x1="34.6" y1="25.23" x2="32.33" y2="25.23"/><line class="cls-3" x1="34.6" y1="20.45" x2="30.93" y2="20.45"/><line class="cls-4" x1="34.6" y1="15.68" x2="32.33" y2="15.68"/><line class="cls-3" x1="34.6" y1="10.91" x2="30.93" y2="10.91"/><polygon class="cls-5" points="26.67 4.39 22.99 0.72 3.93 19.78 2.22 25.16 7.6 23.45 26.67 4.39 26.67 4.39"/><line class="cls-5" x1="20.01" y1="3.74" x2="23.69" y2="7.42"/><line class="cls-6" x1="4.57" y1="19.15" x2="8.24" y2="22.82"/><line class="cls-6" x1="21.85" y1="5.58" x2="6.4" y2="20.98"/><line class="cls-6" x1="2.22" y1="25.16" x2="0.72" y2="26.68"/></g></g></svg>