<svg xmlns="http://www.w3.org/2000/svg" viewBox="0 0 60.35 106.09"><defs><style>.cls-1,.cls-2{fill:#18c8ee;}.cls-1{fill-rule:evenodd;}</style></defs><title>Asset 6</title><g id="Layer_2" data-name="Layer 2"><g id="Layer_1-2" data-name="Layer 1"><path class="cls-1" d="M30.75,36.05a4.1,4.1,0,1,0,4.1,4.1A4.1,4.1,0,0,0,30.75,36.05Zm0,9.84a5.73,5.73,0,1,1,5.74-5.74,5.73,5.73,0,0,1-5.74,5.74Zm0-16.4A10.45,10.45,0,0,0,20.08,39.71c0,.24,0,.48,0,.72,0,8.07,7.54,16.27,10.66,19.32,3.11-3.07,10.66-11.33,10.66-19.32A10.45,10.45,0,0,0,31.47,29.5,5.77,5.77,0,0,0,30.75,29.49Zm0,32.22a.83.83,0,0,1-.56-.23c-3.54-3.33-11.74-12-11.74-21.06A12,12,0,0,1,29.93,27.85c.27,0,.55,0,.82,0A12,12,0,0,1,43.06,39.6c0,.27,0,.55,0,.82,0,8.92-8.2,17.7-11.74,21.06A.83.83,0,0,1,30.75,61.71Zm18.86,7.13H11.89a1.61,1.61,0,0,1-1.43-2.43l4-7.76a2.49,2.49,0,0,1,2.2-1.3h5.44L23.37,59H16.63a.84.84,0,0,0-.77.44l-4,7.76H49.61l-3.28-7.71a.86.86,0,0,0-.8-.49h-7.4l1.3-1.64h6.1a2.5,2.5,0,0,1,2.31,1.49l3.28,7.72A1.66,1.66,0,0,1,51,68.09,1.61,1.61,0,0,1,49.61,68.84Z"/><path class="cls-2" d="M30.75,45.89v.62h0Zm-5.7-5.74h0Zm5.73-5.71v.62h0Zm5.71,5.71h0Zm-5.71,5.74v.62h0ZM20.08,39.7h0Zm0,.72h.62v0ZM30.75,59.74l-.44.45.44.43.44-.43ZM41.41,40.42l-.62,0h.62ZM31.47,29.49l0,.62h0Zm-1.28,32,.43-.45h0ZM18.45,40.42h.62ZM29.93,27.86l0-.62h0Zm.82,0v.62h0ZM43.06,39.6h0Zm0,.82-.62,0h.62ZM31.31,61.48,30.88,61h0ZM11.89,68.84v-.63h0Zm-1.42-.78-.54.31h0Zm0-1.64.54.31h0Zm4-7.76-.55-.3h0Zm2.19-1.3V58h0Zm5.45,0,.49-.39-.19-.24h-.3ZM23.37,59v.62h1.29l-.8-1Zm-6.74,0,0,.62h0Zm-.77.45-.55-.3h0Zm-4,7.75-.56-.28-.47.91h1V67.2Zm37.72,0v.62h.94L50.18,67Zm-3.28-7.7.58-.24h0Zm-.8-.5v.62h0Zm-7.4,0-.49-.39-.8,1h1.29V59Zm1.3-1.64v-.62h-.3l-.19.24Zm6.1,0V58h0Zm2.31,1.5.58-.24h0Zm3.28,7.72.58-.24h0ZM51,68.11l.52.34h0ZM30.75,35.42A4.72,4.72,0,0,0,26,40.14h1.25a3.47,3.47,0,0,1,3.47-3.47ZM26,40.15a4.72,4.72,0,0,0,4.72,4.72V43.62a3.47,3.47,0,0,1-3.47-3.47Zm4.72,4.72a4.72,4.72,0,0,0,4.72-4.72H34.22a3.47,3.47,0,0,1-3.47,3.47Zm4.73-4.72a4.72,4.72,0,0,0-4.72-4.72v1.25a3.47,3.47,0,0,1,3.47,3.47Zm-4.73,5.11a5.09,5.09,0,0,1-5.08-5.11H24.42a6.35,6.35,0,0,0,6.33,6.37Zm-5.08-5.11a5.1,5.1,0,0,1,5.11-5.08V33.82a6.35,6.35,0,0,0-6.37,6.33Zm5.11-5.09a5.09,5.09,0,0,1,5.08,5.08h1.25a6.35,6.35,0,0,0-6.33-6.33Zm5.09,5.09a5.09,5.09,0,0,1-5.08,5.11v1.25a6.35,6.35,0,0,0,6.33-6.37Zm-5.09,5.11h0v1.25h0Zm0-16.4A11.08,11.08,0,0,0,19.45,39.69l1.25,0a9.83,9.83,0,0,1,10-9.61ZM19.46,39.69c0,.25,0,.5,0,.76l1.25-.06c0-.22,0-.45,0-.68Zm0,.73c0,4.22,2,8.41,4.27,11.89a50.59,50.59,0,0,0,6.58,7.88l.87-.89a49.12,49.12,0,0,1-6.41-7.68c-2.25-3.4-4.06-7.34-4.06-11.2ZM31.19,60.19a51.26,51.26,0,0,0,6.58-7.92C40.07,48.78,42,44.6,42,40.42H40.78c0,3.81-1.81,7.75-4.06,11.16a49.13,49.13,0,0,1-6.41,7.71ZM42,40.45A11.07,11.07,0,0,0,31.5,28.87l-.06,1.25A9.83,9.83,0,0,1,40.79,40.4ZM31.5,28.87h-.76l0,1.25h.68Zm-.74,32.22a.2.2,0,0,1-.14-.06l-.87.9a1.47,1.47,0,0,0,1,.41ZM30.62,61a50.42,50.42,0,0,1-7.11-8.29c-2.46-3.68-4.44-8-4.44-12.31H17.82c0,4.69,2.13,9.25,4.65,13a51.47,51.47,0,0,0,7.29,8.5ZM19.08,40.4A11.41,11.41,0,0,1,30,28.48l-.06-1.25A12.68,12.68,0,0,0,17.82,40.45ZM30,28.48h.78l0-1.25c-.29,0-.58,0-.86,0Zm.81,0A11.42,11.42,0,0,1,42.44,39.62l1.25,0A12.67,12.67,0,0,0,30.74,27.22ZM42.43,39.62c0,.26,0,.52,0,.78l1.25.05c0-.29,0-.57,0-.86Zm0,.8c0,4.28-2,8.58-4.44,12.27A51.6,51.6,0,0,1,30.87,61l.86.91A52.65,52.65,0,0,0,39,53.39c2.52-3.77,4.65-8.32,4.65-13H42.42ZM30.87,61a.3.3,0,0,1-.14.06l0,1.25a1.43,1.43,0,0,0,1-.41Zm18.74,7.19H11.89v1.25H49.61Zm-37.73,0a1,1,0,0,1-.88-.49l-1.07.65a2.26,2.26,0,0,0,2,1.08ZM11,67.75a1,1,0,0,1,0-1l-1.08-.62a2.28,2.28,0,0,0,0,2.26Zm0-1,4-7.76-1.11-.57-4,7.76ZM15,59a1.87,1.87,0,0,1,1.64-1V56.74a3.09,3.09,0,0,0-2.75,1.62Zm1.65-1h5.44V56.74H16.63Zm5-.24,1.3,1.64,1-.78L22.57,57Zm1.78.63H16.63v1.25h6.74Zm-6.72,0a1.47,1.47,0,0,0-1.34.77l1.1.6a.22.22,0,0,1,.2-.12Zm-1.34.78-4,7.76,1.11.57,4-7.76Zm-3.42,8.67H49.61V66.58H11.89ZM50.18,67,46.9,59.25l-1.15.49L49,67.45ZM46.9,59.23a1.49,1.49,0,0,0-1.39-.85l.05,1.25a.26.26,0,0,1,.22.13Zm-1.37-.85h-7.4v1.25h7.4Zm-6.91,1,1.3-1.64-1-.78-1.3,1.64Zm.81-1.4h6.1V56.74h-6.1Zm6.1,0a1.86,1.86,0,0,1,1.73,1.12l1.14-.5a3.13,3.13,0,0,0-2.89-1.87Zm1.73,1.11,3.28,7.72,1.15-.49-3.28-7.72Zm3.28,7.72a1,1,0,0,1-.08,1l1,.68a2.29,2.29,0,0,0,.18-2.11Zm-.08.94a1,1,0,0,1-.85.46v1.25a2.26,2.26,0,0,0,1.9-1Z"/><path class="cls-1" d="M30.25,95.8a2,2,0,1,1,2-2A2,2,0,0,1,30.25,95.8Zm0-7a5,5,0,1,0,5,5A5,5,0,0,0,30.25,88.84Z"/><path class="cls-1" d="M57,14.39H3.35V5.33a2,2,0,0,1,2-2H55a2,2,0,0,1,2,2ZM3.35,81.54H57V17.48H3.35ZM57,100.76a2,2,0,0,1-2,2H5.35a2,2,0,0,1-2-2V84.64H57ZM60.1,5.33A5.1,5.1,0,0,0,55,.25H5.35A5.1,5.1,0,0,0,.25,5.33v95.43a5.1,5.1,0,0,0,5.1,5.08H55a5.1,5.1,0,0,0,5.1-5.08Z"/><path class="cls-2" d="M57,14.39v.25h.25v-.25Zm-53.65,0H3.1v.25h.25Zm0,67.15H3.1v.25h.25Zm53.65,0v.25h.25v-.25Zm0-64.06h.25v-.25H57Zm-53.65,0v-.25H3.1v.25Zm0,67.16v-.25H3.1v.25Zm53.65,0h.25v-.25H57Zm0-70.5H3.35v.5H57Zm-53.4.25V5.33H3.1v9.06Zm0-9.06A1.74,1.74,0,0,1,5.35,3.59v-.5A2.24,2.24,0,0,0,3.1,5.33ZM5.35,3.59H55v-.5H5.35ZM55,3.59a1.75,1.75,0,0,1,1.75,1.74h.5A2.24,2.24,0,0,0,55,3.09Zm1.75,1.74v9.06h.5V5.33ZM3.35,81.79H57v-.5H3.35Zm53.9-.25V17.48h-.5V81.54ZM57,17.23H3.35v.5H57Zm-53.9.25V81.54h.5V17.48Zm53.65,83.28A1.74,1.74,0,0,1,55,102.5v.5a2.24,2.24,0,0,0,2.25-2.24ZM55,102.5H5.35v.5H55Zm-49.65,0a1.75,1.75,0,0,1-1.75-1.74H3.1A2.24,2.24,0,0,0,5.35,103ZM3.6,100.76V84.64H3.1v16.12ZM3.35,84.89H57v-.5H3.35Zm53.4-.25v16.12h.5V84.64Zm3.6-79.31A5.35,5.35,0,0,0,55,0V.5a4.84,4.84,0,0,1,4.85,4.83ZM55,0H5.35V.5H55ZM5.35,0A5.35,5.35,0,0,0,0,5.33H.5A4.84,4.84,0,0,1,5.35.5ZM0,5.33v95.43H.5V5.33Zm0,95.43a5.35,5.35,0,0,0,5.35,5.33v-.5A4.84,4.84,0,0,1,.5,100.76Zm5.35,5.33H55v-.5H5.35Zm49.65,0a5.35,5.35,0,0,0,5.35-5.33h-.5A4.84,4.84,0,0,1,55,105.59Zm5.35-5.33V5.33h-.5v95.43Z"/><path class="cls-1" d="M26.77,10.84h7a1.5,1.5,0,1,0,0-3h-7a1.5,1.5,0,1,0,0,3Z"/></g></g></svg>