<?xml version="1.0" encoding="utf-8"?>
<!-- Generator: Adobe Illustrator 24.1.2, SVG Export Plug-In . SVG Version: 6.00 Build 0)  -->
<svg version="1.1" id="Слой_1" xmlns="http://www.w3.org/2000/svg" xmlns:xlink="http://www.w3.org/1999/xlink" x="0px" y="0px"
	 viewBox="0 0 90 64.5" style="enable-background:new 0 0 90 64.5;" xml:space="preserve">
<style type="text/css">
	.st0{fill:#194A79;}
</style>
<path class="st0" d="M73.5,32.5c8,2.9,14.3,10.4,16.3,19.8c0.7,3.4-1.5,6.7-4.5,6.7H62.9c0.2,0.8,0.4,1.6,0.5,2.4
	c0.2,1.6-0.8,3-2.3,3H30.7c-1.4,0-2.5-1.4-2.3-3c0.1-0.8,0.3-1.6,0.5-2.4H4.7c-3,0-5.2-3.2-4.6-6.5c2.1-10.5,9.1-19,18.2-22
	c-4.2-2.9-7-8.1-7-14C11.3,7.4,17.8,0,25.8,0s14.5,7.4,14.5,16.4c0,6-2.8,11.2-7,14c1.4,0.5,2.8,1.1,4.1,1.8
	c1.7-3.2,4.9-5.4,8.4-5.4c4.2,0,7.8,2.9,9.2,7.1c1.1-0.6,2.2-1.1,3.3-1.5c-3.6-2.8-6-7.4-6-12.8c0-8.5,6.1-15.4,13.6-15.4
	s13.6,6.9,13.6,15.4C79.6,25.1,77.2,29.8,73.5,32.5z M57.4,19.8c0,5.7,3.8,10.3,8.5,10.3c4.7,0,8.5-4.6,8.5-10.3S70.7,9.5,66,9.5
	S57.4,14.1,57.4,19.8z M45.9,32c-2.6,0-4.9,2.8-4.9,6.2c0,3.3,2.2,6.2,4.9,6.2c2.6,0,4.9-2.8,4.9-6.2S48.5,32,45.9,32z M16.3,16.4
	c0,6.3,4.2,11.4,9.5,11.4s9.5-5.1,9.5-11.4c0-6.3-4.2-11.4-9.5-11.4S16.3,10.2,16.3,16.4z M5.1,53.9h25.8c1.9-3.4,4.7-6.2,8-7.8
	c-1.8-2-2.9-4.8-2.9-7.9c0-0.3,0-0.6,0-0.8c-3-1.9-6.5-3.1-10.2-3.1c-9.8,0-18.5,8.1-20.7,19.2C5,53.7,5.1,53.8,5.1,53.9z M34,59.4
	h23.7c-1.8-5.8-6.5-9.9-11.9-9.9S35.8,53.6,34,59.4z M84.9,53.9c0-0.1,0.1-0.3,0-0.5c-2.2-10.1-10-17.2-18.9-17.2
	c-3.8,0-7.3,1.3-10.3,3.4c-0.3,2.5-1.3,4.8-2.8,6.5c3.3,1.6,6.1,4.4,8,7.8H84.9z"/>
</svg>
